<?xml version="1.0" encoding="UTF-8"?>
<!--Generator: Apple Native CoreSVG 341-->
<!DOCTYPE svg
PUBLIC "-//W3C//DTD SVG 1.1//EN"
       "http://www.w3.org/Graphics/SVG/1.1/DTD/svg11.dtd">
<svg version="1.1" xmlns="http://www.w3.org/2000/svg" xmlns:xlink="http://www.w3.org/1999/xlink" viewBox="0 0 3300 2200">
 <!--glyph: "", point size: 100.0, font version: "21.1d1e1", template writer version: "138.0.0"-->
 <style>.defaults {-sfsymbols-wiggle-style:clockwise;-sfsymbols-rotates-clockwise:true;-sfsymbols-draw-reverses-motion-groups:true}

.monochrome-0 {-sfsymbols-motion-group:1;-sfsymbols-always-rotates:true;-sfsymbols-layer-tags:-262bc7c4005343c0 _enclosure.stroke arrow.trianglehead.clockwise;-sfsymbols-clipstroke-attachments:1 4 0 1 0 0}
.monochrome-1 {-sfsymbols-motion-group:0;-sfsymbols-always-pulses:true;-sfsymbols-layer-tags:-262bc7c4005343c0 587037749e47be26 playpause}

.multicolor-0:tintColor {-sfsymbols-motion-group:1;-sfsymbols-always-rotates:true;-sfsymbols-layer-tags:-262bc7c4005343c0 _enclosure.stroke arrow.trianglehead.clockwise;-sfsymbols-clipstroke-attachments:1 4 0 1 0 0}
.multicolor-1:tintColor {-sfsymbols-motion-group:0;-sfsymbols-always-pulses:true;-sfsymbols-layer-tags:-262bc7c4005343c0 587037749e47be26 playpause}

.hierarchical-0:secondary {-sfsymbols-motion-group:1;-sfsymbols-always-rotates:true;-sfsymbols-layer-tags:-262bc7c4005343c0 _enclosure.stroke arrow.trianglehead.clockwise;-sfsymbols-clipstroke-attachments:1 4 0 1 0 0}
.hierarchical-1:primary {-sfsymbols-motion-group:0;-sfsymbols-always-pulses:true;-sfsymbols-layer-tags:-262bc7c4005343c0 587037749e47be26 playpause}

.SFSymbolsPreviewWireframe {fill:none;opacity:1.0;stroke:black;stroke-width:0.5}
</style>
 <g id="Notes">
  <rect height="2200" id="artboard" style="fill:white;opacity:1" width="3300" x="0" y="0"/>
  <line style="fill:none;stroke:black;opacity:1;stroke-width:0.5;" x1="263" x2="3036" y1="292" y2="292"/>
  <text style="stroke:none;fill:black;font-family:sans-serif;font-size:13;font-weight:bold;" transform="matrix(1 0 0 1 263 322)">Weight/Scale Variations</text>
  <text style="stroke:none;fill:black;font-family:sans-serif;font-size:13;text-anchor:middle;" transform="matrix(1 0 0 1 559.711 322)">Ultralight</text>
  <text style="stroke:none;fill:black;font-family:sans-serif;font-size:13;text-anchor:middle;" transform="matrix(1 0 0 1 856.422 322)">Thin</text>
  <text style="stroke:none;fill:black;font-family:sans-serif;font-size:13;text-anchor:middle;" transform="matrix(1 0 0 1 1153.13 322)">Light</text>
  <text style="stroke:none;fill:black;font-family:sans-serif;font-size:13;text-anchor:middle;" transform="matrix(1 0 0 1 1449.84 322)">Regular</text>
  <text style="stroke:none;fill:black;font-family:sans-serif;font-size:13;text-anchor:middle;" transform="matrix(1 0 0 1 1746.56 322)">Medium</text>
  <text style="stroke:none;fill:black;font-family:sans-serif;font-size:13;text-anchor:middle;" transform="matrix(1 0 0 1 2043.27 322)">Semibold</text>
  <text style="stroke:none;fill:black;font-family:sans-serif;font-size:13;text-anchor:middle;" transform="matrix(1 0 0 1 2339.98 322)">Bold</text>
  <text style="stroke:none;fill:black;font-family:sans-serif;font-size:13;text-anchor:middle;" transform="matrix(1 0 0 1 2636.69 322)">Heavy</text>
  <text style="stroke:none;fill:black;font-family:sans-serif;font-size:13;text-anchor:middle;" transform="matrix(1 0 0 1 2933.4 322)">Black</text>
  <line style="fill:none;stroke:black;opacity:1;stroke-width:0.5;" x1="263" x2="3036" y1="1903" y2="1903"/>
  <g transform="matrix(0.2 0 0 0.2 263 1933)">
   <path d="m46.2402 4.15039c21.7773 0 39.4531-17.627 39.4531-39.4043s-17.6758-39.4043-39.4531-39.4043c-21.7285 0-39.4043 17.627-39.4043 39.4043s17.6758 39.4043 39.4043 39.4043Zm0-7.42188c-17.6758 0-31.9336-14.3066-31.9336-31.9824s14.2578-31.9824 31.9336-31.9824 31.9824 14.3066 31.9824 31.9824-14.3066 31.9824-31.9824 31.9824Zm3.61328-17.7734v-28.4668c0-2.24609-1.46484-3.75977-3.71094-3.75977-2.14844 0-3.61328 1.51367-3.61328 3.75977v28.4668c0 2.19727 1.46484 3.71094 3.61328 3.71094 2.24609 0 3.71094-1.51367 3.71094-3.71094Zm-17.8223-10.5957h28.418c2.19727 0 3.71094-1.46484 3.71094-3.61328 0-2.19727-1.51367-3.71094-3.71094-3.71094h-28.418c-2.24609 0-3.75977 1.51367-3.75977 3.71094 0 2.14844 1.51367 3.61328 3.75977 3.61328Z"/>
  </g>
  <g transform="matrix(0.2 0 0 0.2 281.506 1933)">
   <path d="m58.5449 14.5508c27.4902 0 49.8047-22.3145 49.8047-49.8047s-22.3145-49.8047-49.8047-49.8047-49.8047 22.3145-49.8047 49.8047 22.3145 49.8047 49.8047 49.8047Zm0-8.30078c-22.9492 0-41.5039-18.5547-41.5039-41.5039s18.5547-41.5039 41.5039-41.5039 41.5039 18.5547 41.5039 41.5039-18.5547 41.5039-41.5039 41.5039Zm4.05273-23.0957v-36.9141c0-2.49023-1.70898-4.19922-4.15039-4.19922-2.39258 0-4.05273 1.70898-4.05273 4.19922v36.9141c0 2.44141 1.66016 4.15039 4.05273 4.15039 2.44141 0 4.15039-1.66016 4.15039-4.15039Zm-22.5586-14.4043h36.9629c2.44141 0 4.15039-1.61133 4.15039-4.00391 0-2.44141-1.70898-4.15039-4.15039-4.15039h-36.9629c-2.49023 0-4.15039 1.70898-4.15039 4.15039 0 2.39258 1.66016 4.00391 4.15039 4.00391Z"/>
  </g>
  <g transform="matrix(0.2 0 0 0.2 304.924 1933)">
   <path d="m74.8535 28.3203c35.1074 0 63.623-28.4668 63.623-63.5742s-28.5156-63.623-63.623-63.623-63.5742 28.5156-63.5742 63.623 28.4668 63.5742 63.5742 63.5742Zm0-9.08203c-30.127 0-54.4922-24.3652-54.4922-54.4922s24.3652-54.4922 54.4922-54.4922 54.4922 24.3652 54.4922 54.4922-24.3652 54.4922-54.4922 54.4922Zm4.44336-30.3223v-48.4863c0-2.73438-1.85547-4.63867-4.54102-4.63867-2.58789 0-4.44336 1.9043-4.44336 4.63867v48.4863c0 2.68555 1.85547 4.58984 4.44336 4.58984 2.68555 0 4.54102-1.85547 4.54102-4.58984Zm-28.7109-19.7754h48.4863c2.68555 0 4.58984-1.80664 4.58984-4.39453 0-2.73438-1.85547-4.58984-4.58984-4.58984h-48.4863c-2.73438 0-4.58984 1.85547-4.58984 4.58984 0 2.58789 1.85547 4.39453 4.58984 4.39453Z"/>
  </g>
  <text style="stroke:none;fill:black;font-family:sans-serif;font-size:13;font-weight:bold;" transform="matrix(1 0 0 1 263 1953)">Design Variations</text>
  <text style="stroke:none;fill:black;font-family:sans-serif;font-size:13;" transform="matrix(1 0 0 1 263 1971)">Symbols are supported in up to nine weights and three scales.</text>
  <text style="stroke:none;fill:black;font-family:sans-serif;font-size:13;" transform="matrix(1 0 0 1 263 1989)">For optimal layout with text and other symbols, vertically align</text>
  <text style="stroke:none;fill:black;font-family:sans-serif;font-size:13;" transform="matrix(1 0 0 1 263 2007)">symbols with the adjacent text.</text>
  <line style="fill:none;stroke:#00AEEF;stroke-width:0.5;opacity:1.0;" x1="776" x2="776" y1="1919" y2="1933"/>
  <g transform="matrix(0.2 0 0 0.2 776 1933)">
   <path d="m16.5527 0.78125c2.58789 0 3.85742-0.976562 4.78516-3.71094l20.5566-57.5195h0.244141l20.6055 57.5195c0.927734 2.73438 2.19727 3.71094 4.73633 3.71094 2.58789 0 4.24805-1.5625 4.24805-4.00391 0-0.830078-0.146484-1.61133-0.537109-2.63672l-22.9004-60.9863c-1.12305-2.97852-3.125-4.49219-6.25-4.49219-3.02734 0-5.07812 1.46484-6.15234 4.44336l-22.9004 61.084c-0.390625 1.02539-0.537109 1.80664-0.537109 2.63672 0 2.44141 1.5625 3.95508 4.10156 3.95508Zm10.2051-20.9473h30.6641c2.00195 0 3.66211-1.66016 3.66211-3.66211 0-2.05078-1.66016-3.66211-3.66211-3.66211h-30.6641c-2.00195 0-3.66211 1.61133-3.66211 3.66211 0 2.00195 1.66016 3.66211 3.66211 3.66211Z"/>
  </g>
  <line style="fill:none;stroke:#00AEEF;stroke-width:0.5;opacity:1.0;" x1="792.836" x2="792.836" y1="1919" y2="1933"/>
  <text style="stroke:none;fill:black;font-family:sans-serif;font-size:13;font-weight:bold;" transform="matrix(1 0 0 1 776 1953)">Margins</text>
  <text style="stroke:none;fill:black;font-family:sans-serif;font-size:13;" transform="matrix(1 0 0 1 776 1971)">Leading and trailing margins on the left and right side of each symbol</text>
  <text style="stroke:none;fill:black;font-family:sans-serif;font-size:13;" transform="matrix(1 0 0 1 776 1989)">can be adjusted by modifying the x-location of the margin guidelines.</text>
  <text style="stroke:none;fill:black;font-family:sans-serif;font-size:13;" transform="matrix(1 0 0 1 776 2007)">Modifications are automatically applied proportionally to all</text>
  <text style="stroke:none;fill:black;font-family:sans-serif;font-size:13;" transform="matrix(1 0 0 1 776 2025)">scales and weights.</text>
  <g transform="matrix(0.2 0 0 0.2 1289 1933)">
   <path d="m14.209 13.1348 7.86133 7.86133c4.29688 4.39453 9.32617 4.10156 13.8672-1.02539l60.6934-68.2129-4.88281-4.88281-60.2539 67.6758c-1.80664 1.95312-3.4668 2.44141-5.81055 0.0976562l-5.17578-5.12695c-2.29492-2.29492-1.80664-3.95508 0.195312-5.81055l67.4805-62.1582-4.88281-4.83398-68.0664 62.5977c-4.98047 4.58984-5.32227 9.47266-1.02539 13.8184Zm44.873-97.4609c-2.05078 2.00195-2.24609 4.88281-1.07422 6.78711 1.12305 1.80664 3.4668 3.02734 6.5918 2.24609 5.85938-1.66016 12.5977-2.39258 18.8965 0.927734l-2.68555 7.12891c-1.61133 4.00391-0.732422 6.88477 1.70898 9.42383l10.2539 10.3027c2.34375 2.39258 4.54102 2.44141 7.08008 1.95312l4.44336-0.732422 2.58789 2.53906-0.195312 2.24609c-0.0976562 2.29492 0.537109 4.29688 2.7832 6.49414l3.36914 3.32031c2.29492 2.29492 5.51758 2.49023 7.8125 0.195312l12.9883-13.0371c2.29492-2.34375 2.14844-5.37109-0.195312-7.66602l-3.41797-3.41797c-2.19727-2.19727-4.05273-3.02734-6.34766-2.88086l-2.34375 0.244141-2.44141-2.44141 1.02539-4.6875c0.634766-2.73438-0.244141-4.98047-2.88086-7.61719l-11.2793-11.1816c-12.9395-12.8418-35.5957-11.0352-46.6797-0.146484Zm7.08008 2.05078c8.78906-6.39648 25.9766-5.66406 33.6914 1.95312l12.3047 12.207c1.02539 1.02539 1.2207 1.80664 0.927734 3.32031l-1.46484 6.64062 6.73828 6.68945 4.39453-0.244141c1.12305-0.0488281 1.51367 0.0488281 2.34375 0.878906l2.53906 2.49023-10.8398 10.8398-2.49023-2.49023c-0.830078-0.878906-0.976562-1.2207-0.927734-2.39258l0.292969-4.3457-6.68945-6.73828-6.83594 1.17188c-1.41602 0.292969-2.05078 0.195312-3.17383-0.878906l-8.93555-8.88672c-1.07422-1.02539-1.17188-1.70898-0.488281-3.36914l4.58984-11.4746c-6.10352-6.34766-17.041-7.51953-25.5859-4.58984-0.683594 0.244141-0.927734-0.390625-0.390625-0.78125Z"/>
  </g>
  <text style="stroke:none;fill:black;font-family:sans-serif;font-size:13;font-weight:bold;" transform="matrix(1 0 0 1 1289 1953)">Exporting</text>
  <text style="stroke:none;fill:black;font-family:sans-serif;font-size:13;" transform="matrix(1 0 0 1 1289 1971)">Symbols should be outlined when exporting to ensure the</text>
  <text style="stroke:none;fill:black;font-family:sans-serif;font-size:13;" transform="matrix(1 0 0 1 1289 1989)">design is preserved when submitting to Xcode.</text>
  <text id="template-version" style="stroke:none;fill:black;font-family:sans-serif;font-size:13;text-anchor:end;" transform="matrix(1 0 0 1 3036 1933)">Template v.7.0</text>
  <text style="stroke:none;fill:black;font-family:sans-serif;font-size:13;text-anchor:end;" transform="matrix(1 0 0 1 3036 1951)">Requires Xcode 26 or greater</text>
  <text id="descriptive-name" style="stroke:none;fill:black;font-family:sans-serif;font-size:13;text-anchor:end;" transform="matrix(1 0 0 1 3036 1969)">Generated from arrow.trianglehead.clockwise</text>
  <text style="stroke:none;fill:black;font-family:sans-serif;font-size:13;text-anchor:end;" transform="matrix(1 0 0 1 3036 1987)">Typeset at 100.0 points</text>
  <text style="stroke:none;fill:black;font-family:sans-serif;font-size:13;" transform="matrix(1 0 0 1 263 726)">Small</text>
  <text style="stroke:none;fill:black;font-family:sans-serif;font-size:13;" transform="matrix(1 0 0 1 263 1156)">Medium</text>
  <text style="stroke:none;fill:black;font-family:sans-serif;font-size:13;" transform="matrix(1 0 0 1 263 1586)">Large</text>
 </g>
 <g id="Guides">
  <g id="H-reference" style="fill:#27AAE1;stroke:none;" transform="matrix(1 0 0 1 339 696)">
   <path d="M0.993654 0L3.63775 0L29.3281-67.1323L30.0303-67.1323L30.0303-70.459L28.1226-70.459ZM11.6885-24.4799L46.9815-24.4799L46.2315-26.7285L12.4385-26.7285ZM55.1196 0L57.7637 0L30.6382-70.459L29.4326-70.459L29.4326-67.1323Z"/>
  </g>
  <line id="Baseline-S" style="fill:none;stroke:#27AAE1;opacity:1;stroke-width:0.5;" x1="263" x2="3036" y1="696" y2="696"/>
  <line id="Capline-S" style="fill:none;stroke:#27AAE1;opacity:1;stroke-width:0.5;" x1="263" x2="3036" y1="625.541" y2="625.541"/>
  <g id="H-reference" style="fill:#27AAE1;stroke:none;" transform="matrix(1 0 0 1 339 1126)">
   <path d="M0.993654 0L3.63775 0L29.3281-67.1323L30.0303-67.1323L30.0303-70.459L28.1226-70.459ZM11.6885-24.4799L46.9815-24.4799L46.2315-26.7285L12.4385-26.7285ZM55.1196 0L57.7637 0L30.6382-70.459L29.4326-70.459L29.4326-67.1323Z"/>
  </g>
  <line id="Baseline-M" style="fill:none;stroke:#27AAE1;opacity:1;stroke-width:0.5;" x1="263" x2="3036" y1="1126" y2="1126"/>
  <line id="Capline-M" style="fill:none;stroke:#27AAE1;opacity:1;stroke-width:0.5;" x1="263" x2="3036" y1="1055.54" y2="1055.54"/>
  <g id="H-reference" style="fill:#27AAE1;stroke:none;" transform="matrix(1 0 0 1 339 1556)">
   <path d="M0.993654 0L3.63775 0L29.3281-67.1323L30.0303-67.1323L30.0303-70.459L28.1226-70.459ZM11.6885-24.4799L46.9815-24.4799L46.2315-26.7285L12.4385-26.7285ZM55.1196 0L57.7637 0L30.6382-70.459L29.4326-70.459L29.4326-67.1323Z"/>
  </g>
  <line id="Baseline-L" style="fill:none;stroke:#27AAE1;opacity:1;stroke-width:0.5;" x1="263" x2="3036" y1="1556" y2="1556"/>
  <line id="Capline-L" style="fill:none;stroke:#27AAE1;opacity:1;stroke-width:0.5;" x1="263" x2="3036" y1="1485.54" y2="1485.54"/>
  <line id="right-margin-Black-S" style="fill:none;stroke:#00AEEF;stroke-width:0.5;opacity:1.0;" x1="2982.23" x2="2982.23" y1="600.785" y2="720.121"/>
  <line id="left-margin-Black-S" style="fill:none;stroke:#00AEEF;stroke-width:0.5;opacity:1.0;" x1="2884.57" x2="2884.57" y1="600.785" y2="720.121"/>
  <line id="right-margin-Regular-S" style="fill:none;stroke:#00AEEF;stroke-width:0.5;opacity:1.0;" x1="1496.11" x2="1496.11" y1="600.785" y2="720.121"/>
  <line id="left-margin-Regular-S" style="fill:none;stroke:#00AEEF;stroke-width:0.5;opacity:1.0;" x1="1403.58" x2="1403.58" y1="600.785" y2="720.121"/>
  <line id="right-margin-Ultralight-S" style="fill:none;stroke:#00AEEF;stroke-width:0.5;opacity:1.0;" x1="603.773" x2="603.773" y1="600.785" y2="720.121"/>
  <line id="left-margin-Ultralight-S" style="fill:none;stroke:#00AEEF;stroke-width:0.5;opacity:1.0;" x1="515.649" x2="515.649" y1="600.785" y2="720.121"/>
 </g>
 <g id="Symbols">
  <g id="Black-S" transform="matrix(1 0 0 1 2884.57 696)">
   <path class="monochrome-0 multicolor-0:tintColor hierarchical-0:secondary SFSymbolsPreviewWireframe" d="M39.5996-80.2246L39.5996-59.4727C39.5996-56.1523 43.0176-55.3711 45.2637-57.1289L58.4961-67.5781C59.9609-68.75 59.9609-70.9961 58.4961-72.1191L45.2637-82.6172C43.0176-84.4238 39.5996-83.5938 39.5996-80.2246ZM48.8281 6.73828C72.0215 6.73828 90.8203-12.1094 90.8203-35.2539C90.8203-45.2637 87.1094-55.957 79.4922-63.916C75.9277-67.627 71.5332-67.5293 68.75-64.7461C65.5762-61.5723 66.5527-57.3242 69.4336-53.9551C74.1699-48.4863 76.6602-42.4805 76.6602-35.2539C76.6602-19.873 64.209-7.42188 48.8281-7.42188C33.4473-7.42188 20.9961-19.873 20.9961-35.2539C20.9961-50.6348 33.4473-63.0859 48.9258-63.0859C52.832-63.0859 56.0059-66.2598 56.0059-70.166C56.0059-74.0723 52.832-77.2461 48.9258-77.2461C25.6348-77.2461 6.83594-58.4473 6.83594-35.2539C6.83594-12.1094 25.6348 6.73828 48.8281 6.73828Z" data-clipstroke-keyframes="0 0 0 1.2260587 1.2854536 0 0.16297409 1.3347361 1.1507409 0 0.46878052 1.4343491 1.0004764 0 0.73677945 1.5351169 1.8483931 0 1 1.634088 1.6990926"/>
   <path class="monochrome-1 multicolor-1:tintColor hierarchical-1:primary SFSymbolsPreviewWireframe" d="M23.7285-24.9445C23.7285-22.4281 25.3699-21.0613 27.3091-21.0613C28.1114-21.0613 28.9559-21.2867 29.7644-21.7638L46.6499-31.5556C48.1604-32.4314 49.2433-33.5361 49.2433-35.2389C49.2433-36.9416 48.1604-38.0463 46.6499-38.9221L29.7644-48.7139C28.9559-49.191 28.1114-49.4164 27.3091-49.4164C25.3699-49.4164 23.7285-48.0496 23.7285-45.5332ZM29.8567-29.324L29.8567-41.1537C29.8567-41.3725 30.0066-41.5239 30.215-41.5239C30.2666-41.5239 30.3385-41.5051 30.4104-41.4715L40.7659-35.5667C40.9181-35.4932 40.9751-35.3552 40.9751-35.2389C40.9751-35.1226 40.9181-34.9845 40.7659-34.9111L30.4104-29.0062C30.3385-28.9726 30.2666-28.9538 30.215-28.9538C30.0066-28.9538 29.8567-29.1053 29.8567-29.324ZM56.8447-21.0613C59.0769-21.0613 60.6693-22.6296 60.6693-24.7558L60.6693-45.7219C60.6693-47.8482 59.0769-49.4164 56.8447-49.4164C54.6109-49.4164 53.0209-47.8482 53.0209-45.7219L53.0209-24.7558C53.0209-22.6296 54.6109-21.0613 56.8447-21.0613ZM70.103-21.0613C72.3375-21.0613 73.9268-22.6296 73.9268-24.7558L73.9268-45.7219C73.9268-47.8482 72.3375-49.4164 70.103-49.4164C67.8684-49.4164 66.2792-47.8482 66.2792-45.7219L66.2792-24.7558C66.2792-22.6296 67.8684-21.0613 70.103-21.0613Z"/>
  </g>
  <g id="Regular-S" transform="matrix(1 0 0 1 1403.58 696)">
   <path class="monochrome-0 multicolor-0:tintColor hierarchical-0:secondary SFSymbolsPreviewWireframe" d="M38.6719-79.1016L38.6719-61.3281C38.6719-58.3008 40.7227-57.5195 43.0176-59.1309L55.4199-67.8223C57.3242-69.1895 57.373-71.1914 55.4199-72.5586L43.0664-81.2988C40.7227-82.959 38.6719-82.1777 38.6719-79.1016ZM46.2402 4.15039C68.0176 4.15039 85.6934-13.4766 85.6934-35.2539C85.6934-48.2422 79.4922-59.4727 69.9219-66.748C68.0176-68.2129 65.4785-67.7246 64.4043-65.918C63.2812-64.1113 63.8672-62.0605 65.625-60.6934C73.2422-54.8828 78.2227-45.7031 78.2227-35.2539C78.2227-17.5781 63.916-3.27148 46.2402-3.27148C28.5645-3.27148 14.3066-17.5781 14.3066-35.2539C14.3066-52.9297 28.5645-67.2363 46.2402-67.2363C48.291-67.2363 49.9512-68.8965 49.9512-70.9473C49.9512-72.998 48.3398-74.6094 46.2891-74.6582C24.4629-74.6094 6.83594-57.0312 6.83594-35.2539C6.83594-13.4766 24.5117 4.15039 46.2402 4.15039Z" data-clipstroke-keyframes="0 0 0 1.2286823 1.2610171 0 0.18184786 1.3314991 1.1418915 0 0.46612656 1.4462391 1.0004488 0 0.73569447 1.562355 1.8573179 0 1 1.6762044 1.7170533"/>
   <path class="monochrome-1 multicolor-1:tintColor hierarchical-1:primary SFSymbolsPreviewWireframe" d="M23.4589-25.3541C23.4589-23.242 24.7961-22.1294 26.3834-22.1294C27.0483-22.1294 27.7522-22.318 28.4251-22.7105L44.7711-32.1944C46.1509-32.9994 47-33.8802 47-35.2389C47-36.5975 46.1509-37.4783 44.7711-38.2833L28.4251-47.7672C27.7522-48.1597 27.0483-48.3483 26.3834-48.3483C24.7961-48.3483 23.4589-47.2358 23.4589-45.1236ZM28.2509-28.5901L28.2509-41.8877C28.2509-42.0866 28.3829-42.2251 28.5718-42.2251C28.6265-42.2251 28.6885-42.2063 28.7505-42.1761L40.2838-35.5246C40.4165-35.4562 40.467-35.3406 40.467-35.2389C40.467-35.1371 40.4165-35.0215 40.2838-34.9531L28.7505-28.3016C28.6885-28.2714 28.6265-28.2526 28.5718-28.2526C28.3829-28.2526 28.2509-28.3911 28.2509-28.5901ZM54.2103-22.1294C55.8952-22.1294 57.1117-23.3313 57.1117-24.9423L57.1117-45.5354C57.1117-47.1464 55.8952-48.3483 54.2103-48.3483C52.5189-48.3483 51.3032-47.1464 51.3032-45.5354L51.3032-24.9423C51.3032-23.3313 52.5189-22.1294 54.2103-22.1294ZM66.1619-22.1294C67.8475-22.1294 69.0689-23.3313 69.0689-24.9423L69.0689-45.5354C69.0689-47.1464 67.8475-48.3483 66.1619-48.3483C64.4762-48.3483 63.2548-47.1464 63.2548-45.5354L63.2548-24.9423C63.2548-23.3313 64.4762-22.1294 66.1619-22.1294Z"/>
  </g>
  <g id="Ultralight-S" transform="matrix(1 0 0 1 515.649 696)">
   <path class="monochrome-0 multicolor-0:tintColor hierarchical-0:secondary SFSymbolsPreviewWireframe" d="M37.6729-78.3296L37.6729-61.9185C37.6729-60.6167 38.5884-60.1079 39.7935-60.9927L51.1968-68.9575C52.2383-69.6436 52.2417-70.6011 51.1968-71.2871L39.7969-79.2554C38.5884-80.1436 37.6729-79.6348 37.6729-78.3296ZM44.0606 1.97072C64.6118 1.97072 81.2886-14.7026 81.2886-35.2539C81.2886-48.9233 73.8614-60.9712 62.7925-67.3838C62.1597-67.7588 61.437-67.5884 61.1348-67.0986C60.8745-66.518 61.0518-65.875 61.5835-65.5068C72.0615-59.4692 79.04-48.1553 79.04-35.2539C79.04-15.898 63.4165-0.274438 44.0606-0.274438C24.7046-0.274438 9.0391-15.898 9.0391-35.2539C9.0391-54.6099 24.7046-70.2334 44.106-70.2334C44.7945-70.2334 45.2286-70.8037 45.2286-71.356C45.2286-71.9082 44.7979-72.4751 44.1094-72.4785C23.5093-72.4751 6.83594-55.8052 6.83594-35.2539C6.83594-14.7026 23.5127 1.97072 44.0606 1.97072Z" data-clipstroke-keyframes="0 0 0 1.2274985 1.2403083 0 0.18969566 1.3280438 1.1351086 0 0.46483174 1.4546355 1.0004267 0 0.7348622 1.5827625 1.8641212 0 1 1.7085993 1.7303886"/>
   <path class="monochrome-1 multicolor-1:tintColor hierarchical-1:primary SFSymbolsPreviewWireframe" d="M25.1404-26.0327C25.1404-24.6133 25.9632-23.935 26.9503-23.935C27.3799-23.935 27.842-24.0606 28.2799-24.3074L43.7311-33.2941C44.8648-33.9647 45.3189-34.4641 45.3189-35.2389C45.3189-36.0136 44.8648-36.513 43.7311-37.1836L28.2799-46.1703C27.842-46.4171 27.3799-46.5427 26.9503-46.5427C25.9632-46.5427 25.1404-45.8645 25.1404-44.445ZM27.6454-27.319L27.6454-43.1588C27.6454-43.3305 27.7504-43.4488 27.9092-43.4488C27.9704-43.4488 28.0188-43.4301 28.0672-43.4034L41.6366-35.4578C41.7392-35.3961 41.7796-35.3173 41.7796-35.2389C41.7796-35.1605 41.7392-35.0816 41.6366-35.0199L28.0672-27.0743C28.0188-27.0476 27.9704-27.0289 27.9092-27.0289C27.7504-27.0289 27.6454-27.1472 27.6454-27.319ZM51.8537-23.935C52.6097-23.935 53.1861-24.5134 53.1861-25.2487L53.1861-45.229C53.1861-45.9643 52.6097-46.5427 51.8537-46.5427C51.0844-46.5427 50.5056-45.9643 50.5056-45.229L50.5056-25.2487C50.5056-24.5134 51.0844-23.935 51.8537-23.935ZM61.6339-23.935C62.3872-23.935 62.9818-24.5134 62.9818-25.2487L62.9818-45.229C62.9818-45.9643 62.3872-46.5427 61.6339-46.5427C60.8802-46.5427 60.2856-45.9643 60.2856-45.229L60.2856-25.2487C60.2856-24.5134 60.8802-23.935 61.6339-23.935Z"/>
  </g>
 </g>
 <g id="Data">
  <g id="Black-S-draw-attachment-data" data-d="0 1 0 2930.74 625.94"/>
  <g id="Regular-S-draw-attachment-data" data-d="0 1 0 1446.95 625.172"/>
  <g id="Ultralight-S-draw-attachment-data" data-d="0 1 0 556.924 624.753"/>
 </g>
</svg>
