<?xml version="1.0" encoding="UTF-8"?>
<!--Generator: Apple Native CoreSVG 341-->
<!DOCTYPE svg
PUBLIC "-//W3C//DTD SVG 1.1//EN"
       "http://www.w3.org/Graphics/SVG/1.1/DTD/svg11.dtd">
<svg version="1.1" xmlns="http://www.w3.org/2000/svg" xmlns:xlink="http://www.w3.org/1999/xlink" viewBox="0 0 3300 2200">
 <!--glyph: "", point size: 100.0, font version: "21.1d1e1", template writer version: "138.0.0"-->
 <style>.defaults {-sfsymbols-variable-value-mode:color;-sfsymbols-draw-reverses-motion-groups:true}

.monochrome-0 {-sfsymbols-motion-group:1;-sfsymbols-layer-tags:-3f0de8232c423195 -635ef7ef0bce285b photo.tv}
.monochrome-1 {-sfsymbols-motion-group:1;-sfsymbols-layer-tags:-3f0de8232c423195 -635ef7ef0bce285b photo.tv}
.monochrome-2 {opacity:0.0;-sfsymbols-clear-behind:true;-sfsymbols-motion-group:0;-sfsymbols-layer-tags:-635ef7ef0bce285b _slash}
.monochrome-3 {-sfsymbols-motion-group:0;-sfsymbols-layer-tags:-635ef7ef0bce285b _slash}

.multicolor-0:tintColor {-sfsymbols-motion-group:1;-sfsymbols-layer-tags:-3f0de8232c423195 -635ef7ef0bce285b photo.tv}
.multicolor-1:tintColor {-sfsymbols-motion-group:1;-sfsymbols-layer-tags:-3f0de8232c423195 -635ef7ef0bce285b photo.tv}
.multicolor-2:tintColor {opacity:0.0;-sfsymbols-clear-behind:true;-sfsymbols-motion-group:0;-sfsymbols-layer-tags:-635ef7ef0bce285b _slash}
.multicolor-3:tintColor {-sfsymbols-motion-group:0;-sfsymbols-layer-tags:-635ef7ef0bce285b _slash}

.hierarchical-0:secondary {-sfsymbols-motion-group:1;-sfsymbols-layer-tags:-3f0de8232c423195 -635ef7ef0bce285b photo.tv}
.hierarchical-1:secondary {-sfsymbols-motion-group:1;-sfsymbols-layer-tags:-3f0de8232c423195 -635ef7ef0bce285b photo.tv}
.hierarchical-2:primary {opacity:0.0;-sfsymbols-clear-behind:true;-sfsymbols-motion-group:0;-sfsymbols-layer-tags:-635ef7ef0bce285b _slash}
.hierarchical-3:primary {-sfsymbols-motion-group:0;-sfsymbols-layer-tags:-635ef7ef0bce285b _slash}

.SFSymbolsPreviewWireframe {fill:none;opacity:1.0;stroke:black;stroke-width:0.5}
</style>
 <g id="Notes">
  <rect height="2200" id="artboard" style="fill:white;opacity:1" width="3300" x="0" y="0"/>
  <line style="fill:none;stroke:black;opacity:1;stroke-width:0.5;" x1="263" x2="3036" y1="292" y2="292"/>
  <text style="stroke:none;fill:black;font-family:sans-serif;font-size:13;font-weight:bold;" transform="matrix(1 0 0 1 263 322)">Weight/Scale Variations</text>
  <text style="stroke:none;fill:black;font-family:sans-serif;font-size:13;text-anchor:middle;" transform="matrix(1 0 0 1 559.711 322)">Ultralight</text>
  <text style="stroke:none;fill:black;font-family:sans-serif;font-size:13;text-anchor:middle;" transform="matrix(1 0 0 1 856.422 322)">Thin</text>
  <text style="stroke:none;fill:black;font-family:sans-serif;font-size:13;text-anchor:middle;" transform="matrix(1 0 0 1 1153.13 322)">Light</text>
  <text style="stroke:none;fill:black;font-family:sans-serif;font-size:13;text-anchor:middle;" transform="matrix(1 0 0 1 1449.84 322)">Regular</text>
  <text style="stroke:none;fill:black;font-family:sans-serif;font-size:13;text-anchor:middle;" transform="matrix(1 0 0 1 1746.56 322)">Medium</text>
  <text style="stroke:none;fill:black;font-family:sans-serif;font-size:13;text-anchor:middle;" transform="matrix(1 0 0 1 2043.27 322)">Semibold</text>
  <text style="stroke:none;fill:black;font-family:sans-serif;font-size:13;text-anchor:middle;" transform="matrix(1 0 0 1 2339.98 322)">Bold</text>
  <text style="stroke:none;fill:black;font-family:sans-serif;font-size:13;text-anchor:middle;" transform="matrix(1 0 0 1 2636.69 322)">Heavy</text>
  <text style="stroke:none;fill:black;font-family:sans-serif;font-size:13;text-anchor:middle;" transform="matrix(1 0 0 1 2933.4 322)">Black</text>
  <line style="fill:none;stroke:black;opacity:1;stroke-width:0.5;" x1="263" x2="3036" y1="1903" y2="1903"/>
  <g transform="matrix(0.2 0 0 0.2 263 1933)">
   <path d="m46.2402 4.15039c21.7773 0 39.4531-17.627 39.4531-39.4043s-17.6758-39.4043-39.4531-39.4043c-21.7285 0-39.4043 17.627-39.4043 39.4043s17.6758 39.4043 39.4043 39.4043Zm0-7.42188c-17.6758 0-31.9336-14.3066-31.9336-31.9824s14.2578-31.9824 31.9336-31.9824 31.9824 14.3066 31.9824 31.9824-14.3066 31.9824-31.9824 31.9824Zm3.61328-17.7734v-28.4668c0-2.24609-1.46484-3.75977-3.71094-3.75977-2.14844 0-3.61328 1.51367-3.61328 3.75977v28.4668c0 2.19727 1.46484 3.71094 3.61328 3.71094 2.24609 0 3.71094-1.51367 3.71094-3.71094Zm-17.8223-10.5957h28.418c2.19727 0 3.71094-1.46484 3.71094-3.61328 0-2.19727-1.51367-3.71094-3.71094-3.71094h-28.418c-2.24609 0-3.75977 1.51367-3.75977 3.71094 0 2.14844 1.51367 3.61328 3.75977 3.61328Z"/>
  </g>
  <g transform="matrix(0.2 0 0 0.2 281.506 1933)">
   <path d="m58.5449 14.5508c27.4902 0 49.8047-22.3145 49.8047-49.8047s-22.3145-49.8047-49.8047-49.8047-49.8047 22.3145-49.8047 49.8047 22.3145 49.8047 49.8047 49.8047Zm0-8.30078c-22.9492 0-41.5039-18.5547-41.5039-41.5039s18.5547-41.5039 41.5039-41.5039 41.5039 18.5547 41.5039 41.5039-18.5547 41.5039-41.5039 41.5039Zm4.05273-23.0957v-36.9141c0-2.49023-1.70898-4.19922-4.15039-4.19922-2.39258 0-4.05273 1.70898-4.05273 4.19922v36.9141c0 2.44141 1.66016 4.15039 4.05273 4.15039 2.44141 0 4.15039-1.66016 4.15039-4.15039Zm-22.5586-14.4043h36.9629c2.44141 0 4.15039-1.61133 4.15039-4.00391 0-2.44141-1.70898-4.15039-4.15039-4.15039h-36.9629c-2.49023 0-4.15039 1.70898-4.15039 4.15039 0 2.39258 1.66016 4.00391 4.15039 4.00391Z"/>
  </g>
  <g transform="matrix(0.2 0 0 0.2 304.924 1933)">
   <path d="m74.8535 28.3203c35.1074 0 63.623-28.4668 63.623-63.5742s-28.5156-63.623-63.623-63.623-63.5742 28.5156-63.5742 63.623 28.4668 63.5742 63.5742 63.5742Zm0-9.08203c-30.127 0-54.4922-24.3652-54.4922-54.4922s24.3652-54.4922 54.4922-54.4922 54.4922 24.3652 54.4922 54.4922-24.3652 54.4922-54.4922 54.4922Zm4.44336-30.3223v-48.4863c0-2.73438-1.85547-4.63867-4.54102-4.63867-2.58789 0-4.44336 1.9043-4.44336 4.63867v48.4863c0 2.68555 1.85547 4.58984 4.44336 4.58984 2.68555 0 4.54102-1.85547 4.54102-4.58984Zm-28.7109-19.7754h48.4863c2.68555 0 4.58984-1.80664 4.58984-4.39453 0-2.73438-1.85547-4.58984-4.58984-4.58984h-48.4863c-2.73438 0-4.58984 1.85547-4.58984 4.58984 0 2.58789 1.85547 4.39453 4.58984 4.39453Z"/>
  </g>
  <text style="stroke:none;fill:black;font-family:sans-serif;font-size:13;font-weight:bold;" transform="matrix(1 0 0 1 263 1953)">Design Variations</text>
  <text style="stroke:none;fill:black;font-family:sans-serif;font-size:13;" transform="matrix(1 0 0 1 263 1971)">Symbols are supported in up to nine weights and three scales.</text>
  <text style="stroke:none;fill:black;font-family:sans-serif;font-size:13;" transform="matrix(1 0 0 1 263 1989)">For optimal layout with text and other symbols, vertically align</text>
  <text style="stroke:none;fill:black;font-family:sans-serif;font-size:13;" transform="matrix(1 0 0 1 263 2007)">symbols with the adjacent text.</text>
  <line style="fill:none;stroke:#00AEEF;stroke-width:0.5;opacity:1.0;" x1="776" x2="776" y1="1919" y2="1933"/>
  <g transform="matrix(0.2 0 0 0.2 776 1933)">
   <path d="m16.5527 0.78125c2.58789 0 3.85742-0.976562 4.78516-3.71094l20.5566-57.5195h0.244141l20.6055 57.5195c0.927734 2.73438 2.19727 3.71094 4.73633 3.71094 2.58789 0 4.24805-1.5625 4.24805-4.00391 0-0.830078-0.146484-1.61133-0.537109-2.63672l-22.9004-60.9863c-1.12305-2.97852-3.125-4.49219-6.25-4.49219-3.02734 0-5.07812 1.46484-6.15234 4.44336l-22.9004 61.084c-0.390625 1.02539-0.537109 1.80664-0.537109 2.63672 0 2.44141 1.5625 3.95508 4.10156 3.95508Zm10.2051-20.9473h30.6641c2.00195 0 3.66211-1.66016 3.66211-3.66211 0-2.05078-1.66016-3.66211-3.66211-3.66211h-30.6641c-2.00195 0-3.66211 1.61133-3.66211 3.66211 0 2.00195 1.66016 3.66211 3.66211 3.66211Z"/>
  </g>
  <line style="fill:none;stroke:#00AEEF;stroke-width:0.5;opacity:1.0;" x1="792.836" x2="792.836" y1="1919" y2="1933"/>
  <text style="stroke:none;fill:black;font-family:sans-serif;font-size:13;font-weight:bold;" transform="matrix(1 0 0 1 776 1953)">Margins</text>
  <text style="stroke:none;fill:black;font-family:sans-serif;font-size:13;" transform="matrix(1 0 0 1 776 1971)">Leading and trailing margins on the left and right side of each symbol</text>
  <text style="stroke:none;fill:black;font-family:sans-serif;font-size:13;" transform="matrix(1 0 0 1 776 1989)">can be adjusted by modifying the x-location of the margin guidelines.</text>
  <text style="stroke:none;fill:black;font-family:sans-serif;font-size:13;" transform="matrix(1 0 0 1 776 2007)">Modifications are automatically applied proportionally to all</text>
  <text style="stroke:none;fill:black;font-family:sans-serif;font-size:13;" transform="matrix(1 0 0 1 776 2025)">scales and weights.</text>
  <g transform="matrix(0.2 0 0 0.2 1289 1933)">
   <path d="m14.209 13.1348 7.86133 7.86133c4.29688 4.39453 9.32617 4.10156 13.8672-1.02539l60.6934-68.2129-4.88281-4.88281-60.2539 67.6758c-1.80664 1.95312-3.4668 2.44141-5.81055 0.0976562l-5.17578-5.12695c-2.29492-2.29492-1.80664-3.95508 0.195312-5.81055l67.4805-62.1582-4.88281-4.83398-68.0664 62.5977c-4.98047 4.58984-5.32227 9.47266-1.02539 13.8184Zm44.873-97.4609c-2.05078 2.00195-2.24609 4.88281-1.07422 6.78711 1.12305 1.80664 3.4668 3.02734 6.5918 2.24609 5.85938-1.66016 12.5977-2.39258 18.8965 0.927734l-2.68555 7.12891c-1.61133 4.00391-0.732422 6.88477 1.70898 9.42383l10.2539 10.3027c2.34375 2.39258 4.54102 2.44141 7.08008 1.95312l4.44336-0.732422 2.58789 2.53906-0.195312 2.24609c-0.0976562 2.29492 0.537109 4.29688 2.7832 6.49414l3.36914 3.32031c2.29492 2.29492 5.51758 2.49023 7.8125 0.195312l12.9883-13.0371c2.29492-2.34375 2.14844-5.37109-0.195312-7.66602l-3.41797-3.41797c-2.19727-2.19727-4.05273-3.02734-6.34766-2.88086l-2.34375 0.244141-2.44141-2.44141 1.02539-4.6875c0.634766-2.73438-0.244141-4.98047-2.88086-7.61719l-11.2793-11.1816c-12.9395-12.8418-35.5957-11.0352-46.6797-0.146484Zm7.08008 2.05078c8.78906-6.39648 25.9766-5.66406 33.6914 1.95312l12.3047 12.207c1.02539 1.02539 1.2207 1.80664 0.927734 3.32031l-1.46484 6.64062 6.73828 6.68945 4.39453-0.244141c1.12305-0.0488281 1.51367 0.0488281 2.34375 0.878906l2.53906 2.49023-10.8398 10.8398-2.49023-2.49023c-0.830078-0.878906-0.976562-1.2207-0.927734-2.39258l0.292969-4.3457-6.68945-6.73828-6.83594 1.17188c-1.41602 0.292969-2.05078 0.195312-3.17383-0.878906l-8.93555-8.88672c-1.07422-1.02539-1.17188-1.70898-0.488281-3.36914l4.58984-11.4746c-6.10352-6.34766-17.041-7.51953-25.5859-4.58984-0.683594 0.244141-0.927734-0.390625-0.390625-0.78125Z"/>
  </g>
  <text style="stroke:none;fill:black;font-family:sans-serif;font-size:13;font-weight:bold;" transform="matrix(1 0 0 1 1289 1953)">Exporting</text>
  <text style="stroke:none;fill:black;font-family:sans-serif;font-size:13;" transform="matrix(1 0 0 1 1289 1971)">Symbols should be outlined when exporting to ensure the</text>
  <text style="stroke:none;fill:black;font-family:sans-serif;font-size:13;" transform="matrix(1 0 0 1 1289 1989)">design is preserved when submitting to Xcode.</text>
  <text id="template-version" style="stroke:none;fill:black;font-family:sans-serif;font-size:13;text-anchor:end;" transform="matrix(1 0 0 1 3036 1933)">Template v.7.0</text>
  <text style="stroke:none;fill:black;font-family:sans-serif;font-size:13;text-anchor:end;" transform="matrix(1 0 0 1 3036 1951)">Requires Xcode 26 or greater</text>
  <text id="descriptive-name" style="stroke:none;fill:black;font-family:sans-serif;font-size:13;text-anchor:end;" transform="matrix(1 0 0 1 3036 1969)">Generated from </text>
  <text style="stroke:none;fill:black;font-family:sans-serif;font-size:13;text-anchor:end;" transform="matrix(1 0 0 1 3036 1987)">Typeset at 100.0 points</text>
  <text style="stroke:none;fill:black;font-family:sans-serif;font-size:13;" transform="matrix(1 0 0 1 263 726)">Small</text>
  <text style="stroke:none;fill:black;font-family:sans-serif;font-size:13;" transform="matrix(1 0 0 1 263 1156)">Medium</text>
  <text style="stroke:none;fill:black;font-family:sans-serif;font-size:13;" transform="matrix(1 0 0 1 263 1586)">Large</text>
 </g>
 <g id="Guides">
  <g id="H-reference" style="fill:#27AAE1;stroke:none;" transform="matrix(1 0 0 1 339 696)">
   <path d="M0.993654 0L3.63775 0L29.3281-67.1323L30.0303-67.1323L30.0303-70.459L28.1226-70.459ZM11.6885-24.4799L46.9815-24.4799L46.2315-26.7285L12.4385-26.7285ZM55.1196 0L57.7637 0L30.6382-70.459L29.4326-70.459L29.4326-67.1323Z"/>
  </g>
  <line id="Baseline-S" style="fill:none;stroke:#27AAE1;opacity:1;stroke-width:0.5;" x1="263" x2="3036" y1="696" y2="696"/>
  <line id="Capline-S" style="fill:none;stroke:#27AAE1;opacity:1;stroke-width:0.5;" x1="263" x2="3036" y1="625.541" y2="625.541"/>
  <g id="H-reference" style="fill:#27AAE1;stroke:none;" transform="matrix(1 0 0 1 339 1126)">
   <path d="M0.993654 0L3.63775 0L29.3281-67.1323L30.0303-67.1323L30.0303-70.459L28.1226-70.459ZM11.6885-24.4799L46.9815-24.4799L46.2315-26.7285L12.4385-26.7285ZM55.1196 0L57.7637 0L30.6382-70.459L29.4326-70.459L29.4326-67.1323Z"/>
  </g>
  <line id="Baseline-M" style="fill:none;stroke:#27AAE1;opacity:1;stroke-width:0.5;" x1="263" x2="3036" y1="1126" y2="1126"/>
  <line id="Capline-M" style="fill:none;stroke:#27AAE1;opacity:1;stroke-width:0.5;" x1="263" x2="3036" y1="1055.54" y2="1055.54"/>
  <g id="H-reference" style="fill:#27AAE1;stroke:none;" transform="matrix(1 0 0 1 339 1556)">
   <path d="M0.993654 0L3.63775 0L29.3281-67.1323L30.0303-67.1323L30.0303-70.459L28.1226-70.459ZM11.6885-24.4799L46.9815-24.4799L46.2315-26.7285L12.4385-26.7285ZM55.1196 0L57.7637 0L30.6382-70.459L29.4326-70.459L29.4326-67.1323Z"/>
  </g>
  <line id="Baseline-L" style="fill:none;stroke:#27AAE1;opacity:1;stroke-width:0.5;" x1="263" x2="3036" y1="1556" y2="1556"/>
  <line id="Capline-L" style="fill:none;stroke:#27AAE1;opacity:1;stroke-width:0.5;" x1="263" x2="3036" y1="1485.54" y2="1485.54"/>
  <line id="right-margin-Black-S" style="fill:none;stroke:#00AEEF;stroke-width:0.5;opacity:1.0;" x1="2994.92" x2="2994.92" y1="600.785" y2="720.121"/>
  <line id="left-margin-Black-S" style="fill:none;stroke:#00AEEF;stroke-width:0.5;opacity:1.0;" x1="2871.88" x2="2871.88" y1="600.785" y2="720.121"/>
  <line id="right-margin-Regular-S" style="fill:none;stroke:#00AEEF;stroke-width:0.5;opacity:1.0;" x1="1508.19" x2="1508.19" y1="600.785" y2="720.121"/>
  <line id="left-margin-Regular-S" style="fill:none;stroke:#00AEEF;stroke-width:0.5;opacity:1.0;" x1="1391.49" x2="1391.49" y1="600.785" y2="720.121"/>
  <line id="right-margin-Ultralight-S" style="fill:none;stroke:#00AEEF;stroke-width:0.5;opacity:1.0;" x1="613.883" x2="613.883" y1="600.785" y2="720.121"/>
  <line id="left-margin-Ultralight-S" style="fill:none;stroke:#00AEEF;stroke-width:0.5;opacity:1.0;" x1="505.539" x2="505.539" y1="600.785" y2="720.121"/>
 </g>
 <g id="Symbols">
  <g id="Black-S" transform="matrix(1 0 0 1 2871.88 696)">
   <path class="monochrome-0 multicolor-0:tintColor hierarchical-0:secondary SFSymbolsPreviewWireframe" d="M105.225-23.584L82.8125-44.4336C81.1523-45.9473 79.1504-46.6797 77.1973-46.6797C75.1465-46.6797 73.2422-45.9961 71.5332-44.4824L47.4609-22.9492L57.3242-22.9492L43.457-35.3516C41.8457-36.7676 40.0391-37.5 38.2812-37.5C36.2793-37.5 35.0098-36.8164 33.3984-35.4004L19.6777-23.584C19.6777-15.918 25.1953-11.4746 34.7168-11.4746L90.1855-11.4746C101.66-11.4746 105.225-15.918 105.225-23.584ZM23.877-6.15234L99.1699-6.15234C108.057-6.15234 113.281-11.377 113.281-20.2637L113.281-65.625C113.281-74.5117 108.057-79.7363 99.1699-79.7363L23.877-79.7363C14.9902-79.7363 9.76562-74.5117 9.76562-65.625L9.76562-20.2637C9.76562-11.377 14.9902-6.15234 23.877-6.15234ZM25.9277-19.2383C23.877-19.2383 22.8516-20.0684 22.8516-22.3145L22.8516-63.5742C22.8516-65.8203 23.877-66.6504 25.9277-66.6504L97.1191-66.6504C99.1699-66.6504 100.195-65.8203 100.195-63.5742L100.195-22.3145C100.195-20.0684 99.1699-19.2383 97.1191-19.2383ZM40.332 9.22852L82.7148 9.22852C85.6934 9.22852 88.0371 6.68945 88.0371 3.95508C88.0371 1.2207 85.6934-1.31836 82.7148-1.31836L40.332-1.31836C37.3535-1.31836 35.0098 1.2207 35.0098 3.95508C35.0098 6.68945 37.3535 9.22852 40.332 9.22852Z"/>
   <path class="monochrome-1 multicolor-1:tintColor hierarchical-1:secondary SFSymbolsPreviewWireframe" d="M49.6582-41.3574C55.0781-41.3574 59.5703-45.8496 59.5703-51.3184C59.5703-56.7383 55.0781-61.2793 49.6582-61.2793C44.1895-61.2793 39.6973-56.7383 39.6973-51.3184C39.6973-45.8496 44.1895-41.3574 49.6582-41.3574Z"/>
   <path class="monochrome-2 multicolor-2:tintColor hierarchical-2:primary SFSymbolsPreviewWireframe" d="M105.492-4.48836C109.143-0.837264 109.143 5.09118 105.492 8.74227C101.841 12.3934 95.9122 12.3934 92.2611 8.74227L17.5482-65.9706C13.8971-69.6217 13.8971-75.5502 17.5482-79.2013C21.1993-82.8524 27.1278-82.8524 30.7789-79.2013Z" data-clipstroke-keyframes="0 0 0 0.49990463 0.6089134 0 1 0 0.10891342"/>
   <path class="monochrome-3 multicolor-3:tintColor hierarchical-3:primary SFSymbolsPreviewWireframe" d="M101.342-0.338247C102.702 1.02234 102.702 3.23158 101.342 4.59217C99.9811 5.95275 97.7718 5.95275 96.4112 4.59217L21.6983-70.1207C20.3378-71.4813 20.3378-73.6906 21.6983-75.0511C23.0589-76.4117 25.2682-76.4117 26.6288-75.0511Z" data-clipstroke-keyframes="0 0 0 0.49988937 0.54707384 0 1 0 0.04707384"/>
  </g>
  <g id="Regular-S" transform="matrix(1 0 0 1 1391.49 696)">
   <path class="monochrome-0 multicolor-0:tintColor hierarchical-0:secondary SFSymbolsPreviewWireframe" d="M101.904-23.3398L79.4434-44.5312C77.832-46.0449 75.8301-46.7773 73.7793-46.7773C71.7773-46.7773 69.8242-46.0938 68.1152-44.5801L48.1934-26.7578L49.9023-26.7578L40.1855-35.4492C38.623-36.8652 36.8164-37.5977 35.0586-37.5977C33.3984-37.5977 31.6895-36.8652 30.1758-35.498L15.4785-22.3633C15.4785-17.2363 17.4316-14.5508 21.2402-14.5508L94.2871-14.5508C99.1211-14.5508 101.904-17.7734 101.904-23.3398ZM20.1172-9.86328L96.582-9.86328C102.979-9.86328 106.934-13.8672 106.934-20.2637L106.934-64.0137C106.934-70.4102 102.979-74.3652 96.582-74.3652L20.1172-74.3652C13.7207-74.3652 9.76562-70.4102 9.76562-64.0137L9.76562-20.2637C9.76562-13.8672 13.7207-9.86328 20.1172-9.86328ZM20.2148-16.9434C18.1152-16.9434 16.7969-18.2129 16.7969-20.3613L16.7969-63.916C16.7969-66.0156 18.1152-67.334 20.2148-67.334L96.4844-67.334C98.584-67.334 99.9023-66.0156 99.9023-63.916L99.9023-20.3613C99.9023-18.2129 98.584-16.9434 96.4844-16.9434ZM38.8672 3.85742L77.832 3.85742C79.7852 3.85742 81.3477 2.29492 81.3477 0.341797C81.3477-1.61133 79.7852-3.22266 77.832-3.22266L38.8672-3.22266C36.9141-3.22266 35.3516-1.61133 35.3516 0.341797C35.3516 2.29492 36.9141 3.85742 38.8672 3.85742Z"/>
   <path class="monochrome-1 multicolor-1:tintColor hierarchical-1:secondary SFSymbolsPreviewWireframe" d="M41.8457-43.6035C46.7285-43.6035 50.7812-47.6562 50.7812-52.6855C50.7812-57.6172 46.7285-61.6699 41.8457-61.6699C36.8652-61.6699 32.7637-57.6172 32.7637-52.6855C32.7637-47.6562 36.8652-43.6035 41.8457-43.6035Z"/>
   <path class="monochrome-2 multicolor-2:tintColor hierarchical-2:primary SFSymbolsPreviewWireframe" d="M99.4033-6.06714C102.685-2.78573 102.685 2.54245 99.4033 5.82386C96.1219 9.10527 90.7938 9.10527 87.5124 5.82386L17.2967-64.3918C14.0152-67.6733 14.0152-73.0014 17.2967-76.2828C20.5781-79.5643 25.9062-79.5643 29.1876-76.2828Z" data-clipstroke-keyframes="0 0 0 0.50010824 0.6049547 0 1 0 0.10495472"/>
   <path class="monochrome-3 multicolor-3:tintColor hierarchical-3:primary SFSymbolsPreviewWireframe" d="M95.9369-2.60066C97.3051-1.23245 97.3051 0.98917 95.9369 2.35738C94.5687 3.72558 92.347 3.72558 90.9788 2.35738L20.7631-67.8583C19.3949-69.2265 19.3949-71.4482 20.7631-72.8164C22.1313-74.1846 24.353-74.1846 25.7212-72.8164Z" data-clipstroke-keyframes="0 0 0 0.50020504 0.5497174 0 1 0 0.049717426"/>
  </g>
  <g id="Ultralight-S" transform="matrix(1 0 0 1 505.539 696)">
   <path class="monochrome-0 multicolor-0:tintColor hierarchical-0:secondary SFSymbolsPreviewWireframe" d="M97-19.5708L72.8135-41.625C70.8843-43.3657 69.0186-44.2798 66.5591-44.2798C64.1939-44.2798 62.4224-43.4146 60.4864-41.6739L41.9268-25.0776L43.6358-25.0776L35.3267-32.9063C33.7188-34.4131 32.1392-35.2363 30.1089-35.2363C28.0855-35.2363 26.6944-34.4585 25.1353-32.9551L10.9375-19.5479C10.9375-14.4663 13.0269-12.0987 17.5166-12.0987L89.3829-12.0987C94.5347-12.0987 96.9546-14.4585 97-19.5708ZM17.1656-10.272L91.1783-10.272C95.94-10.272 98.5782-12.959 98.5782-17.6753L98.5782-62.1973C98.5782-66.9136 95.94-69.5972 91.1783-69.5972L17.1656-69.5972C12.4038-69.5972 9.76562-66.9136 9.76562-62.1973L9.76562-17.6753C9.76562-12.959 12.4038-10.272 17.1656-10.272ZM17.3086-12.4932C13.8921-12.4932 11.9834-14.3531 11.9834-17.773L11.9834-62.0996C11.9834-65.5161 13.8921-67.3794 17.3086-67.3794L91.0352-67.3794C94.4517-67.3794 96.3604-65.5161 96.3604-62.0996L96.3604-17.773C96.3604-14.3531 94.4517-12.4932 91.0352-12.4932ZM36.0972-0.910607L72.2466-0.910607C72.9283-0.910607 73.4009-1.38327 73.4009-2.01951C73.4009-2.70116 72.9283-3.13184 72.2466-3.13184L36.0972-3.13184C35.4155-3.13184 34.9429-2.70116 34.9429-2.01951C34.9429-1.38327 35.4155-0.910607 36.0972-0.910607Z"/>
   <path class="monochrome-1 multicolor-1:tintColor hierarchical-1:secondary SFSymbolsPreviewWireframe" d="M36.896-43.2856C41.8243-43.2856 45.877-47.3384 45.877-52.3223C45.877-57.2539 41.8243-61.3521 36.896-61.3521C31.9156-61.3521 27.8594-57.2539 27.8594-52.3223C27.8594-47.3384 31.9156-43.2856 36.896-43.2856Z"/>
   <path class="monochrome-2 multicolor-2:tintColor hierarchical-2:primary SFSymbolsPreviewWireframe" d="M91.8582-3.06064C93.3808-1.53808 93.3808 0.934172 91.8582 2.45673C90.3357 3.97929 87.8634 3.97929 86.3409 2.45673L16.4858-67.3983C14.9632-68.9209 14.9632-71.3932 16.4858-72.9157C18.0083-74.4383 20.4806-74.4383 22.0031-72.9157Z" data-clipstroke-keyframes="0 0 0 0.5001135 0.5550747 0 1 0 0.05507469"/>
   <path class="monochrome-3 multicolor-3:tintColor hierarchical-3:primary SFSymbolsPreviewWireframe" d="M89.8073-1.00975C90.198-0.619106 90.198 0.0152006 89.8073 0.405845C89.4167 0.796489 88.7824 0.796489 88.3917 0.405845L18.5367-69.4492C18.146-69.8399 18.146-70.4742 18.5367-70.8648C18.9273-71.2555 19.5616-71.2555 19.9523-70.8648Z" data-clipstroke-keyframes="0 0 0 0.50012684 0.51529884 0 1 0 0.015298843"/>
  </g>
 </g>
</svg>
