<?xml version="1.0" encoding="UTF-8"?>
<!--Generator: Apple Native CoreSVG 341-->
<!DOCTYPE svg
PUBLIC "-//W3C//DTD SVG 1.1//EN"
       "http://www.w3.org/Graphics/SVG/1.1/DTD/svg11.dtd">
<svg version="1.1" xmlns="http://www.w3.org/2000/svg" xmlns:xlink="http://www.w3.org/1999/xlink" viewBox="0 0 3300 2200">
 <!--glyph: "", point size: 100.0, font version: "21.1d1e1", template writer version: "138.0.0"-->
 <style>.defaults {-sfsymbols-variable-value-mode:color;-sfsymbols-draw-reverses-motion-groups:true}

.monochrome-0 {-sfsymbols-motion-group:1;-sfsymbols-layer-tags:68a1bf3e9c4e2ce6 73baf4c08fc4aee seal}
.monochrome-1 {opacity:0.0;-sfsymbols-clear-behind:true;-sfsymbols-motion-group:0;-sfsymbols-layer-tags:68a1bf3e9c4e2ce6 _slash}
.monochrome-2 {-sfsymbols-motion-group:0;-sfsymbols-layer-tags:68a1bf3e9c4e2ce6 _slash}

.multicolor-0:tintColor {-sfsymbols-motion-group:1;-sfsymbols-layer-tags:68a1bf3e9c4e2ce6 73baf4c08fc4aee seal}
.multicolor-1:tintColor {opacity:0.0;-sfsymbols-clear-behind:true;-sfsymbols-motion-group:0;-sfsymbols-layer-tags:68a1bf3e9c4e2ce6 _slash}
.multicolor-2:tintColor {-sfsymbols-motion-group:0;-sfsymbols-layer-tags:68a1bf3e9c4e2ce6 _slash}

.hierarchical-0:secondary {-sfsymbols-motion-group:1;-sfsymbols-layer-tags:68a1bf3e9c4e2ce6 73baf4c08fc4aee seal}
.hierarchical-1:primary {opacity:0.0;-sfsymbols-clear-behind:true;-sfsymbols-motion-group:0;-sfsymbols-layer-tags:68a1bf3e9c4e2ce6 _slash}
.hierarchical-2:primary {-sfsymbols-motion-group:0;-sfsymbols-layer-tags:68a1bf3e9c4e2ce6 _slash}

.SFSymbolsPreviewWireframe {fill:none;opacity:1.0;stroke:black;stroke-width:0.5}
</style>
 <g id="Notes">
  <rect height="2200" id="artboard" style="fill:white;opacity:1" width="3300" x="0" y="0"/>
  <line style="fill:none;stroke:black;opacity:1;stroke-width:0.5;" x1="263" x2="3036" y1="292" y2="292"/>
  <text style="stroke:none;fill:black;font-family:sans-serif;font-size:13;font-weight:bold;" transform="matrix(1 0 0 1 263 322)">Weight/Scale Variations</text>
  <text style="stroke:none;fill:black;font-family:sans-serif;font-size:13;text-anchor:middle;" transform="matrix(1 0 0 1 559.711 322)">Ultralight</text>
  <text style="stroke:none;fill:black;font-family:sans-serif;font-size:13;text-anchor:middle;" transform="matrix(1 0 0 1 856.422 322)">Thin</text>
  <text style="stroke:none;fill:black;font-family:sans-serif;font-size:13;text-anchor:middle;" transform="matrix(1 0 0 1 1153.13 322)">Light</text>
  <text style="stroke:none;fill:black;font-family:sans-serif;font-size:13;text-anchor:middle;" transform="matrix(1 0 0 1 1449.84 322)">Regular</text>
  <text style="stroke:none;fill:black;font-family:sans-serif;font-size:13;text-anchor:middle;" transform="matrix(1 0 0 1 1746.56 322)">Medium</text>
  <text style="stroke:none;fill:black;font-family:sans-serif;font-size:13;text-anchor:middle;" transform="matrix(1 0 0 1 2043.27 322)">Semibold</text>
  <text style="stroke:none;fill:black;font-family:sans-serif;font-size:13;text-anchor:middle;" transform="matrix(1 0 0 1 2339.98 322)">Bold</text>
  <text style="stroke:none;fill:black;font-family:sans-serif;font-size:13;text-anchor:middle;" transform="matrix(1 0 0 1 2636.69 322)">Heavy</text>
  <text style="stroke:none;fill:black;font-family:sans-serif;font-size:13;text-anchor:middle;" transform="matrix(1 0 0 1 2933.4 322)">Black</text>
  <line style="fill:none;stroke:black;opacity:1;stroke-width:0.5;" x1="263" x2="3036" y1="1903" y2="1903"/>
  <g transform="matrix(0.2 0 0 0.2 263 1933)">
   <path d="m46.2402 4.15039c21.7773 0 39.4531-17.627 39.4531-39.4043s-17.6758-39.4043-39.4531-39.4043c-21.7285 0-39.4043 17.627-39.4043 39.4043s17.6758 39.4043 39.4043 39.4043Zm0-7.42188c-17.6758 0-31.9336-14.3066-31.9336-31.9824s14.2578-31.9824 31.9336-31.9824 31.9824 14.3066 31.9824 31.9824-14.3066 31.9824-31.9824 31.9824Zm3.61328-17.7734v-28.4668c0-2.24609-1.46484-3.75977-3.71094-3.75977-2.14844 0-3.61328 1.51367-3.61328 3.75977v28.4668c0 2.19727 1.46484 3.71094 3.61328 3.71094 2.24609 0 3.71094-1.51367 3.71094-3.71094Zm-17.8223-10.5957h28.418c2.19727 0 3.71094-1.46484 3.71094-3.61328 0-2.19727-1.51367-3.71094-3.71094-3.71094h-28.418c-2.24609 0-3.75977 1.51367-3.75977 3.71094 0 2.14844 1.51367 3.61328 3.75977 3.61328Z"/>
  </g>
  <g transform="matrix(0.2 0 0 0.2 281.506 1933)">
   <path d="m58.5449 14.5508c27.4902 0 49.8047-22.3145 49.8047-49.8047s-22.3145-49.8047-49.8047-49.8047-49.8047 22.3145-49.8047 49.8047 22.3145 49.8047 49.8047 49.8047Zm0-8.30078c-22.9492 0-41.5039-18.5547-41.5039-41.5039s18.5547-41.5039 41.5039-41.5039 41.5039 18.5547 41.5039 41.5039-18.5547 41.5039-41.5039 41.5039Zm4.05273-23.0957v-36.9141c0-2.49023-1.70898-4.19922-4.15039-4.19922-2.39258 0-4.05273 1.70898-4.05273 4.19922v36.9141c0 2.44141 1.66016 4.15039 4.05273 4.15039 2.44141 0 4.15039-1.66016 4.15039-4.15039Zm-22.5586-14.4043h36.9629c2.44141 0 4.15039-1.61133 4.15039-4.00391 0-2.44141-1.70898-4.15039-4.15039-4.15039h-36.9629c-2.49023 0-4.15039 1.70898-4.15039 4.15039 0 2.39258 1.66016 4.00391 4.15039 4.00391Z"/>
  </g>
  <g transform="matrix(0.2 0 0 0.2 304.924 1933)">
   <path d="m74.8535 28.3203c35.1074 0 63.623-28.4668 63.623-63.5742s-28.5156-63.623-63.623-63.623-63.5742 28.5156-63.5742 63.623 28.4668 63.5742 63.5742 63.5742Zm0-9.08203c-30.127 0-54.4922-24.3652-54.4922-54.4922s24.3652-54.4922 54.4922-54.4922 54.4922 24.3652 54.4922 54.4922-24.3652 54.4922-54.4922 54.4922Zm4.44336-30.3223v-48.4863c0-2.73438-1.85547-4.63867-4.54102-4.63867-2.58789 0-4.44336 1.9043-4.44336 4.63867v48.4863c0 2.68555 1.85547 4.58984 4.44336 4.58984 2.68555 0 4.54102-1.85547 4.54102-4.58984Zm-28.7109-19.7754h48.4863c2.68555 0 4.58984-1.80664 4.58984-4.39453 0-2.73438-1.85547-4.58984-4.58984-4.58984h-48.4863c-2.73438 0-4.58984 1.85547-4.58984 4.58984 0 2.58789 1.85547 4.39453 4.58984 4.39453Z"/>
  </g>
  <text style="stroke:none;fill:black;font-family:sans-serif;font-size:13;font-weight:bold;" transform="matrix(1 0 0 1 263 1953)">Design Variations</text>
  <text style="stroke:none;fill:black;font-family:sans-serif;font-size:13;" transform="matrix(1 0 0 1 263 1971)">Symbols are supported in up to nine weights and three scales.</text>
  <text style="stroke:none;fill:black;font-family:sans-serif;font-size:13;" transform="matrix(1 0 0 1 263 1989)">For optimal layout with text and other symbols, vertically align</text>
  <text style="stroke:none;fill:black;font-family:sans-serif;font-size:13;" transform="matrix(1 0 0 1 263 2007)">symbols with the adjacent text.</text>
  <line style="fill:none;stroke:#00AEEF;stroke-width:0.5;opacity:1.0;" x1="776" x2="776" y1="1919" y2="1933"/>
  <g transform="matrix(0.2 0 0 0.2 776 1933)">
   <path d="m16.5527 0.78125c2.58789 0 3.85742-0.976562 4.78516-3.71094l20.5566-57.5195h0.244141l20.6055 57.5195c0.927734 2.73438 2.19727 3.71094 4.73633 3.71094 2.58789 0 4.24805-1.5625 4.24805-4.00391 0-0.830078-0.146484-1.61133-0.537109-2.63672l-22.9004-60.9863c-1.12305-2.97852-3.125-4.49219-6.25-4.49219-3.02734 0-5.07812 1.46484-6.15234 4.44336l-22.9004 61.084c-0.390625 1.02539-0.537109 1.80664-0.537109 2.63672 0 2.44141 1.5625 3.95508 4.10156 3.95508Zm10.2051-20.9473h30.6641c2.00195 0 3.66211-1.66016 3.66211-3.66211 0-2.05078-1.66016-3.66211-3.66211-3.66211h-30.6641c-2.00195 0-3.66211 1.61133-3.66211 3.66211 0 2.00195 1.66016 3.66211 3.66211 3.66211Z"/>
  </g>
  <line style="fill:none;stroke:#00AEEF;stroke-width:0.5;opacity:1.0;" x1="792.836" x2="792.836" y1="1919" y2="1933"/>
  <text style="stroke:none;fill:black;font-family:sans-serif;font-size:13;font-weight:bold;" transform="matrix(1 0 0 1 776 1953)">Margins</text>
  <text style="stroke:none;fill:black;font-family:sans-serif;font-size:13;" transform="matrix(1 0 0 1 776 1971)">Leading and trailing margins on the left and right side of each symbol</text>
  <text style="stroke:none;fill:black;font-family:sans-serif;font-size:13;" transform="matrix(1 0 0 1 776 1989)">can be adjusted by modifying the x-location of the margin guidelines.</text>
  <text style="stroke:none;fill:black;font-family:sans-serif;font-size:13;" transform="matrix(1 0 0 1 776 2007)">Modifications are automatically applied proportionally to all</text>
  <text style="stroke:none;fill:black;font-family:sans-serif;font-size:13;" transform="matrix(1 0 0 1 776 2025)">scales and weights.</text>
  <g transform="matrix(0.2 0 0 0.2 1289 1933)">
   <path d="m14.209 13.1348 7.86133 7.86133c4.29688 4.39453 9.32617 4.10156 13.8672-1.02539l60.6934-68.2129-4.88281-4.88281-60.2539 67.6758c-1.80664 1.95312-3.4668 2.44141-5.81055 0.0976562l-5.17578-5.12695c-2.29492-2.29492-1.80664-3.95508 0.195312-5.81055l67.4805-62.1582-4.88281-4.83398-68.0664 62.5977c-4.98047 4.58984-5.32227 9.47266-1.02539 13.8184Zm44.873-97.4609c-2.05078 2.00195-2.24609 4.88281-1.07422 6.78711 1.12305 1.80664 3.4668 3.02734 6.5918 2.24609 5.85938-1.66016 12.5977-2.39258 18.8965 0.927734l-2.68555 7.12891c-1.61133 4.00391-0.732422 6.88477 1.70898 9.42383l10.2539 10.3027c2.34375 2.39258 4.54102 2.44141 7.08008 1.95312l4.44336-0.732422 2.58789 2.53906-0.195312 2.24609c-0.0976562 2.29492 0.537109 4.29688 2.7832 6.49414l3.36914 3.32031c2.29492 2.29492 5.51758 2.49023 7.8125 0.195312l12.9883-13.0371c2.29492-2.34375 2.14844-5.37109-0.195312-7.66602l-3.41797-3.41797c-2.19727-2.19727-4.05273-3.02734-6.34766-2.88086l-2.34375 0.244141-2.44141-2.44141 1.02539-4.6875c0.634766-2.73438-0.244141-4.98047-2.88086-7.61719l-11.2793-11.1816c-12.9395-12.8418-35.5957-11.0352-46.6797-0.146484Zm7.08008 2.05078c8.78906-6.39648 25.9766-5.66406 33.6914 1.95312l12.3047 12.207c1.02539 1.02539 1.2207 1.80664 0.927734 3.32031l-1.46484 6.64062 6.73828 6.68945 4.39453-0.244141c1.12305-0.0488281 1.51367 0.0488281 2.34375 0.878906l2.53906 2.49023-10.8398 10.8398-2.49023-2.49023c-0.830078-0.878906-0.976562-1.2207-0.927734-2.39258l0.292969-4.3457-6.68945-6.73828-6.83594 1.17188c-1.41602 0.292969-2.05078 0.195312-3.17383-0.878906l-8.93555-8.88672c-1.07422-1.02539-1.17188-1.70898-0.488281-3.36914l4.58984-11.4746c-6.10352-6.34766-17.041-7.51953-25.5859-4.58984-0.683594 0.244141-0.927734-0.390625-0.390625-0.78125Z"/>
  </g>
  <text style="stroke:none;fill:black;font-family:sans-serif;font-size:13;font-weight:bold;" transform="matrix(1 0 0 1 1289 1953)">Exporting</text>
  <text style="stroke:none;fill:black;font-family:sans-serif;font-size:13;" transform="matrix(1 0 0 1 1289 1971)">Symbols should be outlined when exporting to ensure the</text>
  <text style="stroke:none;fill:black;font-family:sans-serif;font-size:13;" transform="matrix(1 0 0 1 1289 1989)">design is preserved when submitting to Xcode.</text>
  <text id="template-version" style="stroke:none;fill:black;font-family:sans-serif;font-size:13;text-anchor:end;" transform="matrix(1 0 0 1 3036 1933)">Template v.7.0</text>
  <text style="stroke:none;fill:black;font-family:sans-serif;font-size:13;text-anchor:end;" transform="matrix(1 0 0 1 3036 1951)">Requires Xcode 26 or greater</text>
  <text id="descriptive-name" style="stroke:none;fill:black;font-family:sans-serif;font-size:13;text-anchor:end;" transform="matrix(1 0 0 1 3036 1969)">Generated from </text>
  <text style="stroke:none;fill:black;font-family:sans-serif;font-size:13;text-anchor:end;" transform="matrix(1 0 0 1 3036 1987)">Typeset at 100.0 points</text>
  <text style="stroke:none;fill:black;font-family:sans-serif;font-size:13;" transform="matrix(1 0 0 1 263 726)">Small</text>
  <text style="stroke:none;fill:black;font-family:sans-serif;font-size:13;" transform="matrix(1 0 0 1 263 1156)">Medium</text>
  <text style="stroke:none;fill:black;font-family:sans-serif;font-size:13;" transform="matrix(1 0 0 1 263 1586)">Large</text>
 </g>
 <g id="Guides">
  <g id="H-reference" style="fill:#27AAE1;stroke:none;" transform="matrix(1 0 0 1 339 696)">
   <path d="M0.993654 0L3.63775 0L29.3281-67.1323L30.0303-67.1323L30.0303-70.459L28.1226-70.459ZM11.6885-24.4799L46.9815-24.4799L46.2315-26.7285L12.4385-26.7285ZM55.1196 0L57.7637 0L30.6382-70.459L29.4326-70.459L29.4326-67.1323Z"/>
  </g>
  <line id="Baseline-S" style="fill:none;stroke:#27AAE1;opacity:1;stroke-width:0.5;" x1="263" x2="3036" y1="696" y2="696"/>
  <line id="Capline-S" style="fill:none;stroke:#27AAE1;opacity:1;stroke-width:0.5;" x1="263" x2="3036" y1="625.541" y2="625.541"/>
  <g id="H-reference" style="fill:#27AAE1;stroke:none;" transform="matrix(1 0 0 1 339 1126)">
   <path d="M0.993654 0L3.63775 0L29.3281-67.1323L30.0303-67.1323L30.0303-70.459L28.1226-70.459ZM11.6885-24.4799L46.9815-24.4799L46.2315-26.7285L12.4385-26.7285ZM55.1196 0L57.7637 0L30.6382-70.459L29.4326-70.459L29.4326-67.1323Z"/>
  </g>
  <line id="Baseline-M" style="fill:none;stroke:#27AAE1;opacity:1;stroke-width:0.5;" x1="263" x2="3036" y1="1126" y2="1126"/>
  <line id="Capline-M" style="fill:none;stroke:#27AAE1;opacity:1;stroke-width:0.5;" x1="263" x2="3036" y1="1055.54" y2="1055.54"/>
  <g id="H-reference" style="fill:#27AAE1;stroke:none;" transform="matrix(1 0 0 1 339 1556)">
   <path d="M0.993654 0L3.63775 0L29.3281-67.1323L30.0303-67.1323L30.0303-70.459L28.1226-70.459ZM11.6885-24.4799L46.9815-24.4799L46.2315-26.7285L12.4385-26.7285ZM55.1196 0L57.7637 0L30.6382-70.459L29.4326-70.459L29.4326-67.1323Z"/>
  </g>
  <line id="Baseline-L" style="fill:none;stroke:#27AAE1;opacity:1;stroke-width:0.5;" x1="263" x2="3036" y1="1556" y2="1556"/>
  <line id="Capline-L" style="fill:none;stroke:#27AAE1;opacity:1;stroke-width:0.5;" x1="263" x2="3036" y1="1485.54" y2="1485.54"/>
  <line id="right-margin-Black-S" style="fill:none;stroke:#00AEEF;stroke-width:0.5;opacity:1.0;" x1="2985.3" x2="2985.3" y1="600.785" y2="720.121"/>
  <line id="left-margin-Black-S" style="fill:none;stroke:#00AEEF;stroke-width:0.5;opacity:1.0;" x1="2881.5" x2="2881.5" y1="600.785" y2="720.121"/>
  <line id="right-margin-Regular-S" style="fill:none;stroke:#00AEEF;stroke-width:0.5;opacity:1.0;" x1="1500.55" x2="1500.55" y1="600.785" y2="720.121"/>
  <line id="left-margin-Regular-S" style="fill:none;stroke:#00AEEF;stroke-width:0.5;opacity:1.0;" x1="1399.14" x2="1399.14" y1="600.785" y2="720.121"/>
  <line id="right-margin-Ultralight-S" style="fill:none;stroke:#00AEEF;stroke-width:0.5;opacity:1.0;" x1="608.012" x2="608.012" y1="600.785" y2="720.121"/>
  <line id="left-margin-Ultralight-S" style="fill:none;stroke:#00AEEF;stroke-width:0.5;opacity:1.0;" x1="511.41" x2="511.41" y1="600.785" y2="720.121"/>
 </g>
 <g id="Symbols">
  <g id="Black-S" transform="matrix(1 0 0 1 2881.5 696)">
   <path class="monochrome-0 multicolor-0:tintColor hierarchical-0:secondary SFSymbolsPreviewWireframe" d="M29.0039-0.390625L36.7676-0.390625C37.2559-0.390625 37.5488-0.292969 37.9395 0.0976562L43.4082 5.56641C49.0723 11.2305 54.7363 11.2305 60.4004 5.56641L65.8691 0.0976562C66.2598-0.292969 66.5527-0.390625 67.041-0.390625L74.8047-0.390625C82.8125-0.390625 86.8164-4.44336 86.8164-12.4023L86.8164-20.166C86.8164-20.6543 86.9629-20.9961 87.3047-21.3379L92.7734-26.8066C98.4375-32.4707 98.4375-38.1348 92.7734-43.7988L87.3047-49.2676C86.9141-49.6582 86.8164-49.9512 86.8164-50.4395L86.8164-58.2031C86.8164-66.2109 82.7637-70.2148 74.8047-70.2148L67.041-70.2148C66.5527-70.2148 66.2109-70.3613 65.8691-70.7031L60.4004-76.1719C54.6875-81.8848 49.1699-81.7871 43.4082-76.123L37.9395-70.7031C37.5977-70.3613 37.2559-70.2148 36.7676-70.2148L29.0039-70.2148C20.9961-70.2148 16.9922-66.2598 16.9922-58.2031L16.9922-50.4395C16.9922-49.9512 16.8457-49.6094 16.5039-49.2676L11.0352-43.7988C5.37109-38.1348 5.37109-32.4707 11.0352-26.8066L16.5039-21.3379C16.8457-20.9961 16.9922-20.6543 16.9922-20.166L16.9922-12.4023C16.9922-4.39453 21.0449-0.390625 29.0039-0.390625ZM32.0801-11.6211C28.8574-11.6211 28.2715-12.207 28.2227-15.4297L28.2227-23.9746C28.2227-25 27.9785-25.7324 27.2461-26.4648L21.1426-32.5684C18.8477-34.8633 18.8477-35.6445 21.1426-37.9395L27.2461-44.043C27.9785-44.7754 28.2227-45.5078 28.2715-46.5332L28.2715-55.0781C28.2715-58.3496 28.8086-58.8867 32.0801-58.8867L40.625-58.9355C41.6504-58.9355 42.4316-59.2285 43.1152-59.9121L49.2188-66.0156C51.5137-68.3105 52.2461-68.3594 54.5898-66.0156L60.6934-59.9121C61.377-59.2285 62.1582-58.9355 63.1836-58.9355L71.7285-58.8867C74.9512-58.8867 75.5371-58.3008 75.5371-55.0781L75.5371-46.5332C75.5859-45.5078 75.8301-44.7754 76.5625-44.043L82.666-37.9395C84.9609-35.6445 84.9609-34.8633 82.666-32.5684L76.5625-26.4648C75.8301-25.7324 75.5859-25 75.5859-23.9746L75.5371-15.4297C75.5371-12.207 74.9512-11.6211 71.7285-11.6211L63.1836-11.5723C62.1582-11.5723 61.4746-11.377 60.6934-10.5957L54.5898-4.49219C52.2949-2.19727 51.5137-2.19727 49.2188-4.49219L43.1152-10.5957C42.334-11.377 41.6504-11.5723 40.625-11.5723Z"/>
   <path class="monochrome-1 multicolor-1:tintColor hierarchical-1:primary SFSymbolsPreviewWireframe" d="M95.8718-4.48836C99.5229-0.837264 99.5229 5.09118 95.8718 8.74227C92.2207 12.3934 86.2922 12.3934 82.6411 8.74227L7.92823-65.9706C4.27714-69.6217 4.27714-75.5502 7.92823-79.2013C11.5793-82.8524 17.5078-82.8524 21.1589-79.2013Z" data-clipstroke-keyframes="0 0 0 0.4999044 0.6089134 0 1 0 0.10891342"/>
   <path class="monochrome-2 multicolor-2:tintColor hierarchical-2:primary SFSymbolsPreviewWireframe" d="M91.7217-0.338247C93.0822 1.02234 93.0822 3.23158 91.7217 4.59217C90.3611 5.95275 88.1518 5.95275 86.7912 4.59217L12.0783-70.1207C10.7178-71.4813 10.7178-73.6906 12.0783-75.0511C13.4389-76.4117 15.6482-76.4117 17.0088-75.0511Z" data-clipstroke-keyframes="0 0 0 0.49988937 0.54707384 0 1 0 0.04707384"/>
  </g>
  <g id="Regular-S" transform="matrix(1 0 0 1 1399.14 696)">
   <path class="monochrome-0 multicolor-0:tintColor hierarchical-0:secondary SFSymbolsPreviewWireframe" d="M27.7344-1.5625L35.6934-1.5625C36.4258-1.5625 36.9629-1.36719 37.5-0.830078L43.1641 4.78516C48.291 9.96094 53.125 9.91211 58.252 4.78516L63.916-0.830078C64.4531-1.36719 64.9902-1.5625 65.7715-1.5625L73.6816-1.5625C80.9082-1.5625 84.375-4.98047 84.375-12.3047L84.375-20.2148C84.375-20.9473 84.6191-21.4844 85.1562-22.0703L90.7227-27.6855C95.8984-32.8125 95.8496-37.6953 90.7227-42.8223L85.1562-48.4375C84.6191-49.0234 84.375-49.5605 84.375-50.293L84.375-58.2031C84.375-65.4785 80.957-68.9453 73.6816-68.9453L65.7715-68.9453C64.9902-68.9453 64.4531-69.1406 63.916-69.6777L58.252-75.293C53.125-80.4688 48.291-80.4199 43.1641-75.293L37.5-69.6777C36.9629-69.1406 36.4258-68.9453 35.6934-68.9453L27.7344-68.9453C20.459-68.9453 17.041-65.5273 17.041-58.2031L17.041-50.293C17.041-49.5605 16.8457-49.0234 16.3086-48.4375L10.6934-42.8223C5.51758-37.6953 5.56641-32.8125 10.6934-27.6855L16.3086-22.0703C16.8457-21.4844 17.041-20.9473 17.041-20.2148L17.041-12.3047C17.041-5.0293 20.459-1.5625 27.7344-1.5625ZM27.7344-8.54492C24.4141-8.54492 23.9746-8.93555 23.9746-12.3047L23.9746-22.4609C23.9746-23.6816 23.584-24.6094 22.7539-25.4883L15.5762-32.5684C13.2324-35.0098 13.2324-35.498 15.5762-37.9395L22.7539-45.0195C23.584-45.8984 23.9746-46.8262 23.9746-48.0469L23.9746-58.2031C23.9746-61.6211 24.3652-61.9629 27.7344-61.9629L37.9395-61.9629C39.1602-61.9629 40.0879-62.3047 40.918-63.2324L48.0469-70.4102C50.4395-72.7539 50.9766-72.7539 53.3691-70.4102L60.498-63.2324C61.377-62.3047 62.3047-61.9629 63.4766-61.9629L73.6816-61.9629C77.002-61.9629 77.4414-61.5723 77.4414-58.2031L77.4414-48.0469C77.4414-46.8262 77.832-45.8984 78.7109-45.0195L85.8398-37.9395C88.2324-35.498 88.2324-35.0098 85.8398-32.5684L78.7109-25.4883C77.832-24.6094 77.4414-23.6816 77.4414-22.4609L77.4414-12.3047C77.4414-8.93555 77.002-8.54492 73.6816-8.54492L63.4766-8.54492C62.3047-8.54492 61.377-8.20312 60.498-7.27539L53.3691-0.0976562C50.9766 2.24609 50.4395 2.24609 48.0469-0.0976562L40.918-7.27539C40.0879-8.20312 39.1602-8.54492 37.9395-8.54492Z"/>
   <path class="monochrome-1 multicolor-1:tintColor hierarchical-1:primary SFSymbolsPreviewWireframe" d="M91.7583-6.06714C95.0398-2.78573 95.0398 2.54245 91.7583 5.82386C88.4769 9.10527 83.1488 9.10527 79.8674 5.82386L9.65165-64.3918C6.37024-67.6733 6.37024-73.0014 9.65165-76.2828C12.9331-79.5643 18.2612-79.5643 21.5426-76.2828Z" data-clipstroke-keyframes="0 0 0 0.50010824 0.6049547 0 1 0 0.10495448"/>
   <path class="monochrome-2 multicolor-2:tintColor hierarchical-2:primary SFSymbolsPreviewWireframe" d="M88.2919-2.60066C89.6601-1.23245 89.6601 0.98917 88.2919 2.35738C86.9237 3.72558 84.702 3.72558 83.3338 2.35738L13.1181-67.8583C11.7499-69.2265 11.7499-71.4482 13.1181-72.8164C14.4863-74.1846 16.708-74.1846 18.0762-72.8164Z" data-clipstroke-keyframes="0 0 0 0.5002053 0.5497174 0 1 0 0.049717665"/>
  </g>
  <g id="Ultralight-S" transform="matrix(1 0 0 1 511.41 696)">
   <path class="monochrome-0 multicolor-0:tintColor hierarchical-0:secondary SFSymbolsPreviewWireframe" d="M24.2378-4.28709L34.104-4.28709C35.0635-4.28709 35.7368-4.04637 36.4556-3.32762L43.4819 3.6045C46.9741 7.10012 49.6284 7.0967 53.1206 3.6045L60.147-3.32762C60.8658-4.04637 61.5391-4.28709 62.502-4.28709L72.3648-4.28709C77.3208-4.28709 79.2437-6.25194 79.2437-11.1694L79.2437-21.0322C79.2437-22.0371 79.5332-22.7104 80.2066-23.4326L87.1807-30.4101C90.6309-33.9477 90.6275-36.5601 87.1807-40.0977L80.2066-47.0752C79.5332-47.7974 79.2437-48.4707 79.2437-49.4756L79.2437-59.3384C79.2437-64.2525 77.3242-66.2207 72.3648-66.2207L62.502-66.2207C61.5391-66.2207 60.8658-66.4614 60.147-67.1802L53.1206-74.1123C49.583-77.6533 46.9741-77.6953 43.4365-74.1123L36.4556-67.1802C35.7822-66.5069 35.0635-66.2207 34.104-66.2207L24.2378-66.2207C19.2783-66.2207 17.3589-64.2559 17.3589-59.3384L17.3589-49.4756C17.3589-48.4707 17.0728-47.7974 16.3994-47.0752L9.42189-40.0977C5.97168-36.5601 5.97509-33.9477 9.42189-30.4101L16.3994-23.4326C17.0728-22.7104 17.3589-22.0371 17.3589-21.0322L17.3589-11.1694C17.3589-6.25536 19.2783-4.28709 24.2378-4.28709ZM24.2378-6.50148C20.5542-6.50148 19.5699-7.48243 19.5699-11.1694L19.5699-21.9614C19.5699-22.9551 19.2701-23.7012 18.5762-24.353L10.9898-31.978C8.32816-34.6011 8.32816-35.9067 10.9898-38.5298L18.5762-46.1548C19.2701-46.8066 19.5699-47.5527 19.5699-48.5464L19.5699-59.3384C19.5699-63.0742 20.5054-64.0063 24.2378-64.0063L34.9878-64.0063C35.9815-64.0063 36.7276-64.3027 37.4214-65.0034L45.0044-72.5898C47.624-75.206 48.9785-75.206 51.5982-72.5898L59.1812-65.0034C59.8784-64.3027 60.6245-64.0063 61.6148-64.0063L72.3648-64.0063C76.0483-64.0063 77.0781-63.0254 77.0781-59.3384L77.0781-48.5464C77.0781-47.5527 77.3779-46.8066 78.0298-46.1548L85.6582-38.5298C88.2778-35.9067 88.2778-34.6011 85.6582-31.978L78.0298-24.353C77.3779-23.7012 77.0781-22.9551 77.0781-21.9614L77.0781-11.1694C77.0781-7.48243 76.0483-6.50148 72.3648-6.50148L61.6148-6.50148C60.6245-6.50148 59.8784-6.20509 59.1812-5.50441L51.5982 2.08201C48.9785 4.69822 47.624 4.69822 45.0044 2.08201L37.4214-5.50441C36.7276-6.20509 35.9815-6.50148 34.9878-6.50148Z"/>
   <path class="monochrome-1 multicolor-1:tintColor hierarchical-1:primary SFSymbolsPreviewWireframe" d="M85.9872-3.06064C87.5098-1.53808 87.5098 0.934172 85.9872 2.45673C84.4647 3.97929 81.9924 3.97929 80.4699 2.45673L10.6148-67.3983C9.09222-68.9209 9.09222-71.3932 10.6148-72.9157C12.1373-74.4383 14.6096-74.4383 16.1321-72.9157Z" data-clipstroke-keyframes="0 0 0 0.5001135 0.5550747 0 1 0 0.05507469"/>
   <path class="monochrome-2 multicolor-2:tintColor hierarchical-2:primary SFSymbolsPreviewWireframe" d="M83.9363-1.00975C84.327-0.619106 84.327 0.0152006 83.9363 0.405845C83.5457 0.796489 82.9114 0.796489 82.5207 0.405845L12.6657-69.4492C12.275-69.8399 12.275-70.4742 12.6657-70.8648C13.0563-71.2555 13.6906-71.2555 14.0813-70.8648Z" data-clipstroke-keyframes="0 0 0 0.5001266 0.51529884 0 1 0 0.015299082"/>
  </g>
 </g>
</svg>
