<?xml version="1.0" encoding="UTF-8"?>
<!--Generator: Apple Native CoreSVG 341-->
<!DOCTYPE svg
PUBLIC "-//W3C//DTD SVG 1.1//EN"
       "http://www.w3.org/Graphics/SVG/1.1/DTD/svg11.dtd">
<svg version="1.1" xmlns="http://www.w3.org/2000/svg" xmlns:xlink="http://www.w3.org/1999/xlink" viewBox="0 0 3300 2200">
 <!--glyph: "", point size: 100.0, font version: "21.1d1e1", template writer version: "138.0.0"-->
 <style>.defaults {-sfsymbols-variable-value-mode:color;-sfsymbols-draw-reverses-motion-groups:false}

.monochrome-0 {-sfsymbols-motion-group:1;-sfsymbols-layer-tags:3013d458a42459db _enclosure.stroke rectangle}
.monochrome-1 {-sfsymbols-variable-threshold:0.89;-sfsymbols-motion-group:0;-sfsymbols-always-pulses:true;-sfsymbols-layer-tags:3013d458a42459db 561765674b5cf0fd progress.indicator}
.monochrome-2 {-sfsymbols-variable-threshold:0.76;-sfsymbols-motion-group:0;-sfsymbols-always-pulses:true;-sfsymbols-layer-tags:3013d458a42459db 561765674b5cf0fd progress.indicator}
.monochrome-3 {-sfsymbols-variable-threshold:0.64;-sfsymbols-motion-group:0;-sfsymbols-always-pulses:true;-sfsymbols-layer-tags:3013d458a42459db 561765674b5cf0fd progress.indicator}
.monochrome-4 {-sfsymbols-variable-threshold:0.51;-sfsymbols-motion-group:0;-sfsymbols-always-pulses:true;-sfsymbols-layer-tags:3013d458a42459db 561765674b5cf0fd progress.indicator}
.monochrome-5 {-sfsymbols-variable-threshold:0.39;-sfsymbols-motion-group:0;-sfsymbols-always-pulses:true;-sfsymbols-layer-tags:3013d458a42459db 561765674b5cf0fd progress.indicator}
.monochrome-6 {-sfsymbols-variable-threshold:0.26;-sfsymbols-motion-group:0;-sfsymbols-always-pulses:true;-sfsymbols-layer-tags:3013d458a42459db 561765674b5cf0fd progress.indicator}
.monochrome-7 {-sfsymbols-variable-threshold:0.14;-sfsymbols-motion-group:0;-sfsymbols-always-pulses:true;-sfsymbols-layer-tags:3013d458a42459db 561765674b5cf0fd progress.indicator}
.monochrome-8 {-sfsymbols-variable-threshold:0.0;-sfsymbols-motion-group:0;-sfsymbols-always-pulses:true;-sfsymbols-layer-tags:3013d458a42459db 561765674b5cf0fd progress.indicator}

.multicolor-0:tintColor {-sfsymbols-motion-group:1;-sfsymbols-layer-tags:3013d458a42459db _enclosure.stroke rectangle}
.multicolor-1:tintColor {-sfsymbols-variable-threshold:0.89;-sfsymbols-motion-group:0;-sfsymbols-always-pulses:true;-sfsymbols-layer-tags:3013d458a42459db 561765674b5cf0fd progress.indicator}
.multicolor-2:tintColor {-sfsymbols-variable-threshold:0.76;-sfsymbols-motion-group:0;-sfsymbols-always-pulses:true;-sfsymbols-layer-tags:3013d458a42459db 561765674b5cf0fd progress.indicator}
.multicolor-3:tintColor {-sfsymbols-variable-threshold:0.64;-sfsymbols-motion-group:0;-sfsymbols-always-pulses:true;-sfsymbols-layer-tags:3013d458a42459db 561765674b5cf0fd progress.indicator}
.multicolor-4:tintColor {-sfsymbols-variable-threshold:0.51;-sfsymbols-motion-group:0;-sfsymbols-always-pulses:true;-sfsymbols-layer-tags:3013d458a42459db 561765674b5cf0fd progress.indicator}
.multicolor-5:tintColor {-sfsymbols-variable-threshold:0.39;-sfsymbols-motion-group:0;-sfsymbols-always-pulses:true;-sfsymbols-layer-tags:3013d458a42459db 561765674b5cf0fd progress.indicator}
.multicolor-6:tintColor {-sfsymbols-variable-threshold:0.26;-sfsymbols-motion-group:0;-sfsymbols-always-pulses:true;-sfsymbols-layer-tags:3013d458a42459db 561765674b5cf0fd progress.indicator}
.multicolor-7:tintColor {-sfsymbols-variable-threshold:0.14;-sfsymbols-motion-group:0;-sfsymbols-always-pulses:true;-sfsymbols-layer-tags:3013d458a42459db 561765674b5cf0fd progress.indicator}
.multicolor-8:tintColor {-sfsymbols-variable-threshold:0.0;-sfsymbols-motion-group:0;-sfsymbols-always-pulses:true;-sfsymbols-layer-tags:3013d458a42459db 561765674b5cf0fd progress.indicator}

.hierarchical-0:secondary {-sfsymbols-motion-group:1;-sfsymbols-layer-tags:3013d458a42459db _enclosure.stroke rectangle}
.hierarchical-1:primary {-sfsymbols-variable-threshold:0.89;-sfsymbols-motion-group:0;-sfsymbols-always-pulses:true;-sfsymbols-layer-tags:3013d458a42459db 561765674b5cf0fd progress.indicator}
.hierarchical-2:primary {-sfsymbols-variable-threshold:0.76;-sfsymbols-motion-group:0;-sfsymbols-always-pulses:true;-sfsymbols-layer-tags:3013d458a42459db 561765674b5cf0fd progress.indicator}
.hierarchical-3:primary {-sfsymbols-variable-threshold:0.64;-sfsymbols-motion-group:0;-sfsymbols-always-pulses:true;-sfsymbols-layer-tags:3013d458a42459db 561765674b5cf0fd progress.indicator}
.hierarchical-4:primary {-sfsymbols-variable-threshold:0.51;-sfsymbols-motion-group:0;-sfsymbols-always-pulses:true;-sfsymbols-layer-tags:3013d458a42459db 561765674b5cf0fd progress.indicator}
.hierarchical-5:primary {-sfsymbols-variable-threshold:0.39;-sfsymbols-motion-group:0;-sfsymbols-always-pulses:true;-sfsymbols-layer-tags:3013d458a42459db 561765674b5cf0fd progress.indicator}
.hierarchical-6:primary {-sfsymbols-variable-threshold:0.26;-sfsymbols-motion-group:0;-sfsymbols-always-pulses:true;-sfsymbols-layer-tags:3013d458a42459db 561765674b5cf0fd progress.indicator}
.hierarchical-7:primary {-sfsymbols-variable-threshold:0.14;-sfsymbols-motion-group:0;-sfsymbols-always-pulses:true;-sfsymbols-layer-tags:3013d458a42459db 561765674b5cf0fd progress.indicator}
.hierarchical-8:primary {-sfsymbols-variable-threshold:0.0;-sfsymbols-motion-group:0;-sfsymbols-always-pulses:true;-sfsymbols-layer-tags:3013d458a42459db 561765674b5cf0fd progress.indicator}

.SFSymbolsPreviewWireframe {fill:none;opacity:1.0;stroke:black;stroke-width:0.5}
</style>
 <g id="Notes">
  <rect height="2200" id="artboard" style="fill:white;opacity:1" width="3300" x="0" y="0"/>
  <line style="fill:none;stroke:black;opacity:1;stroke-width:0.5;" x1="263" x2="3036" y1="292" y2="292"/>
  <text style="stroke:none;fill:black;font-family:sans-serif;font-size:13;font-weight:bold;" transform="matrix(1 0 0 1 263 322)">Weight/Scale Variations</text>
  <text style="stroke:none;fill:black;font-family:sans-serif;font-size:13;text-anchor:middle;" transform="matrix(1 0 0 1 559.711 322)">Ultralight</text>
  <text style="stroke:none;fill:black;font-family:sans-serif;font-size:13;text-anchor:middle;" transform="matrix(1 0 0 1 856.422 322)">Thin</text>
  <text style="stroke:none;fill:black;font-family:sans-serif;font-size:13;text-anchor:middle;" transform="matrix(1 0 0 1 1153.13 322)">Light</text>
  <text style="stroke:none;fill:black;font-family:sans-serif;font-size:13;text-anchor:middle;" transform="matrix(1 0 0 1 1449.84 322)">Regular</text>
  <text style="stroke:none;fill:black;font-family:sans-serif;font-size:13;text-anchor:middle;" transform="matrix(1 0 0 1 1746.56 322)">Medium</text>
  <text style="stroke:none;fill:black;font-family:sans-serif;font-size:13;text-anchor:middle;" transform="matrix(1 0 0 1 2043.27 322)">Semibold</text>
  <text style="stroke:none;fill:black;font-family:sans-serif;font-size:13;text-anchor:middle;" transform="matrix(1 0 0 1 2339.98 322)">Bold</text>
  <text style="stroke:none;fill:black;font-family:sans-serif;font-size:13;text-anchor:middle;" transform="matrix(1 0 0 1 2636.69 322)">Heavy</text>
  <text style="stroke:none;fill:black;font-family:sans-serif;font-size:13;text-anchor:middle;" transform="matrix(1 0 0 1 2933.4 322)">Black</text>
  <line style="fill:none;stroke:black;opacity:1;stroke-width:0.5;" x1="263" x2="3036" y1="1903" y2="1903"/>
  <g transform="matrix(0.2 0 0 0.2 263 1933)">
   <path d="m46.2402 4.15039c21.7773 0 39.4531-17.627 39.4531-39.4043s-17.6758-39.4043-39.4531-39.4043c-21.7285 0-39.4043 17.627-39.4043 39.4043s17.6758 39.4043 39.4043 39.4043Zm0-7.42188c-17.6758 0-31.9336-14.3066-31.9336-31.9824s14.2578-31.9824 31.9336-31.9824 31.9824 14.3066 31.9824 31.9824-14.3066 31.9824-31.9824 31.9824Zm3.61328-17.7734v-28.4668c0-2.24609-1.46484-3.75977-3.71094-3.75977-2.14844 0-3.61328 1.51367-3.61328 3.75977v28.4668c0 2.19727 1.46484 3.71094 3.61328 3.71094 2.24609 0 3.71094-1.51367 3.71094-3.71094Zm-17.8223-10.5957h28.418c2.19727 0 3.71094-1.46484 3.71094-3.61328 0-2.19727-1.51367-3.71094-3.71094-3.71094h-28.418c-2.24609 0-3.75977 1.51367-3.75977 3.71094 0 2.14844 1.51367 3.61328 3.75977 3.61328Z"/>
  </g>
  <g transform="matrix(0.2 0 0 0.2 281.506 1933)">
   <path d="m58.5449 14.5508c27.4902 0 49.8047-22.3145 49.8047-49.8047s-22.3145-49.8047-49.8047-49.8047-49.8047 22.3145-49.8047 49.8047 22.3145 49.8047 49.8047 49.8047Zm0-8.30078c-22.9492 0-41.5039-18.5547-41.5039-41.5039s18.5547-41.5039 41.5039-41.5039 41.5039 18.5547 41.5039 41.5039-18.5547 41.5039-41.5039 41.5039Zm4.05273-23.0957v-36.9141c0-2.49023-1.70898-4.19922-4.15039-4.19922-2.39258 0-4.05273 1.70898-4.05273 4.19922v36.9141c0 2.44141 1.66016 4.15039 4.05273 4.15039 2.44141 0 4.15039-1.66016 4.15039-4.15039Zm-22.5586-14.4043h36.9629c2.44141 0 4.15039-1.61133 4.15039-4.00391 0-2.44141-1.70898-4.15039-4.15039-4.15039h-36.9629c-2.49023 0-4.15039 1.70898-4.15039 4.15039 0 2.39258 1.66016 4.00391 4.15039 4.00391Z"/>
  </g>
  <g transform="matrix(0.2 0 0 0.2 304.924 1933)">
   <path d="m74.8535 28.3203c35.1074 0 63.623-28.4668 63.623-63.5742s-28.5156-63.623-63.623-63.623-63.5742 28.5156-63.5742 63.623 28.4668 63.5742 63.5742 63.5742Zm0-9.08203c-30.127 0-54.4922-24.3652-54.4922-54.4922s24.3652-54.4922 54.4922-54.4922 54.4922 24.3652 54.4922 54.4922-24.3652 54.4922-54.4922 54.4922Zm4.44336-30.3223v-48.4863c0-2.73438-1.85547-4.63867-4.54102-4.63867-2.58789 0-4.44336 1.9043-4.44336 4.63867v48.4863c0 2.68555 1.85547 4.58984 4.44336 4.58984 2.68555 0 4.54102-1.85547 4.54102-4.58984Zm-28.7109-19.7754h48.4863c2.68555 0 4.58984-1.80664 4.58984-4.39453 0-2.73438-1.85547-4.58984-4.58984-4.58984h-48.4863c-2.73438 0-4.58984 1.85547-4.58984 4.58984 0 2.58789 1.85547 4.39453 4.58984 4.39453Z"/>
  </g>
  <text style="stroke:none;fill:black;font-family:sans-serif;font-size:13;font-weight:bold;" transform="matrix(1 0 0 1 263 1953)">Design Variations</text>
  <text style="stroke:none;fill:black;font-family:sans-serif;font-size:13;" transform="matrix(1 0 0 1 263 1971)">Symbols are supported in up to nine weights and three scales.</text>
  <text style="stroke:none;fill:black;font-family:sans-serif;font-size:13;" transform="matrix(1 0 0 1 263 1989)">For optimal layout with text and other symbols, vertically align</text>
  <text style="stroke:none;fill:black;font-family:sans-serif;font-size:13;" transform="matrix(1 0 0 1 263 2007)">symbols with the adjacent text.</text>
  <line style="fill:none;stroke:#00AEEF;stroke-width:0.5;opacity:1.0;" x1="776" x2="776" y1="1919" y2="1933"/>
  <g transform="matrix(0.2 0 0 0.2 776 1933)">
   <path d="m16.5527 0.78125c2.58789 0 3.85742-0.976562 4.78516-3.71094l20.5566-57.5195h0.244141l20.6055 57.5195c0.927734 2.73438 2.19727 3.71094 4.73633 3.71094 2.58789 0 4.24805-1.5625 4.24805-4.00391 0-0.830078-0.146484-1.61133-0.537109-2.63672l-22.9004-60.9863c-1.12305-2.97852-3.125-4.49219-6.25-4.49219-3.02734 0-5.07812 1.46484-6.15234 4.44336l-22.9004 61.084c-0.390625 1.02539-0.537109 1.80664-0.537109 2.63672 0 2.44141 1.5625 3.95508 4.10156 3.95508Zm10.2051-20.9473h30.6641c2.00195 0 3.66211-1.66016 3.66211-3.66211 0-2.05078-1.66016-3.66211-3.66211-3.66211h-30.6641c-2.00195 0-3.66211 1.61133-3.66211 3.66211 0 2.00195 1.66016 3.66211 3.66211 3.66211Z"/>
  </g>
  <line style="fill:none;stroke:#00AEEF;stroke-width:0.5;opacity:1.0;" x1="792.836" x2="792.836" y1="1919" y2="1933"/>
  <text style="stroke:none;fill:black;font-family:sans-serif;font-size:13;font-weight:bold;" transform="matrix(1 0 0 1 776 1953)">Margins</text>
  <text style="stroke:none;fill:black;font-family:sans-serif;font-size:13;" transform="matrix(1 0 0 1 776 1971)">Leading and trailing margins on the left and right side of each symbol</text>
  <text style="stroke:none;fill:black;font-family:sans-serif;font-size:13;" transform="matrix(1 0 0 1 776 1989)">can be adjusted by modifying the x-location of the margin guidelines.</text>
  <text style="stroke:none;fill:black;font-family:sans-serif;font-size:13;" transform="matrix(1 0 0 1 776 2007)">Modifications are automatically applied proportionally to all</text>
  <text style="stroke:none;fill:black;font-family:sans-serif;font-size:13;" transform="matrix(1 0 0 1 776 2025)">scales and weights.</text>
  <g transform="matrix(0.2 0 0 0.2 1289 1933)">
   <path d="m14.209 13.1348 7.86133 7.86133c4.29688 4.39453 9.32617 4.10156 13.8672-1.02539l60.6934-68.2129-4.88281-4.88281-60.2539 67.6758c-1.80664 1.95312-3.4668 2.44141-5.81055 0.0976562l-5.17578-5.12695c-2.29492-2.29492-1.80664-3.95508 0.195312-5.81055l67.4805-62.1582-4.88281-4.83398-68.0664 62.5977c-4.98047 4.58984-5.32227 9.47266-1.02539 13.8184Zm44.873-97.4609c-2.05078 2.00195-2.24609 4.88281-1.07422 6.78711 1.12305 1.80664 3.4668 3.02734 6.5918 2.24609 5.85938-1.66016 12.5977-2.39258 18.8965 0.927734l-2.68555 7.12891c-1.61133 4.00391-0.732422 6.88477 1.70898 9.42383l10.2539 10.3027c2.34375 2.39258 4.54102 2.44141 7.08008 1.95312l4.44336-0.732422 2.58789 2.53906-0.195312 2.24609c-0.0976562 2.29492 0.537109 4.29688 2.7832 6.49414l3.36914 3.32031c2.29492 2.29492 5.51758 2.49023 7.8125 0.195312l12.9883-13.0371c2.29492-2.34375 2.14844-5.37109-0.195312-7.66602l-3.41797-3.41797c-2.19727-2.19727-4.05273-3.02734-6.34766-2.88086l-2.34375 0.244141-2.44141-2.44141 1.02539-4.6875c0.634766-2.73438-0.244141-4.98047-2.88086-7.61719l-11.2793-11.1816c-12.9395-12.8418-35.5957-11.0352-46.6797-0.146484Zm7.08008 2.05078c8.78906-6.39648 25.9766-5.66406 33.6914 1.95312l12.3047 12.207c1.02539 1.02539 1.2207 1.80664 0.927734 3.32031l-1.46484 6.64062 6.73828 6.68945 4.39453-0.244141c1.12305-0.0488281 1.51367 0.0488281 2.34375 0.878906l2.53906 2.49023-10.8398 10.8398-2.49023-2.49023c-0.830078-0.878906-0.976562-1.2207-0.927734-2.39258l0.292969-4.3457-6.68945-6.73828-6.83594 1.17188c-1.41602 0.292969-2.05078 0.195312-3.17383-0.878906l-8.93555-8.88672c-1.07422-1.02539-1.17188-1.70898-0.488281-3.36914l4.58984-11.4746c-6.10352-6.34766-17.041-7.51953-25.5859-4.58984-0.683594 0.244141-0.927734-0.390625-0.390625-0.78125Z"/>
  </g>
  <text style="stroke:none;fill:black;font-family:sans-serif;font-size:13;font-weight:bold;" transform="matrix(1 0 0 1 1289 1953)">Exporting</text>
  <text style="stroke:none;fill:black;font-family:sans-serif;font-size:13;" transform="matrix(1 0 0 1 1289 1971)">Symbols should be outlined when exporting to ensure the</text>
  <text style="stroke:none;fill:black;font-family:sans-serif;font-size:13;" transform="matrix(1 0 0 1 1289 1989)">design is preserved when submitting to Xcode.</text>
  <text id="template-version" style="stroke:none;fill:black;font-family:sans-serif;font-size:13;text-anchor:end;" transform="matrix(1 0 0 1 3036 1933)">Template v.7.0</text>
  <text style="stroke:none;fill:black;font-family:sans-serif;font-size:13;text-anchor:end;" transform="matrix(1 0 0 1 3036 1951)">Requires Xcode 26 or greater</text>
  <text id="descriptive-name" style="stroke:none;fill:black;font-family:sans-serif;font-size:13;text-anchor:end;" transform="matrix(1 0 0 1 3036 1969)">Generated from rectangle</text>
  <text style="stroke:none;fill:black;font-family:sans-serif;font-size:13;text-anchor:end;" transform="matrix(1 0 0 1 3036 1987)">Typeset at 100.0 points</text>
  <text style="stroke:none;fill:black;font-family:sans-serif;font-size:13;" transform="matrix(1 0 0 1 263 726)">Small</text>
  <text style="stroke:none;fill:black;font-family:sans-serif;font-size:13;" transform="matrix(1 0 0 1 263 1156)">Medium</text>
  <text style="stroke:none;fill:black;font-family:sans-serif;font-size:13;" transform="matrix(1 0 0 1 263 1586)">Large</text>
 </g>
 <g id="Guides">
  <g id="H-reference" style="fill:#27AAE1;stroke:none;" transform="matrix(1 0 0 1 339 696)">
   <path d="M0.993654 0L3.63775 0L29.3281-67.1323L30.0303-67.1323L30.0303-70.459L28.1226-70.459ZM11.6885-24.4799L46.9815-24.4799L46.2315-26.7285L12.4385-26.7285ZM55.1196 0L57.7637 0L30.6382-70.459L29.4326-70.459L29.4326-67.1323Z"/>
  </g>
  <line id="Baseline-S" style="fill:none;stroke:#27AAE1;opacity:1;stroke-width:0.5;" x1="263" x2="3036" y1="696" y2="696"/>
  <line id="Capline-S" style="fill:none;stroke:#27AAE1;opacity:1;stroke-width:0.5;" x1="263" x2="3036" y1="625.541" y2="625.541"/>
  <g id="H-reference" style="fill:#27AAE1;stroke:none;" transform="matrix(1 0 0 1 339 1126)">
   <path d="M0.993654 0L3.63775 0L29.3281-67.1323L30.0303-67.1323L30.0303-70.459L28.1226-70.459ZM11.6885-24.4799L46.9815-24.4799L46.2315-26.7285L12.4385-26.7285ZM55.1196 0L57.7637 0L30.6382-70.459L29.4326-70.459L29.4326-67.1323Z"/>
  </g>
  <line id="Baseline-M" style="fill:none;stroke:#27AAE1;opacity:1;stroke-width:0.5;" x1="263" x2="3036" y1="1126" y2="1126"/>
  <line id="Capline-M" style="fill:none;stroke:#27AAE1;opacity:1;stroke-width:0.5;" x1="263" x2="3036" y1="1055.54" y2="1055.54"/>
  <g id="H-reference" style="fill:#27AAE1;stroke:none;" transform="matrix(1 0 0 1 339 1556)">
   <path d="M0.993654 0L3.63775 0L29.3281-67.1323L30.0303-67.1323L30.0303-70.459L28.1226-70.459ZM11.6885-24.4799L46.9815-24.4799L46.2315-26.7285L12.4385-26.7285ZM55.1196 0L57.7637 0L30.6382-70.459L29.4326-70.459L29.4326-67.1323Z"/>
  </g>
  <line id="Baseline-L" style="fill:none;stroke:#27AAE1;opacity:1;stroke-width:0.5;" x1="263" x2="3036" y1="1556" y2="1556"/>
  <line id="Capline-L" style="fill:none;stroke:#27AAE1;opacity:1;stroke-width:0.5;" x1="263" x2="3036" y1="1485.54" y2="1485.54"/>
  <line id="right-margin-Black-S" style="fill:none;stroke:#00AEEF;stroke-width:0.5;opacity:1.0;" x1="2989.45" x2="2989.45" y1="600.785" y2="720.121"/>
  <line id="left-margin-Black-S" style="fill:none;stroke:#00AEEF;stroke-width:0.5;opacity:1.0;" x1="2877.35" x2="2877.35" y1="600.785" y2="720.121"/>
  <line id="right-margin-Regular-S" style="fill:none;stroke:#00AEEF;stroke-width:0.5;opacity:1.0;" x1="1504.9" x2="1504.9" y1="600.785" y2="720.121"/>
  <line id="left-margin-Regular-S" style="fill:none;stroke:#00AEEF;stroke-width:0.5;opacity:1.0;" x1="1394.79" x2="1394.79" y1="600.785" y2="720.121"/>
  <line id="right-margin-Ultralight-S" style="fill:none;stroke:#00AEEF;stroke-width:0.5;opacity:1.0;" x1="613.72" x2="613.72" y1="600.785" y2="720.121"/>
  <line id="left-margin-Ultralight-S" style="fill:none;stroke:#00AEEF;stroke-width:0.5;opacity:1.0;" x1="505.702" x2="505.702" y1="600.785" y2="720.121"/>
 </g>
 <g id="Symbols">
  <g id="Black-S" transform="matrix(1 0 0 1 2877.35 696)">
   <path class="monochrome-0 multicolor-0:tintColor hierarchical-0:secondary SFSymbolsPreviewWireframe" d="M25 2.92969L87.1094 2.92969C96.6797 2.92969 102.344-2.73438 102.344-12.3047L102.344-58.1055C102.344-67.6758 96.6797-73.3398 87.1094-73.3398L25-73.3398C15.4297-73.3398 9.76562-67.6758 9.76562-58.1055L9.76562-12.3047C9.76562-2.73438 15.4297 2.92969 25 2.92969ZM27.2461-11.2305C25-11.2305 23.9258-12.1094 23.9258-14.5508L23.9258-55.8594C23.9258-58.3008 25-59.1797 27.2461-59.1797L84.8633-59.1797C87.1094-59.1797 88.1836-58.3008 88.1836-55.8594L88.1836-14.5508C88.1836-12.1094 87.1094-11.2305 84.8633-11.2305Z" data-clipstroke-keyframes="0 4 0 0.5986296 1.3693644 0 0.098986596 0.49964297 1.5110431 0 0.18329915 0.41533044 1.5245665 0 0.32234478 0.2762848 1.723056 0 0.40023983 0.19838974 1.7266612 0 0.5829649 0.015664697 1.987961 0 0.6865792 0.91205037 1.0288659 0 0.8152142 0.7834153 1.2125112 0 0.9092995 0.6893301 1.2400095 0 1 0.5986296 1.3693644"/>
   <path class="monochrome-1 multicolor-1:tintColor hierarchical-1:primary SFSymbolsPreviewWireframe" d="M49.4919-41.8773C50.8674-43.2529 50.8659-45.5045 49.4919-46.8815L43.5458-52.861C42.1368-54.2366 39.8852-54.2336 38.5082-52.861C37.1326-51.481 37.1356-49.2264 38.5082-47.8234L44.4876-41.8773C45.8647-40.5003 48.1193-40.5048 49.4919-41.8773Z"/>
   <path class="monochrome-2 multicolor-2:tintColor hierarchical-2:primary SFSymbolsPreviewWireframe" d="M46.7744-35.3149C46.7744-37.2709 45.1795-38.8628 43.228-38.8628L34.7944-38.8628C32.84-38.8628 31.2465-37.2694 31.2465-35.3149C31.2465-33.3575 32.843-31.7671 34.7944-31.7671L43.228-31.7671C45.1825-31.7671 46.7744-33.362 46.7744-35.3149Z"/>
   <path class="monochrome-3 multicolor-3:tintColor hierarchical-3:primary SFSymbolsPreviewWireframe" d="M49.4919-28.7526C48.1163-30.1281 45.8617-30.1266 44.4876-28.7526L38.5082-22.8064C37.1326-21.4005 37.1356-19.1459 38.5082-17.7688C39.8883-16.3933 42.1398-16.3963 43.5458-17.7688L49.4919-23.7483C50.8689-25.1284 50.8644-27.3799 49.4919-28.7526Z"/>
   <path class="monochrome-4 multicolor-4:tintColor hierarchical-4:primary SFSymbolsPreviewWireframe" d="M56.0543-26.0366C54.0968-26.0366 52.5064-24.4431 52.5064-22.4887L52.5064-14.0551C52.5064-12.1007 54.0998-10.5072 56.0543-10.5072C58.0087-10.5072 59.6021-12.1037 59.6021-14.0551L59.6021-22.4887C59.6021-24.4462 58.0057-26.0366 56.0543-26.0366Z"/>
   <path class="monochrome-5 multicolor-5:tintColor hierarchical-5:primary SFSymbolsPreviewWireframe" d="M62.6167-28.7526C61.2411-27.3799 61.2366-25.1284 62.6167-23.7483L68.5628-17.7688C69.9657-16.3963 72.2203-16.3933 73.5974-17.7688C74.9729-19.1459 74.9759-21.4005 73.5974-22.8064L67.6209-28.7526C66.2438-30.1266 63.9892-30.1281 62.6167-28.7526Z"/>
   <path class="monochrome-6 multicolor-6:tintColor hierarchical-6:primary SFSymbolsPreviewWireframe" d="M65.3342-35.3149C65.3342-33.362 66.9231-31.7671 68.8805-31.7671L77.3111-31.7671C79.2658-31.7671 80.8622-33.3575 80.8622-35.3149C80.8622-37.2694 79.2688-38.8628 77.3111-38.8628L68.8805-38.8628C66.9261-38.8628 65.3342-37.2709 65.3342-35.3149Z"/>
   <path class="monochrome-7 multicolor-7:tintColor hierarchical-7:primary SFSymbolsPreviewWireframe" d="M62.6167-41.8773C63.9862-40.5048 66.2408-40.5003 67.6209-41.8773L73.5974-47.8234C74.9729-49.2264 74.9759-51.481 73.5974-52.861C72.2233-54.2336 69.9687-54.2366 68.5628-52.861L62.6167-46.8815C61.2396-45.5045 61.2381-43.2529 62.6167-41.8773Z"/>
   <path class="monochrome-8 multicolor-8:tintColor hierarchical-8:primary SFSymbolsPreviewWireframe" d="M56.0543-44.5933C58.0057-44.5933 59.6021-46.1837 59.6021-48.1412L59.6021-56.5748C59.6021-58.5262 58.0087-60.1227 56.0543-60.1227C54.0998-60.1227 52.5064-58.5292 52.5064-56.5748L52.5064-48.1412C52.5064-46.1868 54.0968-44.5933 56.0543-44.5933Z"/>
  </g>
  <g id="Regular-S" transform="matrix(1 0 0 1 1394.79 696)">
   <path class="monochrome-0 multicolor-0:tintColor hierarchical-0:secondary SFSymbolsPreviewWireframe" d="M22.2168 0.390625L87.8906 0.390625C96.2402 0.390625 100.342-3.71094 100.342-11.9141L100.342-58.4961C100.342-66.6992 96.2402-70.8008 87.8906-70.8008L22.2168-70.8008C13.916-70.8008 9.76562-66.6992 9.76562-58.4961L9.76562-11.9141C9.76562-3.71094 13.916 0.390625 22.2168 0.390625ZM22.3145-6.68945C18.7988-6.68945 16.7969-8.59375 16.7969-12.2559L16.7969-58.1543C16.7969-61.8652 18.7988-63.7207 22.3145-63.7207L87.793-63.7207C91.3086-63.7207 93.3105-61.8652 93.3105-58.1543L93.3105-12.2559C93.3105-8.59375 91.3086-6.68945 87.793-6.68945Z" data-clipstroke-keyframes="0 4 0 0.6073133 1.3738731 0 0.10743546 0.4998778 1.5004756 0 0.17410555 0.43320772 1.5344751 0 0.32583717 0.2814761 1.7133055 0 0.39176127 0.21555199 1.7462814 0 0.59027547 0.01703782 1.980339 0 0.677537 0.92977625 1.0384121 0 0.8213613 0.785952 1.2079533 0 0.90671265 0.70060056 1.2638211 0 1 0.6073133 1.3738731"/>
   <path class="monochrome-1 multicolor-1:tintColor hierarchical-1:primary SFSymbolsPreviewWireframe" d="M48.8132-41.5553C49.9255-42.6676 49.9146-44.481 48.8132-45.584L42.7273-51.679C41.6059-52.7711 39.7925-52.7695 38.6895-51.679C37.5974-50.5743 37.599-48.7593 38.6895-47.6411L44.7844-41.5553C45.8874-40.4522 47.7025-40.4445 48.8132-41.5553Z"/>
   <path class="monochrome-2 multicolor-2:tintColor hierarchical-2:primary SFSymbolsPreviewWireframe" d="M46.2305-35.3149C46.2305-36.8856 44.9301-38.1642 43.372-38.1642L34.7659-38.1642C33.2062-38.1642 31.9167-36.8747 31.9167-35.3149C31.9167-33.7536 33.2078-32.4657 34.7659-32.4657L43.372-32.4657C44.9317-32.4657 46.2305-33.7459 46.2305-35.3149Z"/>
   <path class="monochrome-3 multicolor-3:tintColor hierarchical-3:primary SFSymbolsPreviewWireframe" d="M48.8132-29.0746C47.7009-30.187 45.8858-30.1761 44.7844-29.0746L38.6895-22.9888C37.5974-21.869 37.599-20.054 38.6895-18.9509C39.7942-17.8588 41.6075-17.8604 42.7273-18.9509L48.8132-25.0458C49.9162-26.1505 49.9239-27.9639 48.8132-29.0746Z"/>
   <path class="monochrome-4 multicolor-4:tintColor hierarchical-4:primary SFSymbolsPreviewWireframe" d="M55.0535-26.4826C53.4922-26.4826 52.2043-25.1931 52.2043-23.6334L52.2043-15.0273C52.2043-13.4676 53.4938-12.1781 55.0535-12.1781C56.6132-12.1781 57.9027-13.4692 57.9027-15.0273L57.9027-23.6334C57.9027-25.1948 56.6116-26.4826 55.0535-26.4826Z"/>
   <path class="monochrome-5 multicolor-5:tintColor hierarchical-5:primary SFSymbolsPreviewWireframe" d="M61.2938-29.0746C60.1815-27.9639 60.1891-26.1505 61.2938-25.0458L67.3797-18.9509C68.4978-17.8604 70.3128-17.8588 71.4159-18.9509C72.508-20.054 72.5096-21.869 71.4159-22.9888L65.3226-29.0746C64.2195-30.1761 62.4045-30.187 61.2938-29.0746Z"/>
   <path class="monochrome-6 multicolor-6:tintColor hierarchical-6:primary SFSymbolsPreviewWireframe" d="M63.8765-35.3149C63.8765-33.7459 65.1737-32.4657 66.735-32.4657L75.3395-32.4657C76.8993-32.4657 78.1905-33.7536 78.1905-35.3149C78.1905-36.8747 76.901-38.1642 75.3395-38.1642L66.735-38.1642C65.1753-38.1642 63.8765-36.8856 63.8765-35.3149Z"/>
   <path class="monochrome-7 multicolor-7:tintColor hierarchical-7:primary SFSymbolsPreviewWireframe" d="M61.2938-41.5553C62.4029-40.4445 64.2179-40.4522 65.3226-41.5553L71.4159-47.6411C72.508-48.7593 72.5096-50.5743 71.4159-51.679C70.3145-52.7695 68.4995-52.7711 67.3797-51.679L61.2938-45.584C60.1908-44.481 60.1798-42.6676 61.2938-41.5553Z"/>
   <path class="monochrome-8 multicolor-8:tintColor hierarchical-8:primary SFSymbolsPreviewWireframe" d="M55.0535-44.1472C56.6116-44.1472 57.9027-45.4351 57.9027-46.9965L57.9027-55.6025C57.9027-57.1606 56.6132-58.4518 55.0535-58.4518C53.4938-58.4518 52.2043-57.1623 52.2043-55.6025L52.2043-46.9965C52.2043-45.4368 53.4922-44.1472 55.0535-44.1472Z"/>
  </g>
  <g id="Ultralight-S" transform="matrix(1 0 0 1 505.702 696)">
   <path class="monochrome-0 multicolor-0:tintColor hierarchical-0:secondary SFSymbolsPreviewWireframe" d="M19.7647-1.65282L88.2539-1.65282C94.7871-1.65282 98.2529-5.20946 98.2529-11.6416L98.2529-58.8594C98.2529-65.2915 94.7871-68.8482 88.2539-68.8482L19.7647-68.8482C13.2349-68.8482 9.76562-65.3823 9.76562-58.8594L9.76562-11.6416C9.76562-5.11864 13.2349-1.65282 19.7647-1.65282ZM19.8623-3.87405C14.6665-3.87405 11.9834-6.55031 11.9834-11.7564L11.9834-58.7446C11.9834-63.9541 14.6665-66.6269 19.8623-66.6269L88.1562-66.6269C93.1704-66.6269 96.0351-63.9541 96.0351-58.7446L96.0351-11.7564C96.0351-6.55031 93.1704-3.87405 88.1562-3.87405Z" data-clipstroke-keyframes="0 4 0 0.6151685 1.3793428 0 0.1154963 0.4996722 1.5007751 0 0.16962717 0.44554132 1.5449159 0 0.3289606 0.28620788 1.7124571 0 0.38353026 0.23163825 1.7568109 0 0.59686595 0.018302526 1.981168 0 0.67364883 0.9415196 1.0489306 0 0.8252219 0.7899466 1.2083263 0 0.8996751 0.71549344 1.2739307 0 1 0.6151685 1.3793428"/>
   <path class="monochrome-1 multicolor-1:tintColor hierarchical-1:primary SFSymbolsPreviewWireframe" d="M48.0118-41.3125C48.6471-41.9478 48.6332-42.9835 48.0118-43.5996L41.6687-49.9183C41.0578-50.5206 40.0221-50.5259 39.406-49.9183C38.8037-49.3075 38.7984-48.277 39.406-47.6556L45.7247-41.3125C46.3408-40.6964 47.3712-40.672 48.0118-41.3125Z"/>
   <path class="monochrome-2 multicolor-2:tintColor hierarchical-2:primary SFSymbolsPreviewWireframe" d="M45.5293-35.3149C45.5293-36.1956 44.774-36.9232 43.9019-36.9232L34.9636-36.9232C34.0968-36.9232 33.3553-36.1818 33.3553-35.3149C33.3553-34.4534 34.0915-33.7066 34.9636-33.7066L43.9019-33.7066C44.7687-33.7066 45.5293-34.429 45.5293-35.3149Z"/>
   <path class="monochrome-3 multicolor-3:tintColor hierarchical-3:primary SFSymbolsPreviewWireframe" d="M48.0118-29.3174C47.3765-29.9526 46.3461-29.9388 45.7247-29.3174L39.406-22.9743C38.8037-22.3581 38.7984-21.3277 39.406-20.7116C40.0168-20.1093 41.0525-20.104 41.6687-20.7116L48.0118-27.0303C48.6279-27.6411 48.6523-28.6769 48.0118-29.3174Z"/>
   <path class="monochrome-4 multicolor-4:tintColor hierarchical-4:primary SFSymbolsPreviewWireframe" d="M54.0094-26.8158C53.1478-26.8158 52.4011-26.0743 52.4011-25.2075L52.4011-16.2692C52.4011-15.4024 53.1425-14.6609 54.0094-14.6609C54.8762-14.6609 55.6177-15.3971 55.6177-16.2692L55.6177-25.2075C55.6177-26.069 54.8814-26.8158 54.0094-26.8158Z"/>
   <path class="monochrome-5 multicolor-5:tintColor hierarchical-5:primary SFSymbolsPreviewWireframe" d="M60.0069-29.3174C59.3717-28.6769 59.3961-27.6411 60.0069-27.0303L66.35-20.7116C66.9715-20.104 68.0019-20.1093 68.618-20.7116C69.2203-21.3277 69.215-22.3581 68.618-22.9743L62.294-29.3174C61.6779-29.9388 60.6475-29.9526 60.0069-29.3174Z"/>
   <path class="monochrome-6 multicolor-6:tintColor hierarchical-6:primary SFSymbolsPreviewWireframe" d="M62.4894-35.3149C62.4894-34.429 63.2552-33.7066 64.1168-33.7066L73.0604-33.7066C73.9272-33.7066 74.6634-34.4534 74.6634-35.3149C74.6634-36.1818 73.9219-36.9232 73.0604-36.9232L64.1168-36.9232C63.2499-36.9232 62.4894-36.1956 62.4894-35.3149Z"/>
   <path class="monochrome-7 multicolor-7:tintColor hierarchical-7:primary SFSymbolsPreviewWireframe" d="M60.0069-41.3125C60.6527-40.672 61.6832-40.6964 62.294-41.3125L68.618-47.6556C69.2203-48.277 69.215-49.3075 68.618-49.9183C67.9966-50.5259 66.9662-50.5206 66.35-49.9183L60.0069-43.5996C59.3908-42.9835 59.3769-41.9478 60.0069-41.3125Z"/>
   <path class="monochrome-8 multicolor-8:tintColor hierarchical-8:primary SFSymbolsPreviewWireframe" d="M54.0094-43.8141C54.8814-43.8141 55.6177-44.5609 55.6177-45.4223L55.6177-54.3607C55.6177-55.2328 54.8762-55.969 54.0094-55.969C53.1425-55.969 52.4011-55.2275 52.4011-54.3607L52.4011-45.4223C52.4011-44.5556 53.1478-43.8141 54.0094-43.8141Z"/>
  </g>
 </g>
</svg>
