<?xml version="1.0" encoding="UTF-8"?>
<!--Generator: Apple Native CoreSVG 341-->
<!DOCTYPE svg
PUBLIC "-//W3C//DTD SVG 1.1//EN"
       "http://www.w3.org/Graphics/SVG/1.1/DTD/svg11.dtd">
<svg version="1.1" xmlns="http://www.w3.org/2000/svg" xmlns:xlink="http://www.w3.org/1999/xlink" viewBox="0 0 3300 2200">
 <!--glyph: "", point size: 100.0, font version: "21.1d1e1", template writer version: "138.0.0"-->
 <style>.defaults {-sfsymbols-wiggle-style:counterClockwise;-sfsymbols-rotates-clockwise:false;-sfsymbols-draw-reverses-motion-groups:true}

.monochrome-0 {-sfsymbols-motion-group:1;-sfsymbols-always-rotates:true;-sfsymbols-layer-tags:-53a1a2979bf9cfe8 _enclosure.stroke arrow.trianglehead.counterclockwise;-sfsymbols-clipstroke-attachments:1 4 0 1 0 0}
.monochrome-1 {-sfsymbols-motion-group:0;-sfsymbols-always-pulses:true;-sfsymbols-layer-tags:-53a1a2979bf9cfe8 4559cc1980f8496b textformat.size}
.monochrome-2 {-sfsymbols-motion-group:0;-sfsymbols-always-pulses:true;-sfsymbols-layer-tags:-53a1a2979bf9cfe8 4559cc1980f8496b textformat.size}

.multicolor-0:tintColor {-sfsymbols-motion-group:1;-sfsymbols-always-rotates:true;-sfsymbols-layer-tags:-53a1a2979bf9cfe8 _enclosure.stroke arrow.trianglehead.counterclockwise;-sfsymbols-clipstroke-attachments:1 4 0 1 0 0}
.multicolor-1:tintColor {-sfsymbols-motion-group:0;-sfsymbols-always-pulses:true;-sfsymbols-layer-tags:-53a1a2979bf9cfe8 4559cc1980f8496b textformat.size}
.multicolor-2:tintColor {-sfsymbols-motion-group:0;-sfsymbols-always-pulses:true;-sfsymbols-layer-tags:-53a1a2979bf9cfe8 4559cc1980f8496b textformat.size}

.hierarchical-0:secondary {-sfsymbols-motion-group:1;-sfsymbols-always-rotates:true;-sfsymbols-layer-tags:-53a1a2979bf9cfe8 _enclosure.stroke arrow.trianglehead.counterclockwise;-sfsymbols-clipstroke-attachments:1 4 0 1 0 0}
.hierarchical-1:primary {-sfsymbols-motion-group:0;-sfsymbols-always-pulses:true;-sfsymbols-layer-tags:-53a1a2979bf9cfe8 4559cc1980f8496b textformat.size}
.hierarchical-2:primary {-sfsymbols-motion-group:0;-sfsymbols-always-pulses:true;-sfsymbols-layer-tags:-53a1a2979bf9cfe8 4559cc1980f8496b textformat.size}

.SFSymbolsPreviewWireframe {fill:none;opacity:1.0;stroke:black;stroke-width:0.5}
</style>
 <g id="Notes">
  <rect height="2200" id="artboard" style="fill:white;opacity:1" width="3300" x="0" y="0"/>
  <line style="fill:none;stroke:black;opacity:1;stroke-width:0.5;" x1="263" x2="3036" y1="292" y2="292"/>
  <text style="stroke:none;fill:black;font-family:sans-serif;font-size:13;font-weight:bold;" transform="matrix(1 0 0 1 263 322)">Weight/Scale Variations</text>
  <text style="stroke:none;fill:black;font-family:sans-serif;font-size:13;text-anchor:middle;" transform="matrix(1 0 0 1 559.711 322)">Ultralight</text>
  <text style="stroke:none;fill:black;font-family:sans-serif;font-size:13;text-anchor:middle;" transform="matrix(1 0 0 1 856.422 322)">Thin</text>
  <text style="stroke:none;fill:black;font-family:sans-serif;font-size:13;text-anchor:middle;" transform="matrix(1 0 0 1 1153.13 322)">Light</text>
  <text style="stroke:none;fill:black;font-family:sans-serif;font-size:13;text-anchor:middle;" transform="matrix(1 0 0 1 1449.84 322)">Regular</text>
  <text style="stroke:none;fill:black;font-family:sans-serif;font-size:13;text-anchor:middle;" transform="matrix(1 0 0 1 1746.56 322)">Medium</text>
  <text style="stroke:none;fill:black;font-family:sans-serif;font-size:13;text-anchor:middle;" transform="matrix(1 0 0 1 2043.27 322)">Semibold</text>
  <text style="stroke:none;fill:black;font-family:sans-serif;font-size:13;text-anchor:middle;" transform="matrix(1 0 0 1 2339.98 322)">Bold</text>
  <text style="stroke:none;fill:black;font-family:sans-serif;font-size:13;text-anchor:middle;" transform="matrix(1 0 0 1 2636.69 322)">Heavy</text>
  <text style="stroke:none;fill:black;font-family:sans-serif;font-size:13;text-anchor:middle;" transform="matrix(1 0 0 1 2933.4 322)">Black</text>
  <line style="fill:none;stroke:black;opacity:1;stroke-width:0.5;" x1="263" x2="3036" y1="1903" y2="1903"/>
  <g transform="matrix(0.2 0 0 0.2 263 1933)">
   <path d="m46.2402 4.15039c21.7773 0 39.4531-17.627 39.4531-39.4043s-17.6758-39.4043-39.4531-39.4043c-21.7285 0-39.4043 17.627-39.4043 39.4043s17.6758 39.4043 39.4043 39.4043Zm0-7.42188c-17.6758 0-31.9336-14.3066-31.9336-31.9824s14.2578-31.9824 31.9336-31.9824 31.9824 14.3066 31.9824 31.9824-14.3066 31.9824-31.9824 31.9824Zm3.61328-17.7734v-28.4668c0-2.24609-1.46484-3.75977-3.71094-3.75977-2.14844 0-3.61328 1.51367-3.61328 3.75977v28.4668c0 2.19727 1.46484 3.71094 3.61328 3.71094 2.24609 0 3.71094-1.51367 3.71094-3.71094Zm-17.8223-10.5957h28.418c2.19727 0 3.71094-1.46484 3.71094-3.61328 0-2.19727-1.51367-3.71094-3.71094-3.71094h-28.418c-2.24609 0-3.75977 1.51367-3.75977 3.71094 0 2.14844 1.51367 3.61328 3.75977 3.61328Z"/>
  </g>
  <g transform="matrix(0.2 0 0 0.2 281.506 1933)">
   <path d="m58.5449 14.5508c27.4902 0 49.8047-22.3145 49.8047-49.8047s-22.3145-49.8047-49.8047-49.8047-49.8047 22.3145-49.8047 49.8047 22.3145 49.8047 49.8047 49.8047Zm0-8.30078c-22.9492 0-41.5039-18.5547-41.5039-41.5039s18.5547-41.5039 41.5039-41.5039 41.5039 18.5547 41.5039 41.5039-18.5547 41.5039-41.5039 41.5039Zm4.05273-23.0957v-36.9141c0-2.49023-1.70898-4.19922-4.15039-4.19922-2.39258 0-4.05273 1.70898-4.05273 4.19922v36.9141c0 2.44141 1.66016 4.15039 4.05273 4.15039 2.44141 0 4.15039-1.66016 4.15039-4.15039Zm-22.5586-14.4043h36.9629c2.44141 0 4.15039-1.61133 4.15039-4.00391 0-2.44141-1.70898-4.15039-4.15039-4.15039h-36.9629c-2.49023 0-4.15039 1.70898-4.15039 4.15039 0 2.39258 1.66016 4.00391 4.15039 4.00391Z"/>
  </g>
  <g transform="matrix(0.2 0 0 0.2 304.924 1933)">
   <path d="m74.8535 28.3203c35.1074 0 63.623-28.4668 63.623-63.5742s-28.5156-63.623-63.623-63.623-63.5742 28.5156-63.5742 63.623 28.4668 63.5742 63.5742 63.5742Zm0-9.08203c-30.127 0-54.4922-24.3652-54.4922-54.4922s24.3652-54.4922 54.4922-54.4922 54.4922 24.3652 54.4922 54.4922-24.3652 54.4922-54.4922 54.4922Zm4.44336-30.3223v-48.4863c0-2.73438-1.85547-4.63867-4.54102-4.63867-2.58789 0-4.44336 1.9043-4.44336 4.63867v48.4863c0 2.68555 1.85547 4.58984 4.44336 4.58984 2.68555 0 4.54102-1.85547 4.54102-4.58984Zm-28.7109-19.7754h48.4863c2.68555 0 4.58984-1.80664 4.58984-4.39453 0-2.73438-1.85547-4.58984-4.58984-4.58984h-48.4863c-2.73438 0-4.58984 1.85547-4.58984 4.58984 0 2.58789 1.85547 4.39453 4.58984 4.39453Z"/>
  </g>
  <text style="stroke:none;fill:black;font-family:sans-serif;font-size:13;font-weight:bold;" transform="matrix(1 0 0 1 263 1953)">Design Variations</text>
  <text style="stroke:none;fill:black;font-family:sans-serif;font-size:13;" transform="matrix(1 0 0 1 263 1971)">Symbols are supported in up to nine weights and three scales.</text>
  <text style="stroke:none;fill:black;font-family:sans-serif;font-size:13;" transform="matrix(1 0 0 1 263 1989)">For optimal layout with text and other symbols, vertically align</text>
  <text style="stroke:none;fill:black;font-family:sans-serif;font-size:13;" transform="matrix(1 0 0 1 263 2007)">symbols with the adjacent text.</text>
  <line style="fill:none;stroke:#00AEEF;stroke-width:0.5;opacity:1.0;" x1="776" x2="776" y1="1919" y2="1933"/>
  <g transform="matrix(0.2 0 0 0.2 776 1933)">
   <path d="m16.5527 0.78125c2.58789 0 3.85742-0.976562 4.78516-3.71094l20.5566-57.5195h0.244141l20.6055 57.5195c0.927734 2.73438 2.19727 3.71094 4.73633 3.71094 2.58789 0 4.24805-1.5625 4.24805-4.00391 0-0.830078-0.146484-1.61133-0.537109-2.63672l-22.9004-60.9863c-1.12305-2.97852-3.125-4.49219-6.25-4.49219-3.02734 0-5.07812 1.46484-6.15234 4.44336l-22.9004 61.084c-0.390625 1.02539-0.537109 1.80664-0.537109 2.63672 0 2.44141 1.5625 3.95508 4.10156 3.95508Zm10.2051-20.9473h30.6641c2.00195 0 3.66211-1.66016 3.66211-3.66211 0-2.05078-1.66016-3.66211-3.66211-3.66211h-30.6641c-2.00195 0-3.66211 1.61133-3.66211 3.66211 0 2.00195 1.66016 3.66211 3.66211 3.66211Z"/>
  </g>
  <line style="fill:none;stroke:#00AEEF;stroke-width:0.5;opacity:1.0;" x1="792.836" x2="792.836" y1="1919" y2="1933"/>
  <text style="stroke:none;fill:black;font-family:sans-serif;font-size:13;font-weight:bold;" transform="matrix(1 0 0 1 776 1953)">Margins</text>
  <text style="stroke:none;fill:black;font-family:sans-serif;font-size:13;" transform="matrix(1 0 0 1 776 1971)">Leading and trailing margins on the left and right side of each symbol</text>
  <text style="stroke:none;fill:black;font-family:sans-serif;font-size:13;" transform="matrix(1 0 0 1 776 1989)">can be adjusted by modifying the x-location of the margin guidelines.</text>
  <text style="stroke:none;fill:black;font-family:sans-serif;font-size:13;" transform="matrix(1 0 0 1 776 2007)">Modifications are automatically applied proportionally to all</text>
  <text style="stroke:none;fill:black;font-family:sans-serif;font-size:13;" transform="matrix(1 0 0 1 776 2025)">scales and weights.</text>
  <g transform="matrix(0.2 0 0 0.2 1289 1933)">
   <path d="m14.209 13.1348 7.86133 7.86133c4.29688 4.39453 9.32617 4.10156 13.8672-1.02539l60.6934-68.2129-4.88281-4.88281-60.2539 67.6758c-1.80664 1.95312-3.4668 2.44141-5.81055 0.0976562l-5.17578-5.12695c-2.29492-2.29492-1.80664-3.95508 0.195312-5.81055l67.4805-62.1582-4.88281-4.83398-68.0664 62.5977c-4.98047 4.58984-5.32227 9.47266-1.02539 13.8184Zm44.873-97.4609c-2.05078 2.00195-2.24609 4.88281-1.07422 6.78711 1.12305 1.80664 3.4668 3.02734 6.5918 2.24609 5.85938-1.66016 12.5977-2.39258 18.8965 0.927734l-2.68555 7.12891c-1.61133 4.00391-0.732422 6.88477 1.70898 9.42383l10.2539 10.3027c2.34375 2.39258 4.54102 2.44141 7.08008 1.95312l4.44336-0.732422 2.58789 2.53906-0.195312 2.24609c-0.0976562 2.29492 0.537109 4.29688 2.7832 6.49414l3.36914 3.32031c2.29492 2.29492 5.51758 2.49023 7.8125 0.195312l12.9883-13.0371c2.29492-2.34375 2.14844-5.37109-0.195312-7.66602l-3.41797-3.41797c-2.19727-2.19727-4.05273-3.02734-6.34766-2.88086l-2.34375 0.244141-2.44141-2.44141 1.02539-4.6875c0.634766-2.73438-0.244141-4.98047-2.88086-7.61719l-11.2793-11.1816c-12.9395-12.8418-35.5957-11.0352-46.6797-0.146484Zm7.08008 2.05078c8.78906-6.39648 25.9766-5.66406 33.6914 1.95312l12.3047 12.207c1.02539 1.02539 1.2207 1.80664 0.927734 3.32031l-1.46484 6.64062 6.73828 6.68945 4.39453-0.244141c1.12305-0.0488281 1.51367 0.0488281 2.34375 0.878906l2.53906 2.49023-10.8398 10.8398-2.49023-2.49023c-0.830078-0.878906-0.976562-1.2207-0.927734-2.39258l0.292969-4.3457-6.68945-6.73828-6.83594 1.17188c-1.41602 0.292969-2.05078 0.195312-3.17383-0.878906l-8.93555-8.88672c-1.07422-1.02539-1.17188-1.70898-0.488281-3.36914l4.58984-11.4746c-6.10352-6.34766-17.041-7.51953-25.5859-4.58984-0.683594 0.244141-0.927734-0.390625-0.390625-0.78125Z"/>
  </g>
  <text style="stroke:none;fill:black;font-family:sans-serif;font-size:13;font-weight:bold;" transform="matrix(1 0 0 1 1289 1953)">Exporting</text>
  <text style="stroke:none;fill:black;font-family:sans-serif;font-size:13;" transform="matrix(1 0 0 1 1289 1971)">Symbols should be outlined when exporting to ensure the</text>
  <text style="stroke:none;fill:black;font-family:sans-serif;font-size:13;" transform="matrix(1 0 0 1 1289 1989)">design is preserved when submitting to Xcode.</text>
  <text id="template-version" style="stroke:none;fill:black;font-family:sans-serif;font-size:13;text-anchor:end;" transform="matrix(1 0 0 1 3036 1933)">Template v.7.0</text>
  <text style="stroke:none;fill:black;font-family:sans-serif;font-size:13;text-anchor:end;" transform="matrix(1 0 0 1 3036 1951)">Requires Xcode 26 or greater</text>
  <text id="descriptive-name" style="stroke:none;fill:black;font-family:sans-serif;font-size:13;text-anchor:end;" transform="matrix(1 0 0 1 3036 1969)">Generated from arrow.trianglehead.counterclockwise</text>
  <text style="stroke:none;fill:black;font-family:sans-serif;font-size:13;text-anchor:end;" transform="matrix(1 0 0 1 3036 1987)">Typeset at 100.0 points</text>
  <text style="stroke:none;fill:black;font-family:sans-serif;font-size:13;" transform="matrix(1 0 0 1 263 726)">Small</text>
  <text style="stroke:none;fill:black;font-family:sans-serif;font-size:13;" transform="matrix(1 0 0 1 263 1156)">Medium</text>
  <text style="stroke:none;fill:black;font-family:sans-serif;font-size:13;" transform="matrix(1 0 0 1 263 1586)">Large</text>
 </g>
 <g id="Guides">
  <g id="H-reference" style="fill:#27AAE1;stroke:none;" transform="matrix(1 0 0 1 339 696)">
   <path d="M0.993654 0L3.63775 0L29.3281-67.1323L30.0303-67.1323L30.0303-70.459L28.1226-70.459ZM11.6885-24.4799L46.9815-24.4799L46.2315-26.7285L12.4385-26.7285ZM55.1196 0L57.7637 0L30.6382-70.459L29.4326-70.459L29.4326-67.1323Z"/>
  </g>
  <line id="Baseline-S" style="fill:none;stroke:#27AAE1;opacity:1;stroke-width:0.5;" x1="263" x2="3036" y1="696" y2="696"/>
  <line id="Capline-S" style="fill:none;stroke:#27AAE1;opacity:1;stroke-width:0.5;" x1="263" x2="3036" y1="625.541" y2="625.541"/>
  <g id="H-reference" style="fill:#27AAE1;stroke:none;" transform="matrix(1 0 0 1 339 1126)">
   <path d="M0.993654 0L3.63775 0L29.3281-67.1323L30.0303-67.1323L30.0303-70.459L28.1226-70.459ZM11.6885-24.4799L46.9815-24.4799L46.2315-26.7285L12.4385-26.7285ZM55.1196 0L57.7637 0L30.6382-70.459L29.4326-70.459L29.4326-67.1323Z"/>
  </g>
  <line id="Baseline-M" style="fill:none;stroke:#27AAE1;opacity:1;stroke-width:0.5;" x1="263" x2="3036" y1="1126" y2="1126"/>
  <line id="Capline-M" style="fill:none;stroke:#27AAE1;opacity:1;stroke-width:0.5;" x1="263" x2="3036" y1="1055.54" y2="1055.54"/>
  <g id="H-reference" style="fill:#27AAE1;stroke:none;" transform="matrix(1 0 0 1 339 1556)">
   <path d="M0.993654 0L3.63775 0L29.3281-67.1323L30.0303-67.1323L30.0303-70.459L28.1226-70.459ZM11.6885-24.4799L46.9815-24.4799L46.2315-26.7285L12.4385-26.7285ZM55.1196 0L57.7637 0L30.6382-70.459L29.4326-70.459L29.4326-67.1323Z"/>
  </g>
  <line id="Baseline-L" style="fill:none;stroke:#27AAE1;opacity:1;stroke-width:0.5;" x1="263" x2="3036" y1="1556" y2="1556"/>
  <line id="Capline-L" style="fill:none;stroke:#27AAE1;opacity:1;stroke-width:0.5;" x1="263" x2="3036" y1="1485.54" y2="1485.54"/>
  <line id="right-margin-Black-S" style="fill:none;stroke:#00AEEF;stroke-width:0.5;opacity:1.0;" x1="2982.23" x2="2982.23" y1="600.785" y2="720.121"/>
  <line id="left-margin-Black-S" style="fill:none;stroke:#00AEEF;stroke-width:0.5;opacity:1.0;" x1="2884.57" x2="2884.57" y1="600.785" y2="720.121"/>
  <line id="right-margin-Regular-S" style="fill:none;stroke:#00AEEF;stroke-width:0.5;opacity:1.0;" x1="1496.11" x2="1496.11" y1="600.785" y2="720.121"/>
  <line id="left-margin-Regular-S" style="fill:none;stroke:#00AEEF;stroke-width:0.5;opacity:1.0;" x1="1403.58" x2="1403.58" y1="600.785" y2="720.121"/>
  <line id="right-margin-Ultralight-S" style="fill:none;stroke:#00AEEF;stroke-width:0.5;opacity:1.0;" x1="603.773" x2="603.773" y1="600.785" y2="720.121"/>
  <line id="left-margin-Ultralight-S" style="fill:none;stroke:#00AEEF;stroke-width:0.5;opacity:1.0;" x1="515.649" x2="515.649" y1="600.785" y2="720.121"/>
 </g>
 <g id="Symbols">
  <g id="Black-S" transform="matrix(1 0 0 1 2884.57 696)">
   <path class="monochrome-0 multicolor-0:tintColor hierarchical-0:secondary SFSymbolsPreviewWireframe" d="M58.0566-80.2246C58.0566-83.5938 54.6387-84.4238 52.3926-82.6172L39.1602-72.1191C37.6953-70.9961 37.6953-68.75 39.1602-67.5781L52.3926-57.1289C54.6387-55.3711 58.0566-56.1523 58.0566-59.4727ZM48.8281 6.73828C72.0215 6.73828 90.8203-12.1094 90.8203-35.2539C90.8203-58.4473 72.0215-77.2461 48.7305-77.2461C44.8242-77.2461 41.6504-74.0723 41.6504-70.166C41.6504-66.2598 44.8242-63.0859 48.7305-63.0859C64.209-63.0859 76.6602-50.6348 76.6602-35.2539C76.6602-19.873 64.209-7.42188 48.8281-7.42188C33.4473-7.42188 20.9961-19.873 20.9961-35.2539C20.9961-42.4805 23.4863-48.4863 28.2227-53.9551C31.1035-57.3242 32.0801-61.5723 28.9062-64.7461C26.123-67.5293 21.7285-67.627 18.1641-63.916C10.5469-55.957 6.83594-45.2637 6.83594-35.2539C6.83594-12.1094 25.6348 6.73828 48.8281 6.73828Z" data-clipstroke-keyframes="0 0 0 1.7152376 1.7728873 0 0.16665044 1.8491018 1.6653684 0 0.4767699 1.0014274 1.5643885 0 0.73794615 1.148074 1.467178 0 1 1.2952926 1.3696408"/>
   <path class="monochrome-1 multicolor-1:tintColor hierarchical-1:primary SFSymbolsPreviewWireframe" d="M52.6183-19.5062C55.6674-19.5062 57.3836-20.9103 58.124-24.0994L62.4128-41.9925L62.5987-41.9925L66.5646-24.0994C67.3084-20.9103 69.0214-19.5062 72.0732-19.5062C75.4982-19.5062 77.7129-21.553 77.7129-24.6628C77.7129-25.9587 77.5469-26.967 77.1292-28.196L71.9089-44.4976C70.4455-48.8696 67.4578-50.9164 62.4601-50.9164C57.7805-50.9164 54.849-48.8377 53.3582-44.4976L47.8181-27.619C47.4571-26.5346 47.2622-25.4381 47.2622-24.4908C47.2622-21.4099 49.309-19.5062 52.6183-19.5062ZM54.7772-24.8208L69.9119-24.8208C72.0529-24.8208 73.7805-26.548 73.7805-28.6894C73.7805-30.8324 72.0529-32.5581 69.9119-32.5581L54.7772-32.5581C52.6341-32.5581 50.907-30.8324 50.907-28.6894C50.907-26.548 52.6341-24.8208 54.7772-24.8208Z"/>
   <path class="monochrome-2 multicolor-2:tintColor hierarchical-2:primary SFSymbolsPreviewWireframe" d="M24.2514-19.5062C26.5345-19.5062 27.8124-20.7352 28.5588-23.6731L28.4909-23.9154L35.5978-23.9154L35.5299-23.5284C36.1865-20.6804 37.4675-19.5062 40.0063-19.5062C42.4281-19.5062 44.2041-21.2074 44.2041-23.6595C44.2041-24.6008 44.041-25.4021 43.6511-26.5155L38.9252-39.9027C37.6064-43.5501 35.5746-45.0824 31.9302-45.0824C28.5446-45.0824 26.5083-43.4633 25.2503-39.9027L20.5808-26.5155C20.2213-25.4858 19.9395-24.368 19.9395-23.6595C19.9395-21.0353 21.5465-19.5062 24.2514-19.5062ZM29.9491-30.1073L31.8021-37.9093L31.9685-37.9093L33.9935-30.1073Z"/>
  </g>
  <g id="Regular-S" transform="matrix(1 0 0 1 1403.58 696)">
   <path class="monochrome-0 multicolor-0:tintColor hierarchical-0:secondary SFSymbolsPreviewWireframe" d="M53.8574-79.1016C53.8574-82.1777 51.7578-82.959 49.4629-81.2988L37.1094-72.5586C35.1562-71.1914 35.2051-69.1895 37.1094-67.8223L49.5117-59.1309C51.7578-57.5195 53.8574-58.3008 53.8574-61.3281ZM46.2402 4.15039C68.0176 4.15039 85.6934-13.4766 85.6934-35.2539C85.6934-57.0312 68.0664-74.6094 46.1914-74.6582C44.1895-74.6094 42.5293-72.998 42.5293-70.9473C42.5293-68.8965 44.2383-67.2363 46.2402-67.2363C63.916-67.2363 78.2227-52.9297 78.2227-35.2539C78.2227-17.5781 63.916-3.27148 46.2402-3.27148C28.5645-3.27148 14.3066-17.5781 14.3066-35.2539C14.3066-45.7031 19.2871-54.8828 26.9043-60.6934C28.6621-62.0605 29.248-64.1113 28.125-65.918C27.0508-67.7246 24.5117-68.2129 22.5586-66.748C12.9883-59.4727 6.83594-48.2422 6.83594-35.2539C6.83594-13.4766 24.5117 4.15039 46.2402 4.15039Z" data-clipstroke-keyframes="0 0 0 1.7399985 1.7701907 0 0.18615787 1.8580871 1.6687284 0 0.47438353 1.0013447 1.5525093 0 0.73694307 1.1392022 1.4406793 0 1 1.2773557 1.3286372"/>
   <path class="monochrome-1 multicolor-1:tintColor hierarchical-1:primary SFSymbolsPreviewWireframe" d="M48.1482-20.4339C50.1063-20.4339 51.1735-21.2826 51.7293-23.343L57.8973-43.4094L58.0469-43.4094L64.0935-23.343C64.6512-21.2826 65.7167-20.4339 67.6763-20.4339C69.792-20.4339 71.1686-21.7114 71.1686-23.6658C71.1686-24.426 71.0557-25.0509 70.7795-25.8408L63.6013-46.1311C62.6833-48.7756 60.8804-50.0237 57.96-50.0237C55.173-50.0237 53.4082-48.7618 52.4936-46.1311L45.1664-25.5843C44.9285-24.855 44.8035-24.2076 44.8035-23.5792C44.8035-21.6368 46.081-20.4339 48.1482-20.4339ZM51.3789-27.1956L64.4736-27.1956C65.9058-27.1956 67.0639-28.3535 67.0639-29.786C67.0639-31.2339 65.9058-32.3763 64.4736-32.3763L51.3789-32.3763C49.931-32.3763 48.7731-31.2339 48.7731-29.786C48.7731-28.3535 49.931-27.1956 51.3789-27.1956Z"/>
   <path class="monochrome-2 multicolor-2:tintColor hierarchical-2:primary SFSymbolsPreviewWireframe" d="M24.2359-20.4339C25.7273-20.4339 26.6249-21.2237 27.1251-23.0916L27.8708-25.6048L35.0259-25.6048L35.7716-23.0309C36.2632-21.1717 37.1624-20.4339 38.7459-20.4339C40.4125-20.4339 41.5899-21.5519 41.5899-23.1578C41.5899-23.8125 41.4492-24.3942 41.1991-25.1356L35.9691-39.4959C35.1118-41.8216 33.6952-42.884 31.4007-42.884C29.2291-42.884 27.8248-41.8146 26.9934-39.4959L21.7721-25.1356C21.5203-24.4584 21.3589-23.7294 21.3589-23.1578C21.3589-21.4652 22.4512-20.4339 24.2359-20.4339ZM29.0439-29.8597L31.187-37.4587L31.5762-37.4587L33.806-29.8597Z"/>
  </g>
  <g id="Ultralight-S" transform="matrix(1 0 0 1 515.649 696)">
   <path class="monochrome-0 multicolor-0:tintColor hierarchical-0:secondary SFSymbolsPreviewWireframe" d="M50.4517-78.3296C50.4517-79.6348 49.5327-80.1436 48.2822-79.2554L36.9277-71.2871C35.8828-70.6011 35.8862-69.6436 36.9277-68.9575L48.2857-60.9927C49.5327-60.1079 50.4517-60.6167 50.4517-61.9185ZM44.0606 1.97072C64.6118 1.97072 81.2886-14.7026 81.2886-35.2539C81.2886-55.8052 64.6153-72.4751 44.0117-72.4785C43.3267-72.4751 42.8926-71.9082 42.8926-71.356C42.8926-70.8037 43.3301-70.2334 44.0152-70.2334C63.4165-70.2334 79.04-54.6099 79.04-35.2539C79.04-15.898 63.4165-0.274438 44.0606-0.274438C24.7046-0.274438 9.0391-15.898 9.0391-35.2539C9.0391-48.1553 16.0176-59.4692 26.541-65.5068C27.0728-65.875 27.25-66.518 26.9443-67.0986C26.6875-67.5884 25.9648-67.7588 25.3286-67.3838C14.2598-60.9712 6.83594-48.9233 6.83594-35.2539C6.83594-14.7026 23.5127 1.97072 44.0606 1.97072Z" data-clipstroke-keyframes="0 0 0 1.7609242 1.7710835 0 0.19425215 1.8647497 1.6720719 0 0.47327742 1.0012788 1.5436678 0 0.736322 1.1327225 1.4201252 0 1 1.2644778 1.2962853"/>
   <path class="monochrome-1 multicolor-1:tintColor hierarchical-1:primary SFSymbolsPreviewWireframe" d="M43.5476-21.1491C44.177-21.1491 44.4752-21.4015 44.7176-22.061L53.8645-46.5049L53.9578-46.5049L63.1291-22.061C63.3571-21.4015 63.6696-21.1491 64.2846-21.1491C64.914-21.1491 65.3399-21.5405 65.3399-22.1499C65.3399-22.3578 65.2954-22.5557 65.1965-22.8181L55.4027-48.2721C55.149-48.9629 54.6674-49.3487 53.9233-49.3487C53.1793-49.3487 52.7077-48.9773 52.4496-48.2721L42.6602-22.8081C42.5713-22.5457 42.5268-22.3578 42.5268-22.1399C42.5268-21.5305 42.9182-21.1491 43.5476-21.1491ZM47.5228-30.2624L60.3295-30.2624C60.8443-30.2624 61.2457-30.6639 61.2457-31.1787C61.2457-31.689 60.8443-32.0948 60.3295-32.0948L47.5228-32.0948C47.0124-32.0948 46.6109-31.689 46.6109-31.1787C46.6109-30.6639 47.0124-30.2624 47.5228-30.2624Z"/>
   <path class="monochrome-2 multicolor-2:tintColor hierarchical-2:primary SFSymbolsPreviewWireframe" d="M23.8143-21.1491C24.3435-21.1491 24.666-21.4115 24.8683-22.0109L27.0126-27.8462L35.0882-27.8462L37.2324-22.0109C37.4547-21.3915 37.7629-21.1491 38.3108-21.1491C38.8914-21.1491 39.336-21.5305 39.336-22.0898C39.336-22.3421 39.2715-22.5701 39.1826-22.8325L32.4924-40.2529C32.2388-40.9481 31.7471-41.3108 31.0432-41.3108C30.3492-41.3108 29.882-40.9538 29.614-40.2529L22.9282-22.8325C22.8292-22.5902 22.7848-22.3522 22.7848-22.0898C22.7848-21.5205 23.2049-21.1491 23.8143-21.1491ZM27.6193-29.5458L30.9329-38.6195L31.1678-38.6195L34.4914-29.5458Z"/>
  </g>
 </g>
 <g id="Data">
  <g id="Black-S-draw-attachment-data" data-d="0 1 0 2938.09 626.156"/>
  <g id="Regular-S-draw-attachment-data" data-d="0 1 0 1454.92 625.421"/>
  <g id="Ultralight-S-draw-attachment-data" data-d="0 1 0 564.627 624.981"/>
 </g>
</svg>
