<?xml version="1.0" encoding="UTF-8"?>
<!--Generator: Apple Native CoreSVG 341-->
<!DOCTYPE svg
PUBLIC "-//W3C//DTD SVG 1.1//EN"
       "http://www.w3.org/Graphics/SVG/1.1/DTD/svg11.dtd">
<svg version="1.1" xmlns="http://www.w3.org/2000/svg" xmlns:xlink="http://www.w3.org/1999/xlink" viewBox="0 0 3300 2200">
 <!--glyph: "", point size: 100.0, font version: "21.1d1e1", template writer version: "138.0.0"-->
 <style>.defaults {-sfsymbols-wiggle-style:counterClockwise;-sfsymbols-rotates-clockwise:false;-sfsymbols-draw-reverses-motion-groups:true}

.monochrome-0 {-sfsymbols-motion-group:1;-sfsymbols-always-rotates:true;-sfsymbols-indices:0 1;-sfsymbols-layer-tags:-174cbd37ff819ce0 _enclosure.stroke arrow.trianglehead.counterclockwise;-sfsymbols-clipstroke-attachments:1 4 0 1 0 0}
.monochrome-1 {-sfsymbols-motion-group:0;-sfsymbols-always-pulses:true;-sfsymbols-layer-tags:-174cbd37ff819ce0}

.multicolor-0:tintColor {-sfsymbols-motion-group:1;-sfsymbols-always-rotates:true;-sfsymbols-indices:0 1;-sfsymbols-layer-tags:-174cbd37ff819ce0 _enclosure.stroke arrow.trianglehead.counterclockwise;-sfsymbols-clipstroke-attachments:1 4 0 1 0 0}
.multicolor-1:tintColor {-sfsymbols-motion-group:0;-sfsymbols-always-pulses:true;-sfsymbols-layer-tags:-174cbd37ff819ce0}

.hierarchical-0:secondary {-sfsymbols-motion-group:1;-sfsymbols-always-rotates:true;-sfsymbols-indices:0 1;-sfsymbols-layer-tags:-174cbd37ff819ce0 _enclosure.stroke arrow.trianglehead.counterclockwise;-sfsymbols-clipstroke-attachments:1 4 0 1 0 0}
.hierarchical-1:primary {-sfsymbols-motion-group:0;-sfsymbols-always-pulses:true;-sfsymbols-layer-tags:-174cbd37ff819ce0}

.shapeGroupLayer-0 {-sfsymbols-fill-action:draw;-sfsymbols-indices:2}
.shapeGroupLayer-1 {-sfsymbols-fill-action:erase;-sfsymbols-indices:3 4 5 6 7}

.SFSymbolsPreviewWireframe {fill:none;opacity:1.0;stroke:black;stroke-width:0.5}
</style>
 <g id="Notes">
  <rect height="2200" id="artboard" style="fill:white;opacity:1" width="3300" x="0" y="0"/>
  <line style="fill:none;stroke:black;opacity:1;stroke-width:0.5;" x1="263" x2="3036" y1="292" y2="292"/>
  <text style="stroke:none;fill:black;font-family:sans-serif;font-size:13;font-weight:bold;" transform="matrix(1 0 0 1 263 322)">Weight/Scale Variations</text>
  <text style="stroke:none;fill:black;font-family:sans-serif;font-size:13;text-anchor:middle;" transform="matrix(1 0 0 1 559.711 322)">Ultralight</text>
  <text style="stroke:none;fill:black;font-family:sans-serif;font-size:13;text-anchor:middle;" transform="matrix(1 0 0 1 856.422 322)">Thin</text>
  <text style="stroke:none;fill:black;font-family:sans-serif;font-size:13;text-anchor:middle;" transform="matrix(1 0 0 1 1153.13 322)">Light</text>
  <text style="stroke:none;fill:black;font-family:sans-serif;font-size:13;text-anchor:middle;" transform="matrix(1 0 0 1 1449.84 322)">Regular</text>
  <text style="stroke:none;fill:black;font-family:sans-serif;font-size:13;text-anchor:middle;" transform="matrix(1 0 0 1 1746.56 322)">Medium</text>
  <text style="stroke:none;fill:black;font-family:sans-serif;font-size:13;text-anchor:middle;" transform="matrix(1 0 0 1 2043.27 322)">Semibold</text>
  <text style="stroke:none;fill:black;font-family:sans-serif;font-size:13;text-anchor:middle;" transform="matrix(1 0 0 1 2339.98 322)">Bold</text>
  <text style="stroke:none;fill:black;font-family:sans-serif;font-size:13;text-anchor:middle;" transform="matrix(1 0 0 1 2636.69 322)">Heavy</text>
  <text style="stroke:none;fill:black;font-family:sans-serif;font-size:13;text-anchor:middle;" transform="matrix(1 0 0 1 2933.4 322)">Black</text>
  <line style="fill:none;stroke:black;opacity:1;stroke-width:0.5;" x1="263" x2="3036" y1="1903" y2="1903"/>
  <g transform="matrix(0.2 0 0 0.2 263 1933)">
   <path d="m46.2402 4.15039c21.7773 0 39.4531-17.627 39.4531-39.4043s-17.6758-39.4043-39.4531-39.4043c-21.7285 0-39.4043 17.627-39.4043 39.4043s17.6758 39.4043 39.4043 39.4043Zm0-7.42188c-17.6758 0-31.9336-14.3066-31.9336-31.9824s14.2578-31.9824 31.9336-31.9824 31.9824 14.3066 31.9824 31.9824-14.3066 31.9824-31.9824 31.9824Zm3.61328-17.7734v-28.4668c0-2.24609-1.46484-3.75977-3.71094-3.75977-2.14844 0-3.61328 1.51367-3.61328 3.75977v28.4668c0 2.19727 1.46484 3.71094 3.61328 3.71094 2.24609 0 3.71094-1.51367 3.71094-3.71094Zm-17.8223-10.5957h28.418c2.19727 0 3.71094-1.46484 3.71094-3.61328 0-2.19727-1.51367-3.71094-3.71094-3.71094h-28.418c-2.24609 0-3.75977 1.51367-3.75977 3.71094 0 2.14844 1.51367 3.61328 3.75977 3.61328Z"/>
  </g>
  <g transform="matrix(0.2 0 0 0.2 281.506 1933)">
   <path d="m58.5449 14.5508c27.4902 0 49.8047-22.3145 49.8047-49.8047s-22.3145-49.8047-49.8047-49.8047-49.8047 22.3145-49.8047 49.8047 22.3145 49.8047 49.8047 49.8047Zm0-8.30078c-22.9492 0-41.5039-18.5547-41.5039-41.5039s18.5547-41.5039 41.5039-41.5039 41.5039 18.5547 41.5039 41.5039-18.5547 41.5039-41.5039 41.5039Zm4.05273-23.0957v-36.9141c0-2.49023-1.70898-4.19922-4.15039-4.19922-2.39258 0-4.05273 1.70898-4.05273 4.19922v36.9141c0 2.44141 1.66016 4.15039 4.05273 4.15039 2.44141 0 4.15039-1.66016 4.15039-4.15039Zm-22.5586-14.4043h36.9629c2.44141 0 4.15039-1.61133 4.15039-4.00391 0-2.44141-1.70898-4.15039-4.15039-4.15039h-36.9629c-2.49023 0-4.15039 1.70898-4.15039 4.15039 0 2.39258 1.66016 4.00391 4.15039 4.00391Z"/>
  </g>
  <g transform="matrix(0.2 0 0 0.2 304.924 1933)">
   <path d="m74.8535 28.3203c35.1074 0 63.623-28.4668 63.623-63.5742s-28.5156-63.623-63.623-63.623-63.5742 28.5156-63.5742 63.623 28.4668 63.5742 63.5742 63.5742Zm0-9.08203c-30.127 0-54.4922-24.3652-54.4922-54.4922s24.3652-54.4922 54.4922-54.4922 54.4922 24.3652 54.4922 54.4922-24.3652 54.4922-54.4922 54.4922Zm4.44336-30.3223v-48.4863c0-2.73438-1.85547-4.63867-4.54102-4.63867-2.58789 0-4.44336 1.9043-4.44336 4.63867v48.4863c0 2.68555 1.85547 4.58984 4.44336 4.58984 2.68555 0 4.54102-1.85547 4.54102-4.58984Zm-28.7109-19.7754h48.4863c2.68555 0 4.58984-1.80664 4.58984-4.39453 0-2.73438-1.85547-4.58984-4.58984-4.58984h-48.4863c-2.73438 0-4.58984 1.85547-4.58984 4.58984 0 2.58789 1.85547 4.39453 4.58984 4.39453Z"/>
  </g>
  <text style="stroke:none;fill:black;font-family:sans-serif;font-size:13;font-weight:bold;" transform="matrix(1 0 0 1 263 1953)">Design Variations</text>
  <text style="stroke:none;fill:black;font-family:sans-serif;font-size:13;" transform="matrix(1 0 0 1 263 1971)">Symbols are supported in up to nine weights and three scales.</text>
  <text style="stroke:none;fill:black;font-family:sans-serif;font-size:13;" transform="matrix(1 0 0 1 263 1989)">For optimal layout with text and other symbols, vertically align</text>
  <text style="stroke:none;fill:black;font-family:sans-serif;font-size:13;" transform="matrix(1 0 0 1 263 2007)">symbols with the adjacent text.</text>
  <line style="fill:none;stroke:#00AEEF;stroke-width:0.5;opacity:1.0;" x1="776" x2="776" y1="1919" y2="1933"/>
  <g transform="matrix(0.2 0 0 0.2 776 1933)">
   <path d="m16.5527 0.78125c2.58789 0 3.85742-0.976562 4.78516-3.71094l20.5566-57.5195h0.244141l20.6055 57.5195c0.927734 2.73438 2.19727 3.71094 4.73633 3.71094 2.58789 0 4.24805-1.5625 4.24805-4.00391 0-0.830078-0.146484-1.61133-0.537109-2.63672l-22.9004-60.9863c-1.12305-2.97852-3.125-4.49219-6.25-4.49219-3.02734 0-5.07812 1.46484-6.15234 4.44336l-22.9004 61.084c-0.390625 1.02539-0.537109 1.80664-0.537109 2.63672 0 2.44141 1.5625 3.95508 4.10156 3.95508Zm10.2051-20.9473h30.6641c2.00195 0 3.66211-1.66016 3.66211-3.66211 0-2.05078-1.66016-3.66211-3.66211-3.66211h-30.6641c-2.00195 0-3.66211 1.61133-3.66211 3.66211 0 2.00195 1.66016 3.66211 3.66211 3.66211Z"/>
  </g>
  <line style="fill:none;stroke:#00AEEF;stroke-width:0.5;opacity:1.0;" x1="792.836" x2="792.836" y1="1919" y2="1933"/>
  <text style="stroke:none;fill:black;font-family:sans-serif;font-size:13;font-weight:bold;" transform="matrix(1 0 0 1 776 1953)">Margins</text>
  <text style="stroke:none;fill:black;font-family:sans-serif;font-size:13;" transform="matrix(1 0 0 1 776 1971)">Leading and trailing margins on the left and right side of each symbol</text>
  <text style="stroke:none;fill:black;font-family:sans-serif;font-size:13;" transform="matrix(1 0 0 1 776 1989)">can be adjusted by modifying the x-location of the margin guidelines.</text>
  <text style="stroke:none;fill:black;font-family:sans-serif;font-size:13;" transform="matrix(1 0 0 1 776 2007)">Modifications are automatically applied proportionally to all</text>
  <text style="stroke:none;fill:black;font-family:sans-serif;font-size:13;" transform="matrix(1 0 0 1 776 2025)">scales and weights.</text>
  <g transform="matrix(0.2 0 0 0.2 1289 1933)">
   <path d="m14.209 13.1348 7.86133 7.86133c4.29688 4.39453 9.32617 4.10156 13.8672-1.02539l60.6934-68.2129-4.88281-4.88281-60.2539 67.6758c-1.80664 1.95312-3.4668 2.44141-5.81055 0.0976562l-5.17578-5.12695c-2.29492-2.29492-1.80664-3.95508 0.195312-5.81055l67.4805-62.1582-4.88281-4.83398-68.0664 62.5977c-4.98047 4.58984-5.32227 9.47266-1.02539 13.8184Zm44.873-97.4609c-2.05078 2.00195-2.24609 4.88281-1.07422 6.78711 1.12305 1.80664 3.4668 3.02734 6.5918 2.24609 5.85938-1.66016 12.5977-2.39258 18.8965 0.927734l-2.68555 7.12891c-1.61133 4.00391-0.732422 6.88477 1.70898 9.42383l10.2539 10.3027c2.34375 2.39258 4.54102 2.44141 7.08008 1.95312l4.44336-0.732422 2.58789 2.53906-0.195312 2.24609c-0.0976562 2.29492 0.537109 4.29688 2.7832 6.49414l3.36914 3.32031c2.29492 2.29492 5.51758 2.49023 7.8125 0.195312l12.9883-13.0371c2.29492-2.34375 2.14844-5.37109-0.195312-7.66602l-3.41797-3.41797c-2.19727-2.19727-4.05273-3.02734-6.34766-2.88086l-2.34375 0.244141-2.44141-2.44141 1.02539-4.6875c0.634766-2.73438-0.244141-4.98047-2.88086-7.61719l-11.2793-11.1816c-12.9395-12.8418-35.5957-11.0352-46.6797-0.146484Zm7.08008 2.05078c8.78906-6.39648 25.9766-5.66406 33.6914 1.95312l12.3047 12.207c1.02539 1.02539 1.2207 1.80664 0.927734 3.32031l-1.46484 6.64062 6.73828 6.68945 4.39453-0.244141c1.12305-0.0488281 1.51367 0.0488281 2.34375 0.878906l2.53906 2.49023-10.8398 10.8398-2.49023-2.49023c-0.830078-0.878906-0.976562-1.2207-0.927734-2.39258l0.292969-4.3457-6.68945-6.73828-6.83594 1.17188c-1.41602 0.292969-2.05078 0.195312-3.17383-0.878906l-8.93555-8.88672c-1.07422-1.02539-1.17188-1.70898-0.488281-3.36914l4.58984-11.4746c-6.10352-6.34766-17.041-7.51953-25.5859-4.58984-0.683594 0.244141-0.927734-0.390625-0.390625-0.78125Z"/>
  </g>
  <text style="stroke:none;fill:black;font-family:sans-serif;font-size:13;font-weight:bold;" transform="matrix(1 0 0 1 1289 1953)">Exporting</text>
  <text style="stroke:none;fill:black;font-family:sans-serif;font-size:13;" transform="matrix(1 0 0 1 1289 1971)">Symbols should be outlined when exporting to ensure the</text>
  <text style="stroke:none;fill:black;font-family:sans-serif;font-size:13;" transform="matrix(1 0 0 1 1289 1989)">design is preserved when submitting to Xcode.</text>
  <text id="template-version" style="stroke:none;fill:black;font-family:sans-serif;font-size:13;text-anchor:end;" transform="matrix(1 0 0 1 3036 1933)">Template v.7.0</text>
  <text style="stroke:none;fill:black;font-family:sans-serif;font-size:13;text-anchor:end;" transform="matrix(1 0 0 1 3036 1951)">Requires Xcode 26 or greater</text>
  <text id="descriptive-name" style="stroke:none;fill:black;font-family:sans-serif;font-size:13;text-anchor:end;" transform="matrix(1 0 0 1 3036 1969)">Generated from arrow.trianglehead.counterclockwise</text>
  <text style="stroke:none;fill:black;font-family:sans-serif;font-size:13;text-anchor:end;" transform="matrix(1 0 0 1 3036 1987)">Typeset at 100.0 points</text>
  <text style="stroke:none;fill:black;font-family:sans-serif;font-size:13;" transform="matrix(1 0 0 1 263 726)">Small</text>
  <text style="stroke:none;fill:black;font-family:sans-serif;font-size:13;" transform="matrix(1 0 0 1 263 1156)">Medium</text>
  <text style="stroke:none;fill:black;font-family:sans-serif;font-size:13;" transform="matrix(1 0 0 1 263 1586)">Large</text>
 </g>
 <g id="Guides">
  <g id="H-reference" style="fill:#27AAE1;stroke:none;" transform="matrix(1 0 0 1 339 696)">
   <path d="M0.993654 0L3.63775 0L29.3281-67.1323L30.0303-67.1323L30.0303-70.459L28.1226-70.459ZM11.6885-24.4799L46.9815-24.4799L46.2315-26.7285L12.4385-26.7285ZM55.1196 0L57.7637 0L30.6382-70.459L29.4326-70.459L29.4326-67.1323Z"/>
  </g>
  <line id="Baseline-S" style="fill:none;stroke:#27AAE1;opacity:1;stroke-width:0.5;" x1="263" x2="3036" y1="696" y2="696"/>
  <line id="Capline-S" style="fill:none;stroke:#27AAE1;opacity:1;stroke-width:0.5;" x1="263" x2="3036" y1="625.541" y2="625.541"/>
  <g id="H-reference" style="fill:#27AAE1;stroke:none;" transform="matrix(1 0 0 1 339 1126)">
   <path d="M0.993654 0L3.63775 0L29.3281-67.1323L30.0303-67.1323L30.0303-70.459L28.1226-70.459ZM11.6885-24.4799L46.9815-24.4799L46.2315-26.7285L12.4385-26.7285ZM55.1196 0L57.7637 0L30.6382-70.459L29.4326-70.459L29.4326-67.1323Z"/>
  </g>
  <line id="Baseline-M" style="fill:none;stroke:#27AAE1;opacity:1;stroke-width:0.5;" x1="263" x2="3036" y1="1126" y2="1126"/>
  <line id="Capline-M" style="fill:none;stroke:#27AAE1;opacity:1;stroke-width:0.5;" x1="263" x2="3036" y1="1055.54" y2="1055.54"/>
  <g id="H-reference" style="fill:#27AAE1;stroke:none;" transform="matrix(1 0 0 1 339 1556)">
   <path d="M0.993654 0L3.63775 0L29.3281-67.1323L30.0303-67.1323L30.0303-70.459L28.1226-70.459ZM11.6885-24.4799L46.9815-24.4799L46.2315-26.7285L12.4385-26.7285ZM55.1196 0L57.7637 0L30.6382-70.459L29.4326-70.459L29.4326-67.1323Z"/>
  </g>
  <line id="Baseline-L" style="fill:none;stroke:#27AAE1;opacity:1;stroke-width:0.5;" x1="263" x2="3036" y1="1556" y2="1556"/>
  <line id="Capline-L" style="fill:none;stroke:#27AAE1;opacity:1;stroke-width:0.5;" x1="263" x2="3036" y1="1485.54" y2="1485.54"/>
  <line id="right-margin-Black-S" style="fill:none;stroke:#00AEEF;stroke-width:0.5;opacity:1.0;" x1="2982.23" x2="2982.23" y1="600.785" y2="720.121"/>
  <line id="left-margin-Black-S" style="fill:none;stroke:#00AEEF;stroke-width:0.5;opacity:1.0;" x1="2884.57" x2="2884.57" y1="600.785" y2="720.121"/>
  <line id="right-margin-Regular-S" style="fill:none;stroke:#00AEEF;stroke-width:0.5;opacity:1.0;" x1="1496.11" x2="1496.11" y1="600.785" y2="720.121"/>
  <line id="left-margin-Regular-S" style="fill:none;stroke:#00AEEF;stroke-width:0.5;opacity:1.0;" x1="1403.58" x2="1403.58" y1="600.785" y2="720.121"/>
  <line id="right-margin-Ultralight-S" style="fill:none;stroke:#00AEEF;stroke-width:0.5;opacity:1.0;" x1="603.773" x2="603.773" y1="600.785" y2="720.121"/>
  <line id="left-margin-Ultralight-S" style="fill:none;stroke:#00AEEF;stroke-width:0.5;opacity:1.0;" x1="515.649" x2="515.649" y1="600.785" y2="720.121"/>
 </g>
 <g id="Symbols">
  <g id="Black-S" transform="matrix(1 0 0 1 2884.57 696)">
   <path class="SFSymbolsPreviewWireframe" d="M58.0566-80.2246C58.0566-83.5938 54.6387-84.4238 52.3926-82.6172L39.1602-72.1191C37.6953-70.9961 37.6953-68.75 39.1602-67.5781L52.3926-57.1289C54.6387-55.3711 58.0566-56.1523 58.0566-59.4727ZM48.8281 6.73828C72.0215 6.73828 90.8203-12.1094 90.8203-35.2539C90.8203-58.4473 72.0215-77.2461 48.7305-77.2461C44.8242-77.2461 41.6504-74.0723 41.6504-70.166C41.6504-66.2598 44.8242-63.0859 48.7305-63.0859C64.209-63.0859 76.6602-50.6348 76.6602-35.2539C76.6602-19.873 64.209-7.42188 48.8281-7.42188C33.4473-7.42188 20.9961-19.873 20.9961-35.2539C20.9961-42.4805 23.4863-48.4863 28.2227-53.9551C31.1035-57.3242 32.0801-61.5723 28.9062-64.7461C26.123-67.5293 21.7285-67.627 18.1641-63.916C10.5469-55.957 6.83594-45.2637 6.83594-35.2539C6.83594-12.1094 25.6348 6.73828 48.8281 6.73828ZM40.4683-11.9563C41.5655-11.9563 42.5376-12.3421 43.8907-13.5002L51.4591-20.0147L61.9519-20.0147C68.1864-20.0147 72.4633-24.2809 72.4633-30.5274L72.4633-46.3174C72.4633-52.5639 68.1864-56.8286 61.9519-56.8286L35.7096-56.8286C29.4751-56.8286 25.1984-52.5579 25.1984-46.3174L25.1984-30.5274C25.1984-24.2869 30.0536-20.0147 34.8419-20.0147L37.8396-20.0147L37.8396-14.7908C37.8396-13.0231 38.856-11.9563 40.4683-11.9563ZM37.1303-35.9603C35.9891-35.9603 35.0095-37.0556 35.0095-38.2502C35.0095-39.4218 35.9602-40.4867 37.1303-40.4867L41.7528-40.4867C43.0097-40.4867 43.9589-39.4507 43.9589-38.2502C43.9589-37.0556 43.0097-35.9603 41.7528-35.9603ZM46.4914-35.9603C45.3502-35.9603 44.3705-37.0556 44.3705-38.2502C44.3705-39.4218 45.3213-40.4867 46.4914-40.4867L60.4459-40.4867C61.6738-40.4867 62.652-39.4507 62.652-38.2502C62.652-37.0556 61.6738-35.9603 60.4459-35.9603ZM37.1303-30.2014C35.9891-30.2014 35.0095-31.2997 35.0095-32.4379C35.0095-33.6644 35.9602-34.7308 37.1303-34.7308L39.6716-34.7308C40.8995-34.7308 41.8792-33.6933 41.8792-32.4379C41.8792-31.2997 40.8995-30.2014 39.6716-30.2014ZM44.4116-30.2014C43.2704-30.2014 42.2908-31.2997 42.2908-32.4379C42.2908-33.6644 43.2415-34.7308 44.4116-34.7308L51.7092-34.7308C52.9083-34.7308 53.9168-33.6933 53.9168-32.4379C53.9168-31.2997 52.9083-30.2014 51.7092-30.2014ZM56.4189-30.2014C55.2777-30.2014 54.298-31.2997 54.298-32.4379C54.298-33.6644 55.2488-34.7308 56.4189-34.7308L60.4459-34.7308C61.6449-34.7308 62.652-33.6933 62.652-32.4379C62.652-31.2997 61.6449-30.2014 60.4459-30.2014Z" data-clipstroke-keyframes="0 0 0 1.7152376 1.7728873 0 0.16665044 1.8491018 1.6653684 0 0.4767699 1.0014274 1.5643885 0 0.73794615 1.148074 1.467178 0 1 1.2952926 1.3696408"/>
  </g>
  <g id="Regular-S" transform="matrix(1 0 0 1 1403.58 696)">
   <path class="SFSymbolsPreviewWireframe" d="M53.8574-79.1016C53.8574-82.1777 51.7578-82.959 49.4629-81.2988L37.1094-72.5586C35.1562-71.1914 35.2051-69.1895 37.1094-67.8223L49.5117-59.1309C51.7578-57.5195 53.8574-58.3008 53.8574-61.3281ZM46.2402 4.15039C68.0176 4.15039 85.6934-13.4766 85.6934-35.2539C85.6934-57.0312 68.0664-74.6094 46.1914-74.6582C44.1895-74.6094 42.5293-72.998 42.5293-70.9473C42.5293-68.8965 44.2383-67.2363 46.2402-67.2363C63.916-67.2363 78.2227-52.9297 78.2227-35.2539C78.2227-17.5781 63.916-3.27148 46.2402-3.27148C28.5645-3.27148 14.3066-17.5781 14.3066-35.2539C14.3066-45.7031 19.2871-54.8828 26.9043-60.6934C28.6621-62.0605 29.248-64.1113 28.125-65.918C27.0508-67.7246 24.5117-68.2129 22.5586-66.748C12.9883-59.4727 6.83594-48.2422 6.83594-35.2539C6.83594-13.4766 24.5117 4.15039 46.2402 4.15039ZM37.2567-12.9879C38.2213-12.9879 38.9739-13.4088 40.1483-14.4582L47.3332-20.9114L58.7907-20.9114C64.9199-20.9114 68.5491-24.579 68.5491-30.6559L68.5491-45.4885C68.5491-51.5654 64.9199-55.2469 58.7907-55.2469L33.7434-55.2469C27.6142-55.2469 23.985-51.5621 23.985-45.4885L23.985-30.6559C23.985-24.5823 27.8568-20.9114 33.3795-20.9114L35.0163-20.9114L35.0163-15.4734C35.0163-13.9543 35.8594-12.9879 37.2567-12.9879ZM34.3207-35.7928C33.4241-35.7928 32.6822-36.5832 32.6822-37.5164C32.6822-38.4111 33.412-39.2034 34.3207-39.2034L40.8175-39.2034C41.7626-39.2034 42.5063-38.4233 42.5063-37.5164C42.5063-36.5832 41.7626-35.7928 40.8175-35.7928ZM45.0911-35.7928C44.1945-35.7928 43.4525-36.5832 43.4525-37.5164C43.4525-38.4111 44.1823-39.2034 45.0911-39.2034L58.1631-39.2034C59.096-39.2034 59.8519-38.4233 59.8519-37.5164C59.8519-36.5832 59.096-35.7928 58.1631-35.7928ZM34.3207-30.2402C33.4241-30.2402 32.6822-31.0323 32.6822-31.9272C32.6822-32.8741 33.412-33.6525 34.3207-33.6525L37.311-33.6525C38.244-33.6525 38.9859-32.8862 38.9859-31.9272C38.9859-31.0323 38.244-30.2402 37.311-30.2402ZM41.5706-30.2402C40.6741-30.2402 39.9321-31.0323 39.9321-31.9272C39.9321-32.8741 40.662-33.6525 41.5706-33.6525L50.2895-33.6525C51.2104-33.6525 51.9645-32.8862 51.9645-31.9272C51.9645-31.0323 51.2104-30.2402 50.2895-30.2402ZM54.551-30.2402C53.6544-30.2402 52.9124-31.0323 52.9124-31.9272C52.9124-32.8741 53.6423-33.6525 54.551-33.6525L58.1631-33.6525C59.0839-33.6525 59.8519-32.8862 59.8519-31.9272C59.8519-31.0323 59.0839-30.2402 58.1631-30.2402Z" data-clipstroke-keyframes="0 0 0 1.7399985 1.7701907 0 0.18615787 1.8580871 1.6687284 0 0.47438353 1.0013447 1.5525093 0 0.73694307 1.1392022 1.4406793 0 1 1.2773557 1.3286372"/>
  </g>
  <g id="Ultralight-S" transform="matrix(1 0 0 1 515.649 696)">
   <path class="SFSymbolsPreviewWireframe" d="M50.4517-78.3296C50.4517-79.6348 49.5327-80.1436 48.2822-79.2554L36.9277-71.2871C35.8828-70.6011 35.8862-69.6436 36.9277-68.9575L48.2857-60.9927C49.5327-60.1079 50.4517-60.6167 50.4517-61.9185ZM44.0606 1.97072C64.6118 1.97072 81.2886-14.7026 81.2886-35.2539C81.2886-55.8052 64.6153-72.4751 44.0117-72.4785C43.3267-72.4751 42.8926-71.9082 42.8926-71.356C42.8926-70.8037 43.3301-70.2334 44.0152-70.2334C63.4165-70.2334 79.04-54.6099 79.04-35.2539C79.04-15.898 63.4165-0.274438 44.0606-0.274438C24.7046-0.274438 9.0391-15.898 9.0391-35.2539C9.0391-48.1553 16.0176-59.4692 26.541-65.5068C27.0728-65.875 27.25-66.518 26.9443-67.0986C26.6875-67.5884 25.9648-67.7588 25.3286-67.3838C14.2598-60.9712 6.83594-48.9233 6.83594-35.2539C6.83594-14.7026 23.5127 1.97072 44.0606 1.97072ZM33.8416-14.9042C34.3651-14.9042 34.7639-15.1853 35.3289-15.7058L42.2668-21.8145L56.8683-21.8145C61.7805-21.8145 64.6565-24.7493 64.6565-29.5926L64.6565-45.3702C64.6565-50.2135 61.7805-53.1584 56.8683-53.1584L31.2581-53.1584C26.3459-53.1584 23.4699-50.2423 23.4699-45.3702L23.4699-29.5926C23.4699-24.7205 26.3459-21.8145 31.2581-21.8145L32.6324-21.8145L32.6324-16.2668C32.6324-15.4377 33.1102-14.9042 33.8416-14.9042ZM30.8207-35.3114C30.3861-35.3114 30.0261-35.6714 30.0261-36.1304C30.0261-36.555 30.3861-36.9251 30.8207-36.9251L39.5123-36.9251C39.9469-36.9251 40.317-36.555 40.317-36.1304C40.317-35.6714 39.9469-35.3114 39.5123-35.3114ZM43.8703-35.3114C43.4357-35.3114 43.0756-35.6714 43.0756-36.1304C43.0756-36.555 43.4357-36.9251 43.8703-36.9251L57.2956-36.9251C57.7302-36.9251 58.1003-36.555 58.1003-36.1304C58.1003-35.6714 57.7302-35.3114 57.2956-35.3114ZM30.8207-30.6886C30.3861-30.6886 30.0261-31.0342 30.0261-31.4832C30.0261-31.9279 30.3861-32.2879 30.8207-32.2879L34.2705-32.2879C34.7051-32.2879 35.0652-31.9279 35.0652-31.4832C35.0652-31.0342 34.7051-30.6886 34.2705-30.6886ZM38.6185-30.6886C38.1839-30.6886 37.8239-31.0342 37.8239-31.4832C37.8239-31.9279 38.1839-32.2879 38.6185-32.2879L48.8446-32.2879C49.2792-32.2879 49.6393-31.9279 49.6393-31.4832C49.6393-31.0342 49.2792-30.6886 48.8446-30.6886ZM53.2026-30.6886C52.768-30.6886 52.408-31.0342 52.408-31.4832C52.408-31.9279 52.768-32.2879 53.2026-32.2879L57.2956-32.2879C57.7302-32.2879 58.1003-31.9279 58.1003-31.4832C58.1003-31.0342 57.7302-30.6886 57.2956-30.6886Z" data-clipstroke-keyframes="0 0 0 1.7609242 1.7710835 0 0.19425215 1.8647497 1.6720719 0 0.47327742 1.0012788 1.5436678 0 0.736322 1.1327225 1.4201252 0 1 1.2644778 1.2962853"/>
  </g>
 </g>
 <g id="Data">
  <g id="Black-S-draw-attachment-data" data-d="0 1 0 2938.09 626.156"/>
  <g id="Regular-S-draw-attachment-data" data-d="0 1 0 1454.92 625.421"/>
  <g id="Ultralight-S-draw-attachment-data" data-d="0 1 0 564.627 624.981"/>
 </g>
 <g id="LayerTree">
  <g class="monochrome-0 multicolor-0:tintColor hierarchical-0:secondary"/>
  <g class="monochrome-1 multicolor-1:tintColor hierarchical-1:primary">
   <g class="shapeGroupLayer-0"/>
   <g class="shapeGroupLayer-1"/>
  </g>
 </g>
</svg>
