<?xml version="1.0" encoding="UTF-8"?>
<!--Generator: Apple Native CoreSVG 360-->
<!DOCTYPE svg
PUBLIC "-//W3C//DTD SVG 1.1//EN"
       "http://www.w3.org/Graphics/SVG/1.1/DTD/svg11.dtd">
<svg version="1.1" xmlns="http://www.w3.org/2000/svg" xmlns:xlink="http://www.w3.org/1999/xlink" viewBox="0 0 3300 2200">
 <!--glyph: "", point size: 100.0, font version: "22.0d4e4", template writer version: "138.0.0"-->
 <style>.defaults {-sfsymbols-variable-value-mode:color;-sfsymbols-draw-reverses-motion-groups:false}

.monochrome-0 {-sfsymbols-motion-group:1;-sfsymbols-layer-tags:-4eca3c3e2acaa600 _enclosure.fill rectangle}
.monochrome-1 {opacity:0.0;-sfsymbols-clear-behind:true;-sfsymbols-motion-group:0;-sfsymbols-always-pulses:true;-sfsymbols-layer-tags:-19bea623e3a822de -4eca3c3e2acaa600 repeat.1}
.monochrome-2 {opacity:0.0;-sfsymbols-clear-behind:true;-sfsymbols-motion-group:0;-sfsymbols-always-pulses:true;-sfsymbols-layer-tags:-19bea623e3a822de -4eca3c3e2acaa600 repeat.1}

.multicolor-0:tintColor {-sfsymbols-motion-group:1;-sfsymbols-layer-tags:-4eca3c3e2acaa600 _enclosure.fill rectangle}
.multicolor-1:white {-sfsymbols-motion-group:0;-sfsymbols-always-pulses:true;-sfsymbols-layer-tags:-19bea623e3a822de -4eca3c3e2acaa600 repeat.1}
.multicolor-2:white {-sfsymbols-motion-group:0;-sfsymbols-always-pulses:true;-sfsymbols-layer-tags:-19bea623e3a822de -4eca3c3e2acaa600 repeat.1}

.hierarchical-0:tertiary {-sfsymbols-motion-group:1;-sfsymbols-layer-tags:-4eca3c3e2acaa600 _enclosure.fill rectangle}
.hierarchical-1:primary {-sfsymbols-motion-group:0;-sfsymbols-always-pulses:true;-sfsymbols-layer-tags:-19bea623e3a822de -4eca3c3e2acaa600 repeat.1}
.hierarchical-2:primary {-sfsymbols-motion-group:0;-sfsymbols-always-pulses:true;-sfsymbols-layer-tags:-19bea623e3a822de -4eca3c3e2acaa600 repeat.1}

.SFSymbolsPreviewWireframe {fill:none;opacity:1.0;stroke:black;stroke-width:0.5}
</style>
 <g id="Notes">
  <rect height="2200" id="artboard" style="fill:white;opacity:1" width="3300" x="0" y="0"/>
  <line style="fill:none;stroke:black;opacity:1;stroke-width:0.5;" x1="263" x2="3036" y1="292" y2="292"/>
  <text style="stroke:none;fill:black;font-family:sans-serif;font-size:13;font-weight:bold;" transform="matrix(1 0 0 1 263 322)">Weight/Scale Variations</text>
  <text style="stroke:none;fill:black;font-family:sans-serif;font-size:13;text-anchor:middle;" transform="matrix(1 0 0 1 559.711 322)">Ultralight</text>
  <text style="stroke:none;fill:black;font-family:sans-serif;font-size:13;text-anchor:middle;" transform="matrix(1 0 0 1 856.422 322)">Thin</text>
  <text style="stroke:none;fill:black;font-family:sans-serif;font-size:13;text-anchor:middle;" transform="matrix(1 0 0 1 1153.13 322)">Light</text>
  <text style="stroke:none;fill:black;font-family:sans-serif;font-size:13;text-anchor:middle;" transform="matrix(1 0 0 1 1449.84 322)">Regular</text>
  <text style="stroke:none;fill:black;font-family:sans-serif;font-size:13;text-anchor:middle;" transform="matrix(1 0 0 1 1746.56 322)">Medium</text>
  <text style="stroke:none;fill:black;font-family:sans-serif;font-size:13;text-anchor:middle;" transform="matrix(1 0 0 1 2043.27 322)">Semibold</text>
  <text style="stroke:none;fill:black;font-family:sans-serif;font-size:13;text-anchor:middle;" transform="matrix(1 0 0 1 2339.98 322)">Bold</text>
  <text style="stroke:none;fill:black;font-family:sans-serif;font-size:13;text-anchor:middle;" transform="matrix(1 0 0 1 2636.69 322)">Heavy</text>
  <text style="stroke:none;fill:black;font-family:sans-serif;font-size:13;text-anchor:middle;" transform="matrix(1 0 0 1 2933.4 322)">Black</text>
  <line style="fill:none;stroke:black;opacity:1;stroke-width:0.5;" x1="263" x2="3036" y1="1903" y2="1903"/>
  <g transform="matrix(0.2 0 0 0.2 263 1933)">
   <path d="m46.2402 4.15039c21.7773 0 39.4531-17.627 39.4531-39.4043s-17.6758-39.4043-39.4531-39.4043c-21.7285 0-39.4043 17.627-39.4043 39.4043s17.6758 39.4043 39.4043 39.4043Zm0-7.42188c-17.6758 0-31.9336-14.3066-31.9336-31.9824s14.2578-31.9824 31.9336-31.9824 31.9824 14.3066 31.9824 31.9824-14.3066 31.9824-31.9824 31.9824Zm3.61328-17.7734v-28.4668c0-2.24609-1.46484-3.75977-3.71094-3.75977-2.14844 0-3.61328 1.51367-3.61328 3.75977v28.4668c0 2.19727 1.46484 3.71094 3.61328 3.71094 2.24609 0 3.71094-1.51367 3.71094-3.71094Zm-17.8223-10.5957h28.418c2.19727 0 3.71094-1.46484 3.71094-3.61328 0-2.19727-1.51367-3.71094-3.71094-3.71094h-28.418c-2.24609 0-3.75977 1.51367-3.75977 3.71094 0 2.14844 1.51367 3.61328 3.75977 3.61328Z"/>
  </g>
  <g transform="matrix(0.2 0 0 0.2 281.506 1933)">
   <path d="m58.5449 14.5508c27.4902 0 49.8047-22.3145 49.8047-49.8047s-22.3145-49.8047-49.8047-49.8047-49.8047 22.3145-49.8047 49.8047 22.3145 49.8047 49.8047 49.8047Zm0-8.30078c-22.9492 0-41.5039-18.5547-41.5039-41.5039s18.5547-41.5039 41.5039-41.5039 41.5039 18.5547 41.5039 41.5039-18.5547 41.5039-41.5039 41.5039Zm4.05273-23.0957v-36.9141c0-2.49023-1.70898-4.19922-4.15039-4.19922-2.39258 0-4.05273 1.70898-4.05273 4.19922v36.9141c0 2.44141 1.66016 4.15039 4.05273 4.15039 2.44141 0 4.15039-1.66016 4.15039-4.15039Zm-22.5586-14.4043h36.9629c2.44141 0 4.15039-1.61133 4.15039-4.00391 0-2.44141-1.70898-4.15039-4.15039-4.15039h-36.9629c-2.49023 0-4.15039 1.70898-4.15039 4.15039 0 2.39258 1.66016 4.00391 4.15039 4.00391Z"/>
  </g>
  <g transform="matrix(0.2 0 0 0.2 304.924 1933)">
   <path d="m74.8535 28.3203c35.1074 0 63.623-28.4668 63.623-63.5742s-28.5156-63.623-63.623-63.623-63.5742 28.5156-63.5742 63.623 28.4668 63.5742 63.5742 63.5742Zm0-9.08203c-30.127 0-54.4922-24.3652-54.4922-54.4922s24.3652-54.4922 54.4922-54.4922 54.4922 24.3652 54.4922 54.4922-24.3652 54.4922-54.4922 54.4922Zm4.44336-30.3223v-48.4863c0-2.73438-1.85547-4.63867-4.54102-4.63867-2.58789 0-4.44336 1.9043-4.44336 4.63867v48.4863c0 2.68555 1.85547 4.58984 4.44336 4.58984 2.68555 0 4.54102-1.85547 4.54102-4.58984Zm-28.7109-19.7754h48.4863c2.68555 0 4.58984-1.80664 4.58984-4.39453 0-2.73438-1.85547-4.58984-4.58984-4.58984h-48.4863c-2.73438 0-4.58984 1.85547-4.58984 4.58984 0 2.58789 1.85547 4.39453 4.58984 4.39453Z"/>
  </g>
  <text style="stroke:none;fill:black;font-family:sans-serif;font-size:13;font-weight:bold;" transform="matrix(1 0 0 1 263 1953)">Design Variations</text>
  <text style="stroke:none;fill:black;font-family:sans-serif;font-size:13;" transform="matrix(1 0 0 1 263 1971)">Symbols are supported in up to nine weights and three scales.</text>
  <text style="stroke:none;fill:black;font-family:sans-serif;font-size:13;" transform="matrix(1 0 0 1 263 1989)">For optimal layout with text and other symbols, vertically align</text>
  <text style="stroke:none;fill:black;font-family:sans-serif;font-size:13;" transform="matrix(1 0 0 1 263 2007)">symbols with the adjacent text.</text>
  <line style="fill:none;stroke:#00AEEF;stroke-width:0.5;opacity:1.0;" x1="776" x2="776" y1="1919" y2="1933"/>
  <g transform="matrix(0.2 0 0 0.2 776 1933)">
   <path d="m16.5527 0.78125c2.58789 0 3.85742-0.976562 4.78516-3.71094l20.5566-57.5195h0.244141l20.6055 57.5195c0.927734 2.73438 2.19727 3.71094 4.73633 3.71094 2.58789 0 4.24805-1.5625 4.24805-4.00391 0-0.830078-0.146484-1.61133-0.537109-2.63672l-22.9004-60.9863c-1.12305-2.97852-3.125-4.49219-6.25-4.49219-3.02734 0-5.07812 1.46484-6.15234 4.44336l-22.9004 61.084c-0.390625 1.02539-0.537109 1.80664-0.537109 2.63672 0 2.44141 1.5625 3.95508 4.10156 3.95508Zm10.2051-20.9473h30.6641c2.00195 0 3.66211-1.66016 3.66211-3.66211 0-2.05078-1.66016-3.66211-3.66211-3.66211h-30.6641c-2.00195 0-3.66211 1.61133-3.66211 3.66211 0 2.00195 1.66016 3.66211 3.66211 3.66211Z"/>
  </g>
  <line style="fill:none;stroke:#00AEEF;stroke-width:0.5;opacity:1.0;" x1="792.836" x2="792.836" y1="1919" y2="1933"/>
  <text style="stroke:none;fill:black;font-family:sans-serif;font-size:13;font-weight:bold;" transform="matrix(1 0 0 1 776 1953)">Margins</text>
  <text style="stroke:none;fill:black;font-family:sans-serif;font-size:13;" transform="matrix(1 0 0 1 776 1971)">Leading and trailing margins on the left and right side of each symbol</text>
  <text style="stroke:none;fill:black;font-family:sans-serif;font-size:13;" transform="matrix(1 0 0 1 776 1989)">can be adjusted by modifying the x-location of the margin guidelines.</text>
  <text style="stroke:none;fill:black;font-family:sans-serif;font-size:13;" transform="matrix(1 0 0 1 776 2007)">Modifications are automatically applied proportionally to all</text>
  <text style="stroke:none;fill:black;font-family:sans-serif;font-size:13;" transform="matrix(1 0 0 1 776 2025)">scales and weights.</text>
  <g transform="matrix(0.2 0 0 0.2 1289 1933)">
   <path d="m14.209 13.1348 7.86133 7.86133c4.29688 4.39453 9.32617 4.10156 13.8672-1.02539l60.6934-68.2129-4.88281-4.88281-60.2539 67.6758c-1.80664 1.95312-3.4668 2.44141-5.81055 0.0976562l-5.17578-5.12695c-2.29492-2.29492-1.80664-3.95508 0.195312-5.81055l67.4805-62.1582-4.88281-4.83398-68.0664 62.5977c-4.98047 4.58984-5.32227 9.47266-1.02539 13.8184Zm44.873-97.4609c-2.05078 2.00195-2.24609 4.88281-1.07422 6.78711 1.12305 1.80664 3.4668 3.02734 6.5918 2.24609 5.85938-1.66016 12.5977-2.39258 18.8965 0.927734l-2.68555 7.12891c-1.61133 4.00391-0.732422 6.88477 1.70898 9.42383l10.2539 10.3027c2.34375 2.39258 4.54102 2.44141 7.08008 1.95312l4.44336-0.732422 2.58789 2.53906-0.195312 2.24609c-0.0976562 2.29492 0.537109 4.29688 2.7832 6.49414l3.36914 3.32031c2.29492 2.29492 5.51758 2.49023 7.8125 0.195312l12.9883-13.0371c2.29492-2.34375 2.14844-5.37109-0.195312-7.66602l-3.41797-3.41797c-2.19727-2.19727-4.05273-3.02734-6.34766-2.88086l-2.34375 0.244141-2.44141-2.44141 1.02539-4.6875c0.634766-2.73438-0.244141-4.98047-2.88086-7.61719l-11.2793-11.1816c-12.9395-12.8418-35.5957-11.0352-46.6797-0.146484Zm7.08008 2.05078c8.78906-6.39648 25.9766-5.66406 33.6914 1.95312l12.3047 12.207c1.02539 1.02539 1.2207 1.80664 0.927734 3.32031l-1.46484 6.64062 6.73828 6.68945 4.39453-0.244141c1.12305-0.0488281 1.51367 0.0488281 2.34375 0.878906l2.53906 2.49023-10.8398 10.8398-2.49023-2.49023c-0.830078-0.878906-0.976562-1.2207-0.927734-2.39258l0.292969-4.3457-6.68945-6.73828-6.83594 1.17188c-1.41602 0.292969-2.05078 0.195312-3.17383-0.878906l-8.93555-8.88672c-1.07422-1.02539-1.17188-1.70898-0.488281-3.36914l4.58984-11.4746c-6.10352-6.34766-17.041-7.51953-25.5859-4.58984-0.683594 0.244141-0.927734-0.390625-0.390625-0.78125Z"/>
  </g>
  <text style="stroke:none;fill:black;font-family:sans-serif;font-size:13;font-weight:bold;" transform="matrix(1 0 0 1 1289 1953)">Exporting</text>
  <text style="stroke:none;fill:black;font-family:sans-serif;font-size:13;" transform="matrix(1 0 0 1 1289 1971)">Symbols should be outlined when exporting to ensure the</text>
  <text style="stroke:none;fill:black;font-family:sans-serif;font-size:13;" transform="matrix(1 0 0 1 1289 1989)">design is preserved when submitting to Xcode.</text>
  <text id="template-version" style="stroke:none;fill:black;font-family:sans-serif;font-size:13;text-anchor:end;" transform="matrix(1 0 0 1 3036 1933)">Template v.7.0</text>
  <text style="stroke:none;fill:black;font-family:sans-serif;font-size:13;text-anchor:end;" transform="matrix(1 0 0 1 3036 1951)">Requires Xcode 26 or greater</text>
  <text id="descriptive-name" style="stroke:none;fill:black;font-family:sans-serif;font-size:13;text-anchor:end;" transform="matrix(1 0 0 1 3036 1969)">Generated from </text>
  <text style="stroke:none;fill:black;font-family:sans-serif;font-size:13;text-anchor:end;" transform="matrix(1 0 0 1 3036 1987)">Typeset at 100.0 points</text>
  <text style="stroke:none;fill:black;font-family:sans-serif;font-size:13;" transform="matrix(1 0 0 1 263 726)">Small</text>
  <text style="stroke:none;fill:black;font-family:sans-serif;font-size:13;" transform="matrix(1 0 0 1 263 1156)">Medium</text>
  <text style="stroke:none;fill:black;font-family:sans-serif;font-size:13;" transform="matrix(1 0 0 1 263 1586)">Large</text>
 </g>
 <g id="Guides">
  <g id="H-reference" style="fill:#27AAE1;stroke:none;" transform="matrix(1 0 0 1 339 696)">
   <path d="M0.993654 0L3.63775 0L29.3281-67.1323L30.0303-67.1323L30.0303-70.459L28.1226-70.459ZM11.6885-24.4799L46.9815-24.4799L46.2315-26.7285L12.4385-26.7285ZM55.1196 0L57.7637 0L30.6382-70.459L29.4326-70.459L29.4326-67.1323Z"/>
  </g>
  <line id="Baseline-S" style="fill:none;stroke:#27AAE1;opacity:1;stroke-width:0.5;" x1="263" x2="3036" y1="696" y2="696"/>
  <line id="Capline-S" style="fill:none;stroke:#27AAE1;opacity:1;stroke-width:0.5;" x1="263" x2="3036" y1="625.541" y2="625.541"/>
  <g id="H-reference" style="fill:#27AAE1;stroke:none;" transform="matrix(1 0 0 1 339 1126)">
   <path d="M0.993654 0L3.63775 0L29.3281-67.1323L30.0303-67.1323L30.0303-70.459L28.1226-70.459ZM11.6885-24.4799L46.9815-24.4799L46.2315-26.7285L12.4385-26.7285ZM55.1196 0L57.7637 0L30.6382-70.459L29.4326-70.459L29.4326-67.1323Z"/>
  </g>
  <line id="Baseline-M" style="fill:none;stroke:#27AAE1;opacity:1;stroke-width:0.5;" x1="263" x2="3036" y1="1126" y2="1126"/>
  <line id="Capline-M" style="fill:none;stroke:#27AAE1;opacity:1;stroke-width:0.5;" x1="263" x2="3036" y1="1055.54" y2="1055.54"/>
  <g id="H-reference" style="fill:#27AAE1;stroke:none;" transform="matrix(1 0 0 1 339 1556)">
   <path d="M0.993654 0L3.63775 0L29.3281-67.1323L30.0303-67.1323L30.0303-70.459L28.1226-70.459ZM11.6885-24.4799L46.9815-24.4799L46.2315-26.7285L12.4385-26.7285ZM55.1196 0L57.7637 0L30.6382-70.459L29.4326-70.459L29.4326-67.1323Z"/>
  </g>
  <line id="Baseline-L" style="fill:none;stroke:#27AAE1;opacity:1;stroke-width:0.5;" x1="263" x2="3036" y1="1556" y2="1556"/>
  <line id="Capline-L" style="fill:none;stroke:#27AAE1;opacity:1;stroke-width:0.5;" x1="263" x2="3036" y1="1485.54" y2="1485.54"/>
  <line id="right-margin-Black-S" style="fill:none;stroke:#00AEEF;stroke-width:0.5;opacity:1.0;" x1="2989.45" x2="2989.45" y1="600.785" y2="720.121"/>
  <line id="left-margin-Black-S" style="fill:none;stroke:#00AEEF;stroke-width:0.5;opacity:1.0;" x1="2877.35" x2="2877.35" y1="600.785" y2="720.121"/>
  <line id="right-margin-Regular-S" style="fill:none;stroke:#00AEEF;stroke-width:0.5;opacity:1.0;" x1="1504.9" x2="1504.9" y1="600.785" y2="720.121"/>
  <line id="left-margin-Regular-S" style="fill:none;stroke:#00AEEF;stroke-width:0.5;opacity:1.0;" x1="1394.79" x2="1394.79" y1="600.785" y2="720.121"/>
  <line id="right-margin-Ultralight-S" style="fill:none;stroke:#00AEEF;stroke-width:0.5;opacity:1.0;" x1="613.72" x2="613.72" y1="600.785" y2="720.121"/>
  <line id="left-margin-Ultralight-S" style="fill:none;stroke:#00AEEF;stroke-width:0.5;opacity:1.0;" x1="505.702" x2="505.702" y1="600.785" y2="720.121"/>
 </g>
 <g id="Symbols">
  <g id="Black-S" transform="matrix(1 0 0 1 2877.35 696)">
   <path class="monochrome-0 multicolor-0:tintColor hierarchical-0:tertiary SFSymbolsPreviewWireframe" d="M25 2.92969L87.1094 2.92969C96.6797 2.92969 102.344-2.73438 102.344-12.3047L102.344-58.1055C102.344-67.6758 96.6797-73.3398 87.1094-73.3398L25-73.3398C15.4297-73.3398 9.76562-67.6758 9.76562-58.1055L9.76562-12.3047C9.76562-2.73438 15.4297 2.92969 25 2.92969Z"/>
   <path class="monochrome-1 multicolor-1:white hierarchical-1:primary SFSymbolsPreviewWireframe" d="M48.7916-72.1798L48.7916-45.3097C48.7916-42.2441 50.6856-40.3032 53.658-40.3032C55.0993-40.3032 56.1335-40.7994 56.9827-41.5161L73.1161-55.3328C75.3149-57.2189 75.2688-60.3607 73.1161-62.2017L56.9827-75.9724C56.1335-76.689 55.0993-77.1862 53.658-77.1862C50.6856-77.1862 48.7916-75.2444 48.7916-72.1798ZM19.1362-33.8653C22.8815-33.8653 25.9053-36.9347 25.9053-40.6774L25.9053-42.662C25.9053-48.8907 29.9476-52.485 36.8478-52.485L53.8948-52.485C57.5495-52.485 60.5272-55.4627 60.5272-59.1179C60.5272-62.7714 57.5495-65.7501 53.8948-65.7501L37.2952-65.7501C21.6899-65.7501 12.322-57.873 12.322-44.7992L12.322-40.6774C12.322-36.9347 15.3914-33.8653 19.1362-33.8653ZM49.9139-3.25183L49.9139-30.122C49.9139-33.1877 48.0199-35.1284 45.0486-35.1284C43.6073-35.1284 42.572-34.6322 41.7228-33.9156L25.5894-20.0993C23.3911-18.2127 23.4378-15.071 25.5894-13.23L41.7228 0.54068C42.572 1.25733 43.6073 1.7546 45.0486 1.7546C48.0199 1.7546 49.9139-0.187252 49.9139-3.25183ZM92.9861-41.5663C89.2413-41.5663 86.2169-38.4969 86.2169-34.7543L86.2169-32.7697C86.2169-26.5411 82.1752-22.9467 75.275-22.9467L44.8107-22.9467C41.1571-22.9467 38.1794-19.969 38.1794-16.3138C38.1794-12.6603 41.1571-9.68149 44.8107-9.68149L74.8261-9.68149C90.4323-9.68149 99.8007-17.5587 99.8007-30.6326L99.8007-34.7543C99.8007-38.4969 96.7296-41.5663 92.9861-41.5663Z"/>
   <path class="monochrome-2 multicolor-2:white hierarchical-2:primary SFSymbolsPreviewWireframe" d="M93.4415-47.1001C97.2262-47.1001 99.7964-49.0302 99.7964-53.6364L99.7964-70.4037C99.7964-74.4494 96.7802-77.1959 92.7308-77.1959C89.576-77.1959 87.3257-76.204 84.9859-74.5411L80.3799-71.2503C78.2101-69.7134 77.4864-68.6326 77.4864-66.8715C77.4864-64.2983 79.2914-62.6777 81.5858-62.6777C82.8946-62.6777 83.7035-62.9926 84.5569-63.6675L86.9203-65.5218L87.1332-65.5218L87.1332-53.6364C87.1332-49.0302 89.7016-47.1001 93.4415-47.1001Z"/>
  </g>
  <g id="Regular-S" transform="matrix(1 0 0 1 1394.79 696)">
   <path class="monochrome-0 multicolor-0:tintColor hierarchical-0:tertiary SFSymbolsPreviewWireframe" d="M22.2168 0.390625L87.8906 0.390625C96.2402 0.390625 100.342-3.71094 100.342-11.9141L100.342-58.4961C100.342-66.6992 96.2402-70.8008 87.8906-70.8008L22.2168-70.8008C13.916-70.8008 9.76562-66.6992 9.76562-58.4961L9.76562-11.9141C9.76562-3.71094 13.916 0.390625 22.2168 0.390625Z"/>
   <path class="monochrome-1 multicolor-1:white hierarchical-1:primary SFSymbolsPreviewWireframe" d="M53.2691-64.8142L53.2691-42.1356C53.2691-40.4414 54.2907-39.4959 55.975-39.4959C56.712-39.4959 57.4927-39.7837 58.0521-40.2513L71.4952-51.5737C72.742-52.6316 72.7779-54.2452 71.4952-55.3396L58.0521-66.6979C57.4927-67.1654 56.712-67.4539 55.975-67.4539C54.2907-67.4539 53.2691-66.5078 53.2691-64.8142ZM20.1944-33.7948C22.1944-33.7948 23.7647-35.3694 23.7647-37.4085L23.7647-40.6264C23.7647-46.2957 27.8089-50.0983 33.8202-50.0983L58.3718-50.0983C60.3229-50.0983 61.9292-51.7045 61.9292-53.6154C61.9292-55.5659 60.3229-57.1726 58.3718-57.1726L34.5072-57.1726C23.537-57.1726 16.5795-50.999 16.5795-41.2727L16.5795-37.4085C16.5795-35.3694 18.1541-33.7948 20.1944-33.7948ZM48.6274-6.07833L48.6274-28.757C48.6274-30.4511 47.6057-31.3967 45.9219-31.3967C45.185-31.3967 44.4037-31.1088 43.8444-30.6411L30.4013-19.2785C29.1953-18.2609 29.1191-16.6473 30.4013-15.553L43.8444-4.19469C44.4037-3.72709 45.185-3.4386 45.9219-3.4386C47.6057-3.4386 48.6274-4.38475 48.6274-6.07833ZM89.7495-37.0978C87.7094-37.0978 86.1793-35.5232 86.1793-33.4841L86.1793-30.2662C86.1793-24.5969 82.0948-20.7942 76.0835-20.7942L43.5246-20.7942C41.5741-20.7942 39.9679-19.188 39.9679-17.2772C39.9679-15.3267 41.5741-13.7199 43.5246-13.7199L75.4361-13.7199C86.4069-13.7199 93.3644-19.8935 93.3644-29.6198L93.3644-33.4841C93.3644-35.5232 91.7891-37.0978 89.7495-37.0978Z"/>
   <path class="monochrome-2 multicolor-2:white hierarchical-2:primary SFSymbolsPreviewWireframe" d="M89.8332-44.0941C92.1179-44.0941 93.5242-45.4391 93.5242-47.8427L93.5242-63.8359C93.5242-66.5449 91.7556-68.3708 89.0851-68.3708C86.8972-68.3708 85.6023-67.6737 83.935-66.3512L79.4448-62.8542C78.477-62.1062 78.2082-61.4827 78.2082-60.5935C78.2082-59.3068 79.2224-58.3921 80.6423-58.3921C81.2065-58.3921 81.7644-58.5822 82.3261-59.007L85.7685-61.8102L86.1063-61.8102L86.1063-47.8427C86.1063-45.4391 87.5119-44.0941 89.8332-44.0941Z"/>
  </g>
  <g id="Ultralight-S" transform="matrix(1 0 0 1 505.702 696)">
   <path class="monochrome-0 multicolor-0:tintColor hierarchical-0:tertiary SFSymbolsPreviewWireframe" d="M19.7647-1.65282L88.2539-1.65282C94.7871-1.65282 98.2529-5.20946 98.2529-11.6416L98.2529-58.8594C98.2529-65.2915 94.7871-68.8482 88.2539-68.8482L19.7647-68.8482C13.2349-68.8482 9.76562-65.3823 9.76562-58.8594L9.76562-11.6416C9.76562-5.11864 13.2349-1.65282 19.7647-1.65282Z"/>
   <path class="monochrome-1 multicolor-1:white hierarchical-1:primary SFSymbolsPreviewWireframe" d="M52.5717-62.3863L52.5717-42.0328C52.5717-41.252 53.0402-40.7956 53.8968-40.7956C54.329-40.7956 54.6215-40.9078 55.0735-41.2338L67.5801-50.8325C68.496-51.5726 68.502-52.9103 67.5801-53.6184L55.0735-63.2232C54.6215-63.5492 54.329-63.6235 53.8968-63.6235C53.0402-63.6235 52.5717-63.2051 52.5717-62.3863ZM22.7531-34.7104C23.6081-34.7104 24.2949-35.3971 24.2949-36.3341L24.2949-39.3355C24.2949-46.3691 28.4932-50.3476 35.8726-50.3476L57.6359-50.3476C58.4849-50.3476 59.1778-51.0404 59.1778-51.8833C59.1778-52.7702 58.4849-53.4251 57.6359-53.4251L35.9695-53.4251C26.5633-53.4251 21.2052-48.3536 21.2052-39.4021L21.2052-36.3341C21.2052-35.3971 21.892-34.7104 22.7531-34.7104ZM48.2859-7.99076L48.2859-28.3443C48.2859-29.1251 47.8174-29.5814 46.9228-29.5814C46.4906-29.5814 46.236-29.4693 45.7841-29.1432L33.2775-19.5385C32.3297-18.8045 32.3175-17.4668 33.2775-16.7586L45.7841-7.15387C46.236-6.82783 46.4906-6.75359 46.9228-6.75359C47.8174-6.75359 48.2859-7.17203 48.2859-7.99076ZM85.1646-35.6666C84.3035-35.6666 83.6228-34.9799 83.6228-34.043L83.6228-31.0415C83.6228-24.008 79.4184-20.0296 72.039-20.0296L43.2215-20.0296C42.3346-20.0296 41.6418-19.3367 41.6418-18.4938C41.6418-17.6069 42.3346-16.9519 43.2215-16.9519L71.9862-16.9519C81.3544-16.9519 86.7124-22.0235 86.7124-30.9749L86.7124-34.043C86.7124-34.9799 86.0636-35.6666 85.1646-35.6666Z"/>
   <path class="monochrome-2 multicolor-2:white hierarchical-2:primary SFSymbolsPreviewWireframe" d="M85.1706-44.2397C86.1439-44.2397 86.8125-44.9462 86.8125-45.8876L86.8125-62.5688C86.8125-63.8681 85.9058-64.5972 84.7264-64.5972C84.0247-64.5972 83.3302-64.3926 82.6951-63.9136L77.6018-60.3949C77.1833-60.1145 77.0393-59.8082 77.0393-59.4338C77.0393-58.8592 77.4319-58.3648 78.1445-58.3648C78.4766-58.3648 78.7388-58.4649 79.0391-58.6711L83.0949-61.5741L83.5227-61.5741L83.5227-45.8876C83.5227-44.9462 84.2292-44.2397 85.1706-44.2397Z"/>
  </g>
 </g>
</svg>
