<?xml version="1.0" encoding="UTF-8"?>
<!--Generator: Apple Native CoreSVG 341-->
<!DOCTYPE svg
PUBLIC "-//W3C//DTD SVG 1.1//EN"
       "http://www.w3.org/Graphics/SVG/1.1/DTD/svg11.dtd">
<svg version="1.1" xmlns="http://www.w3.org/2000/svg" xmlns:xlink="http://www.w3.org/1999/xlink" viewBox="0 0 3300 2200">
 <!--glyph: "100EBF", point size: 100.0, font version: "21.1d1e1", template writer version: "138.0.0"-->
 <style>.defaults {-sfsymbols-draw-reverses-motion-groups:true}

.monochrome-0 {-sfsymbols-motion-group:8;-sfsymbols-layer-tags:list.bullet.rectangle.fill}
.monochrome-1 {opacity:0.0;-sfsymbols-clear-behind:true;-sfsymbols-motion-group:7;-sfsymbols-layer-tags:list.bullet.rectangle.fill}
.monochrome-2 {opacity:0.0;-sfsymbols-clear-behind:true;-sfsymbols-motion-group:6;-sfsymbols-layer-tags:list.bullet.rectangle.fill}
.monochrome-3 {opacity:0.0;-sfsymbols-clear-behind:true;-sfsymbols-motion-group:5;-sfsymbols-layer-tags:list.bullet.rectangle.fill}
.monochrome-4 {opacity:0.0;-sfsymbols-clear-behind:true;-sfsymbols-motion-group:4;-sfsymbols-layer-tags:list.bullet.rectangle.fill}
.monochrome-5 {opacity:0.0;-sfsymbols-clear-behind:true;-sfsymbols-motion-group:3;-sfsymbols-layer-tags:list.bullet.rectangle.fill}
.monochrome-6 {opacity:0.0;-sfsymbols-clear-behind:true;-sfsymbols-motion-group:2;-sfsymbols-layer-tags:list.bullet.rectangle.fill}
.monochrome-7 {opacity:0.0;-sfsymbols-clear-behind:true;-sfsymbols-motion-group:1;-sfsymbols-layer-tags:list.bullet.rectangle.fill}
.monochrome-8 {opacity:0.0;-sfsymbols-clear-behind:true;-sfsymbols-motion-group:0;-sfsymbols-layer-tags:list.bullet.rectangle.fill}

.multicolor-0:tintColor {-sfsymbols-motion-group:8;-sfsymbols-layer-tags:list.bullet.rectangle.fill}
.multicolor-1:white {-sfsymbols-motion-group:7;-sfsymbols-layer-tags:list.bullet.rectangle.fill}
.multicolor-2:white {-sfsymbols-motion-group:6;-sfsymbols-layer-tags:list.bullet.rectangle.fill}
.multicolor-3:white {-sfsymbols-motion-group:5;-sfsymbols-layer-tags:list.bullet.rectangle.fill}
.multicolor-4:white {-sfsymbols-motion-group:4;-sfsymbols-layer-tags:list.bullet.rectangle.fill}
.multicolor-5:white {-sfsymbols-motion-group:3;-sfsymbols-layer-tags:list.bullet.rectangle.fill}
.multicolor-6:white {-sfsymbols-motion-group:2;-sfsymbols-layer-tags:list.bullet.rectangle.fill}
.multicolor-7:white {-sfsymbols-motion-group:1;-sfsymbols-layer-tags:list.bullet.rectangle.fill}
.multicolor-8:white {-sfsymbols-motion-group:0;-sfsymbols-layer-tags:list.bullet.rectangle.fill}

.hierarchical-0:tertiary {-sfsymbols-motion-group:8;-sfsymbols-layer-tags:list.bullet.rectangle.fill}
.hierarchical-1:primary {-sfsymbols-motion-group:7;-sfsymbols-layer-tags:list.bullet.rectangle.fill}
.hierarchical-2:primary {-sfsymbols-motion-group:6;-sfsymbols-layer-tags:list.bullet.rectangle.fill}
.hierarchical-3:primary {-sfsymbols-motion-group:5;-sfsymbols-layer-tags:list.bullet.rectangle.fill}
.hierarchical-4:primary {-sfsymbols-motion-group:4;-sfsymbols-layer-tags:list.bullet.rectangle.fill}
.hierarchical-5:primary {-sfsymbols-motion-group:3;-sfsymbols-layer-tags:list.bullet.rectangle.fill}
.hierarchical-6:primary {-sfsymbols-motion-group:2;-sfsymbols-layer-tags:list.bullet.rectangle.fill}
.hierarchical-7:primary {-sfsymbols-motion-group:1;-sfsymbols-layer-tags:list.bullet.rectangle.fill}
.hierarchical-8:primary {-sfsymbols-motion-group:0;-sfsymbols-layer-tags:list.bullet.rectangle.fill}

.SFSymbolsPreviewWireframe {fill:none;opacity:1.0;stroke:black;stroke-width:0.5}
</style>
 <g id="Notes">
  <rect height="2200" id="artboard" style="fill:white;opacity:1" width="3300" x="0" y="0"/>
  <line style="fill:none;stroke:black;opacity:1;stroke-width:0.5;" x1="263" x2="3036" y1="292" y2="292"/>
  <text style="stroke:none;fill:black;font-family:sans-serif;font-size:13;font-weight:bold;" transform="matrix(1 0 0 1 263 322)">Weight/Scale Variations</text>
  <text style="stroke:none;fill:black;font-family:sans-serif;font-size:13;text-anchor:middle;" transform="matrix(1 0 0 1 559.711 322)">Ultralight</text>
  <text style="stroke:none;fill:black;font-family:sans-serif;font-size:13;text-anchor:middle;" transform="matrix(1 0 0 1 856.422 322)">Thin</text>
  <text style="stroke:none;fill:black;font-family:sans-serif;font-size:13;text-anchor:middle;" transform="matrix(1 0 0 1 1153.13 322)">Light</text>
  <text style="stroke:none;fill:black;font-family:sans-serif;font-size:13;text-anchor:middle;" transform="matrix(1 0 0 1 1449.84 322)">Regular</text>
  <text style="stroke:none;fill:black;font-family:sans-serif;font-size:13;text-anchor:middle;" transform="matrix(1 0 0 1 1746.56 322)">Medium</text>
  <text style="stroke:none;fill:black;font-family:sans-serif;font-size:13;text-anchor:middle;" transform="matrix(1 0 0 1 2043.27 322)">Semibold</text>
  <text style="stroke:none;fill:black;font-family:sans-serif;font-size:13;text-anchor:middle;" transform="matrix(1 0 0 1 2339.98 322)">Bold</text>
  <text style="stroke:none;fill:black;font-family:sans-serif;font-size:13;text-anchor:middle;" transform="matrix(1 0 0 1 2636.69 322)">Heavy</text>
  <text style="stroke:none;fill:black;font-family:sans-serif;font-size:13;text-anchor:middle;" transform="matrix(1 0 0 1 2933.4 322)">Black</text>
  <line style="fill:none;stroke:black;opacity:1;stroke-width:0.5;" x1="263" x2="3036" y1="1903" y2="1903"/>
  <g transform="matrix(0.2 0 0 0.2 263 1933)">
   <path d="m46.2402 4.15039c21.7773 0 39.4531-17.627 39.4531-39.4043s-17.6758-39.4043-39.4531-39.4043c-21.7285 0-39.4043 17.627-39.4043 39.4043s17.6758 39.4043 39.4043 39.4043Zm0-7.42188c-17.6758 0-31.9336-14.3066-31.9336-31.9824s14.2578-31.9824 31.9336-31.9824 31.9824 14.3066 31.9824 31.9824-14.3066 31.9824-31.9824 31.9824Zm3.61328-17.7734v-28.4668c0-2.24609-1.46484-3.75977-3.71094-3.75977-2.14844 0-3.61328 1.51367-3.61328 3.75977v28.4668c0 2.19727 1.46484 3.71094 3.61328 3.71094 2.24609 0 3.71094-1.51367 3.71094-3.71094Zm-17.8223-10.5957h28.418c2.19727 0 3.71094-1.46484 3.71094-3.61328 0-2.19727-1.51367-3.71094-3.71094-3.71094h-28.418c-2.24609 0-3.75977 1.51367-3.75977 3.71094 0 2.14844 1.51367 3.61328 3.75977 3.61328Z"/>
  </g>
  <g transform="matrix(0.2 0 0 0.2 281.506 1933)">
   <path d="m58.5449 14.5508c27.4902 0 49.8047-22.3145 49.8047-49.8047s-22.3145-49.8047-49.8047-49.8047-49.8047 22.3145-49.8047 49.8047 22.3145 49.8047 49.8047 49.8047Zm0-8.30078c-22.9492 0-41.5039-18.5547-41.5039-41.5039s18.5547-41.5039 41.5039-41.5039 41.5039 18.5547 41.5039 41.5039-18.5547 41.5039-41.5039 41.5039Zm4.05273-23.0957v-36.9141c0-2.49023-1.70898-4.19922-4.15039-4.19922-2.39258 0-4.05273 1.70898-4.05273 4.19922v36.9141c0 2.44141 1.66016 4.15039 4.05273 4.15039 2.44141 0 4.15039-1.66016 4.15039-4.15039Zm-22.5586-14.4043h36.9629c2.44141 0 4.15039-1.61133 4.15039-4.00391 0-2.44141-1.70898-4.15039-4.15039-4.15039h-36.9629c-2.49023 0-4.15039 1.70898-4.15039 4.15039 0 2.39258 1.66016 4.00391 4.15039 4.00391Z"/>
  </g>
  <g transform="matrix(0.2 0 0 0.2 304.924 1933)">
   <path d="m74.8535 28.3203c35.1074 0 63.623-28.4668 63.623-63.5742s-28.5156-63.623-63.623-63.623-63.5742 28.5156-63.5742 63.623 28.4668 63.5742 63.5742 63.5742Zm0-9.08203c-30.127 0-54.4922-24.3652-54.4922-54.4922s24.3652-54.4922 54.4922-54.4922 54.4922 24.3652 54.4922 54.4922-24.3652 54.4922-54.4922 54.4922Zm4.44336-30.3223v-48.4863c0-2.73438-1.85547-4.63867-4.54102-4.63867-2.58789 0-4.44336 1.9043-4.44336 4.63867v48.4863c0 2.68555 1.85547 4.58984 4.44336 4.58984 2.68555 0 4.54102-1.85547 4.54102-4.58984Zm-28.7109-19.7754h48.4863c2.68555 0 4.58984-1.80664 4.58984-4.39453 0-2.73438-1.85547-4.58984-4.58984-4.58984h-48.4863c-2.73438 0-4.58984 1.85547-4.58984 4.58984 0 2.58789 1.85547 4.39453 4.58984 4.39453Z"/>
  </g>
  <text style="stroke:none;fill:black;font-family:sans-serif;font-size:13;font-weight:bold;" transform="matrix(1 0 0 1 263 1953)">Design Variations</text>
  <text style="stroke:none;fill:black;font-family:sans-serif;font-size:13;" transform="matrix(1 0 0 1 263 1971)">Symbols are supported in up to nine weights and three scales.</text>
  <text style="stroke:none;fill:black;font-family:sans-serif;font-size:13;" transform="matrix(1 0 0 1 263 1989)">For optimal layout with text and other symbols, vertically align</text>
  <text style="stroke:none;fill:black;font-family:sans-serif;font-size:13;" transform="matrix(1 0 0 1 263 2007)">symbols with the adjacent text.</text>
  <line style="fill:none;stroke:#00AEEF;stroke-width:0.5;opacity:1.0;" x1="776" x2="776" y1="1919" y2="1933"/>
  <g transform="matrix(0.2 0 0 0.2 776 1933)">
   <path d="m16.5527 0.78125c2.58789 0 3.85742-0.976562 4.78516-3.71094l20.5566-57.5195h0.244141l20.6055 57.5195c0.927734 2.73438 2.19727 3.71094 4.73633 3.71094 2.58789 0 4.24805-1.5625 4.24805-4.00391 0-0.830078-0.146484-1.61133-0.537109-2.63672l-22.9004-60.9863c-1.12305-2.97852-3.125-4.49219-6.25-4.49219-3.02734 0-5.07812 1.46484-6.15234 4.44336l-22.9004 61.084c-0.390625 1.02539-0.537109 1.80664-0.537109 2.63672 0 2.44141 1.5625 3.95508 4.10156 3.95508Zm10.2051-20.9473h30.6641c2.00195 0 3.66211-1.66016 3.66211-3.66211 0-2.05078-1.66016-3.66211-3.66211-3.66211h-30.6641c-2.00195 0-3.66211 1.61133-3.66211 3.66211 0 2.00195 1.66016 3.66211 3.66211 3.66211Z"/>
  </g>
  <line style="fill:none;stroke:#00AEEF;stroke-width:0.5;opacity:1.0;" x1="792.836" x2="792.836" y1="1919" y2="1933"/>
  <text style="stroke:none;fill:black;font-family:sans-serif;font-size:13;font-weight:bold;" transform="matrix(1 0 0 1 776 1953)">Margins</text>
  <text style="stroke:none;fill:black;font-family:sans-serif;font-size:13;" transform="matrix(1 0 0 1 776 1971)">Leading and trailing margins on the left and right side of each symbol</text>
  <text style="stroke:none;fill:black;font-family:sans-serif;font-size:13;" transform="matrix(1 0 0 1 776 1989)">can be adjusted by modifying the x-location of the margin guidelines.</text>
  <text style="stroke:none;fill:black;font-family:sans-serif;font-size:13;" transform="matrix(1 0 0 1 776 2007)">Modifications are automatically applied proportionally to all</text>
  <text style="stroke:none;fill:black;font-family:sans-serif;font-size:13;" transform="matrix(1 0 0 1 776 2025)">scales and weights.</text>
  <g transform="matrix(0.2 0 0 0.2 1289 1933)">
   <path d="m14.209 13.1348 7.86133 7.86133c4.29688 4.39453 9.32617 4.10156 13.8672-1.02539l60.6934-68.2129-4.88281-4.88281-60.2539 67.6758c-1.80664 1.95312-3.4668 2.44141-5.81055 0.0976562l-5.17578-5.12695c-2.29492-2.29492-1.80664-3.95508 0.195312-5.81055l67.4805-62.1582-4.88281-4.83398-68.0664 62.5977c-4.98047 4.58984-5.32227 9.47266-1.02539 13.8184Zm44.873-97.4609c-2.05078 2.00195-2.24609 4.88281-1.07422 6.78711 1.12305 1.80664 3.4668 3.02734 6.5918 2.24609 5.85938-1.66016 12.5977-2.39258 18.8965 0.927734l-2.68555 7.12891c-1.61133 4.00391-0.732422 6.88477 1.70898 9.42383l10.2539 10.3027c2.34375 2.39258 4.54102 2.44141 7.08008 1.95312l4.44336-0.732422 2.58789 2.53906-0.195312 2.24609c-0.0976562 2.29492 0.537109 4.29688 2.7832 6.49414l3.36914 3.32031c2.29492 2.29492 5.51758 2.49023 7.8125 0.195312l12.9883-13.0371c2.29492-2.34375 2.14844-5.37109-0.195312-7.66602l-3.41797-3.41797c-2.19727-2.19727-4.05273-3.02734-6.34766-2.88086l-2.34375 0.244141-2.44141-2.44141 1.02539-4.6875c0.634766-2.73438-0.244141-4.98047-2.88086-7.61719l-11.2793-11.1816c-12.9395-12.8418-35.5957-11.0352-46.6797-0.146484Zm7.08008 2.05078c8.78906-6.39648 25.9766-5.66406 33.6914 1.95312l12.3047 12.207c1.02539 1.02539 1.2207 1.80664 0.927734 3.32031l-1.46484 6.64062 6.73828 6.68945 4.39453-0.244141c1.12305-0.0488281 1.51367 0.0488281 2.34375 0.878906l2.53906 2.49023-10.8398 10.8398-2.49023-2.49023c-0.830078-0.878906-0.976562-1.2207-0.927734-2.39258l0.292969-4.3457-6.68945-6.73828-6.83594 1.17188c-1.41602 0.292969-2.05078 0.195312-3.17383-0.878906l-8.93555-8.88672c-1.07422-1.02539-1.17188-1.70898-0.488281-3.36914l4.58984-11.4746c-6.10352-6.34766-17.041-7.51953-25.5859-4.58984-0.683594 0.244141-0.927734-0.390625-0.390625-0.78125Z"/>
  </g>
  <text style="stroke:none;fill:black;font-family:sans-serif;font-size:13;font-weight:bold;" transform="matrix(1 0 0 1 1289 1953)">Exporting</text>
  <text style="stroke:none;fill:black;font-family:sans-serif;font-size:13;" transform="matrix(1 0 0 1 1289 1971)">Symbols should be outlined when exporting to ensure the</text>
  <text style="stroke:none;fill:black;font-family:sans-serif;font-size:13;" transform="matrix(1 0 0 1 1289 1989)">design is preserved when submitting to Xcode.</text>
  <text id="template-version" style="stroke:none;fill:black;font-family:sans-serif;font-size:13;text-anchor:end;" transform="matrix(1 0 0 1 3036 1933)">Template v.7.0</text>
  <text style="stroke:none;fill:black;font-family:sans-serif;font-size:13;text-anchor:end;" transform="matrix(1 0 0 1 3036 1951)">Requires Xcode 26 or greater</text>
  <text id="descriptive-name" style="stroke:none;fill:black;font-family:sans-serif;font-size:13;text-anchor:end;" transform="matrix(1 0 0 1 3036 1969)">Generated from list.bullet.rectangle.fill</text>
  <text style="stroke:none;fill:black;font-family:sans-serif;font-size:13;text-anchor:end;" transform="matrix(1 0 0 1 3036 1987)">Typeset at 100.0 points</text>
  <text style="stroke:none;fill:black;font-family:sans-serif;font-size:13;" transform="matrix(1 0 0 1 263 726)">Small</text>
  <text style="stroke:none;fill:black;font-family:sans-serif;font-size:13;" transform="matrix(1 0 0 1 263 1156)">Medium</text>
  <text style="stroke:none;fill:black;font-family:sans-serif;font-size:13;" transform="matrix(1 0 0 1 263 1586)">Large</text>
 </g>
 <g id="Guides">
  <g id="H-reference" style="fill:#27AAE1;stroke:none;" transform="matrix(1 0 0 1 339 696)">
   <path d="M0.993654 0L3.63775 0L29.3281-67.1323L30.0303-67.1323L30.0303-70.459L28.1226-70.459ZM11.6885-24.4799L46.9815-24.4799L46.2315-26.7285L12.4385-26.7285ZM55.1196 0L57.7637 0L30.6382-70.459L29.4326-70.459L29.4326-67.1323Z"/>
  </g>
  <line id="Baseline-S" style="fill:none;stroke:#27AAE1;opacity:1;stroke-width:0.5;" x1="263" x2="3036" y1="696" y2="696"/>
  <line id="Capline-S" style="fill:none;stroke:#27AAE1;opacity:1;stroke-width:0.5;" x1="263" x2="3036" y1="625.541" y2="625.541"/>
  <g id="H-reference" style="fill:#27AAE1;stroke:none;" transform="matrix(1 0 0 1 339 1126)">
   <path d="M0.993654 0L3.63775 0L29.3281-67.1323L30.0303-67.1323L30.0303-70.459L28.1226-70.459ZM11.6885-24.4799L46.9815-24.4799L46.2315-26.7285L12.4385-26.7285ZM55.1196 0L57.7637 0L30.6382-70.459L29.4326-70.459L29.4326-67.1323Z"/>
  </g>
  <line id="Baseline-M" style="fill:none;stroke:#27AAE1;opacity:1;stroke-width:0.5;" x1="263" x2="3036" y1="1126" y2="1126"/>
  <line id="Capline-M" style="fill:none;stroke:#27AAE1;opacity:1;stroke-width:0.5;" x1="263" x2="3036" y1="1055.54" y2="1055.54"/>
  <g id="H-reference" style="fill:#27AAE1;stroke:none;" transform="matrix(1 0 0 1 339 1556)">
   <path d="M0.993654 0L3.63775 0L29.3281-67.1323L30.0303-67.1323L30.0303-70.459L28.1226-70.459ZM11.6885-24.4799L46.9815-24.4799L46.2315-26.7285L12.4385-26.7285ZM55.1196 0L57.7637 0L30.6382-70.459L29.4326-70.459L29.4326-67.1323Z"/>
  </g>
  <line id="Baseline-L" style="fill:none;stroke:#27AAE1;opacity:1;stroke-width:0.5;" x1="263" x2="3036" y1="1556" y2="1556"/>
  <line id="Capline-L" style="fill:none;stroke:#27AAE1;opacity:1;stroke-width:0.5;" x1="263" x2="3036" y1="1485.54" y2="1485.54"/>
  <line id="right-margin-Black-S" style="fill:none;stroke:#00AEEF;stroke-width:0.5;opacity:1.0;" x1="2989.45" x2="2989.45" y1="600.785" y2="720.121"/>
  <line id="left-margin-Black-S" style="fill:none;stroke:#00AEEF;stroke-width:0.5;opacity:1.0;" x1="2877.35" x2="2877.35" y1="600.785" y2="720.121"/>
  <line id="right-margin-Regular-S" style="fill:none;stroke:#00AEEF;stroke-width:0.5;opacity:1.0;" x1="1504.9" x2="1504.9" y1="600.785" y2="720.121"/>
  <line id="left-margin-Regular-S" style="fill:none;stroke:#00AEEF;stroke-width:0.5;opacity:1.0;" x1="1394.79" x2="1394.79" y1="600.785" y2="720.121"/>
  <line id="right-margin-Ultralight-S" style="fill:none;stroke:#00AEEF;stroke-width:0.5;opacity:1.0;" x1="613.72" x2="613.72" y1="600.785" y2="720.121"/>
  <line id="left-margin-Ultralight-S" style="fill:none;stroke:#00AEEF;stroke-width:0.5;opacity:1.0;" x1="505.702" x2="505.702" y1="600.785" y2="720.121"/>
 </g>
 <g id="Symbols">
  <g id="Black-S" transform="matrix(1 0 0 1 2877.35 696)">
   <path class="monochrome-0 multicolor-0:tintColor hierarchical-0:tertiary SFSymbolsPreviewWireframe" d="M25 2.92969L87.1094 2.92969C96.6797 2.92969 102.344-2.73438 102.344-12.3047L102.344-58.1055C102.344-67.6758 96.6797-73.3398 87.1094-73.3398L25-73.3398C15.4297-73.3398 9.76562-67.6758 9.76562-58.1055L9.76562-12.3047C9.76562-2.73438 15.4297 2.92969 25 2.92969Z"/>
   <path class="monochrome-1 multicolor-1:white hierarchical-1:primary SFSymbolsPreviewWireframe" d="M30.3711-49.6094C28.125-49.6094 26.1719-51.5137 26.1719-53.8086C26.1719-56.0547 28.125-58.0078 30.3711-58.0078C32.7637-58.0078 34.6191-56.1523 34.6191-53.8086C34.6191-51.4648 32.7637-49.6094 30.3711-49.6094Z"/>
   <path class="monochrome-2 multicolor-2:white hierarchical-2:primary SFSymbolsPreviewWireframe" d="M41.8945-50.293C39.9414-50.293 38.4277-51.9531 38.4277-53.8086C38.4277-55.7129 39.9902-57.2754 41.8945-57.2754L82.373-57.2754C84.2285-57.2754 85.8398-55.7129 85.8398-53.8086C85.8398-51.9531 84.2773-50.293 82.373-50.293Z" data-clipstroke-keyframes="0 0 0 0 0.10579252 0 1 0.50094795 0.6068921"/>
   <path class="monochrome-3 multicolor-3:white hierarchical-3:primary SFSymbolsPreviewWireframe" d="M30.3711-37.3535C28.125-37.3535 26.1719-39.3066 26.1719-41.6016C26.1719-43.9453 28.125-45.8008 30.3711-45.8008C32.7637-45.8008 34.6191-43.9453 34.6191-41.6016C34.6191-39.3066 32.7637-37.3535 30.3711-37.3535Z"/>
   <path class="monochrome-4 multicolor-4:white hierarchical-4:primary SFSymbolsPreviewWireframe" d="M41.8945-38.0859C39.9902-38.0859 38.4277-39.7461 38.4277-41.6016C38.4277-43.5059 39.9414-45.1172 41.8945-45.1172L65.1367-45.1172C67.0898-45.1172 68.6523-43.5059 68.6523-41.6016C68.6523-39.7461 67.041-38.0859 65.1367-38.0859Z" data-clipstroke-keyframes="0 0 0 0.15863466 0.9993367 0 1 0.50086117 0.66176605"/>
   <path class="monochrome-5 multicolor-5:white hierarchical-5:primary SFSymbolsPreviewWireframe" d="M30.3711-25.3418C28.0762-25.3418 26.1719-27.0996 26.1719-29.4434C26.1719-31.7871 28.0762-33.5938 30.3711-33.5938C32.8125-33.5938 34.6191-31.7871 34.6191-29.4434C34.6191-27.0996 32.7637-25.3418 30.3711-25.3418Z"/>
   <path class="monochrome-6 multicolor-6:white hierarchical-6:primary SFSymbolsPreviewWireframe" d="M41.8945-26.0254C39.9414-26.0254 38.4277-27.5879 38.4277-29.4434C38.4277-31.3965 39.9414-32.8613 41.8945-32.8613L82.373-32.8613C84.2773-32.8613 85.8398-31.3965 85.8398-29.4434C85.8398-27.5879 84.2773-26.0254 82.373-26.0254Z" data-clipstroke-keyframes="0 0 0 0.10474968 0.9996147 0 1 0.50097036 0.60630655"/>
   <path class="monochrome-7 multicolor-7:white hierarchical-7:primary SFSymbolsPreviewWireframe" d="M30.3711-12.5C28.125-12.5 26.1719-14.4531 26.1719-16.6992C26.1719-18.9941 28.125-20.8984 30.3711-20.8984C32.7637-20.8984 34.6191-19.043 34.6191-16.6992C34.6191-14.3555 32.7637-12.5 30.3711-12.5Z"/>
   <path class="monochrome-8 multicolor-8:white hierarchical-8:primary SFSymbolsPreviewWireframe" d="M41.8945-13.2324C39.9902-13.2324 38.4277-14.7949 38.4277-16.6992C38.4277-18.5547 39.9414-20.2148 41.8945-20.2148L65.1367-20.2148C67.0898-20.2148 68.6523-18.5547 68.6523-16.6992C68.6523-14.7949 67.041-13.2324 65.1367-13.2324Z" data-clipstroke-keyframes="0 0 0 0.15830803 0.99933624 0 1 0.5008607 0.6614442"/>
  </g>
  <g id="Regular-S" transform="matrix(1 0 0 1 1394.79 696)">
   <path class="monochrome-0 multicolor-0:tintColor hierarchical-0:tertiary SFSymbolsPreviewWireframe" d="M22.2168 0.390625L87.8906 0.390625C96.2402 0.390625 100.342-3.71094 100.342-11.9141L100.342-58.4961C100.342-66.6992 96.2402-70.8008 87.8906-70.8008L22.2168-70.8008C13.916-70.8008 9.76562-66.6992 9.76562-58.4961L9.76562-11.9141C9.76562-3.71094 13.916 0.390625 22.2168 0.390625Z"/>
   <path class="monochrome-1 multicolor-1:white hierarchical-1:primary SFSymbolsPreviewWireframe" d="M27.5879-49.707C25.6348-49.707 23.9258-51.4648 23.9258-53.4668C23.9258-55.5176 25.6348-57.1777 27.5879-57.1777C29.6875-57.1777 31.3477-55.5664 31.3477-53.4668C31.3477-51.416 29.6875-49.707 27.5879-49.707Z"/>
   <path class="monochrome-2 multicolor-2:white hierarchical-2:primary SFSymbolsPreviewWireframe" d="M39.0137-50.7324C37.5-50.7324 36.2305-51.9531 36.2305-53.4668C36.2305-55.0293 37.5-56.2988 39.0137-56.2988L83.4961-56.2988C85.0098-56.2988 86.2793-55.0293 86.2793-53.4668C86.2793-51.9531 85.0586-50.7324 83.4961-50.7324Z" data-clipstroke-keyframes="0 0 0 0 0.08173084 0 1 0.5006156 0.58252144"/>
   <path class="monochrome-3 multicolor-3:white hierarchical-3:primary SFSymbolsPreviewWireframe" d="M27.5879-37.793C25.6348-37.793 23.9258-39.4531 23.9258-41.5039C23.9258-43.5547 25.6348-45.2637 27.5879-45.2637C29.6875-45.2637 31.3477-43.6035 31.3477-41.5039C31.3477-39.4043 29.6875-37.793 27.5879-37.793Z"/>
   <path class="monochrome-4 multicolor-4:white hierarchical-4:primary SFSymbolsPreviewWireframe" d="M39.0137-38.7207C37.5-38.7207 36.2305-39.9902 36.2305-41.5039C36.2305-43.0176 37.5-44.2871 39.0137-44.2871L63.2324-44.2871C64.7461-44.2871 66.0156-43.0176 66.0156-41.5039C66.0156-39.9902 64.7461-38.7207 63.2324-38.7207Z" data-clipstroke-keyframes="0 0 0 0.13134432 0.9992819 0 1 0.5010743 0.63313675"/>
   <path class="monochrome-5 multicolor-5:white hierarchical-5:primary SFSymbolsPreviewWireframe" d="M27.5879-25.8789C25.5859-25.8789 23.9258-27.5391 23.9258-29.5898C23.9258-31.5918 25.5859-33.3008 27.5879-33.3008C29.6875-33.3008 31.3477-31.6406 31.3477-29.5898C31.3477-27.5391 29.6875-25.8789 27.5879-25.8789Z"/>
   <path class="monochrome-6 multicolor-6:white hierarchical-6:primary SFSymbolsPreviewWireframe" d="M39.0137-26.7578C37.5-26.7578 36.2305-27.9785 36.2305-29.5898C36.2305-31.1035 37.5-32.3242 39.0137-32.3242L83.4961-32.3242C85.0586-32.3242 86.2793-31.1035 86.2793-29.5898C86.2793-27.9785 85.0586-26.7578 83.4961-26.7578Z" data-clipstroke-keyframes="0 0 0 0.08147383 0.9995918 0 1 0.50024366 0.58264637"/>
   <path class="monochrome-7 multicolor-7:white hierarchical-7:primary SFSymbolsPreviewWireframe" d="M27.5879-13.2324C25.6348-13.2324 23.9258-14.9414 23.9258-16.9434C23.9258-18.9453 25.6348-20.7031 27.5879-20.7031C29.6875-20.7031 31.3477-18.9941 31.3477-16.9434C31.3477-14.8926 29.6875-13.2324 27.5879-13.2324Z"/>
   <path class="monochrome-8 multicolor-8:white hierarchical-8:primary SFSymbolsPreviewWireframe" d="M39.0137-14.1113C37.5-14.1113 36.2305-15.3809 36.2305-16.9434C36.2305-18.457 37.5-19.6777 39.0137-19.6777L63.2324-19.6777C64.7949-19.6777 66.0156-18.457 66.0156-16.9434C66.0156-15.3809 64.7461-14.1113 63.2324-14.1113Z" data-clipstroke-keyframes="0 0 0 0.1314435 0.99928236 0 1 0.50047493 0.6333146"/>
  </g>
  <g id="Ultralight-S" transform="matrix(1 0 0 1 505.702 696)">
   <path class="monochrome-0 multicolor-0:tintColor hierarchical-0:tertiary SFSymbolsPreviewWireframe" d="M19.7647-1.65282L88.2539-1.65282C94.7871-1.65282 98.2529-5.20946 98.2529-11.6416L98.2529-58.8594C98.2529-65.2915 94.7871-68.8482 88.2539-68.8482L19.7647-68.8482C13.2349-68.8482 9.76562-65.3823 9.76562-58.8594L9.76562-11.6416C9.76562-5.11864 13.2349-1.65282 19.7647-1.65282Z"/>
   <path class="monochrome-1 multicolor-1:white hierarchical-1:primary SFSymbolsPreviewWireframe" d="M24.6817-50.7969C22.8194-50.7969 21.292-52.2822 21.292-54.1479C21.292-56.0171 22.8194-57.541 24.6817-57.541C26.5088-57.541 28.0327-56.0205 28.0327-54.1479C28.0327-52.2788 26.5088-50.7969 24.6817-50.7969Z"/>
   <path class="monochrome-2 multicolor-2:white hierarchical-2:primary SFSymbolsPreviewWireframe" d="M38.5596-53.0937C37.9087-53.0937 37.5019-53.5425 37.5019-54.1479C37.5019-54.8022 37.9087-55.209 38.5596-55.209L86.7202-55.209C87.3257-55.209 87.7778-54.8022 87.7778-54.1479C87.7778-53.5425 87.3291-53.0937 86.7202-53.0937Z" data-clipstroke-keyframes="0 0 0 0 0.032440662 0 1 0.5006423 0.53309584"/>
   <path class="monochrome-3 multicolor-3:white hierarchical-3:primary SFSymbolsPreviewWireframe" d="M24.6817-38.2017C22.8194-38.2017 21.292-39.7256 21.292-41.5947C21.292-43.4639 22.8194-44.9912 24.6817-44.9912C26.5088-44.9912 28.0327-43.4673 28.0327-41.5947C28.0327-39.7222 26.5088-38.2017 24.6817-38.2017Z"/>
   <path class="monochrome-4 multicolor-4:white hierarchical-4:primary SFSymbolsPreviewWireframe" d="M38.5596-40.5371C37.9087-40.5371 37.5019-40.9438 37.5019-41.5947C37.5019-42.2456 37.9087-42.6524 38.5596-42.6524L67.1377-42.6524C67.7431-42.6524 68.1953-42.2456 68.1953-41.5947C68.1953-40.9438 67.7431-40.5371 67.1377-40.5371Z" data-clipstroke-keyframes="0 0 0 0.05199337 0.99912643 0 1 0.5010414 0.5536504"/>
   <path class="monochrome-5 multicolor-5:white hierarchical-5:primary SFSymbolsPreviewWireframe" d="M24.6817-25.6519C22.8159-25.6519 21.292-27.1758 21.292-29.0449C21.292-30.9106 22.8159-32.438 24.6817-32.438C26.5088-32.438 28.0327-30.9141 28.0327-29.0449C28.0327-27.1758 26.5088-25.6519 24.6817-25.6519Z"/>
   <path class="monochrome-6 multicolor-6:white hierarchical-6:primary SFSymbolsPreviewWireframe" d="M38.5596-27.9839C37.9087-27.9839 37.5019-28.3872 37.5019-29.0449C37.5019-29.6504 37.9087-30.0991 38.5596-30.0991L86.7202-30.0991C87.3291-30.0991 87.7778-29.6504 87.7778-29.0449C87.7778-28.3872 87.3291-27.9839 86.7202-27.9839Z" data-clipstroke-keyframes="0 0 0 0.032156467 0.99954367 0 1 0.50064135 0.5331063"/>
   <path class="monochrome-7 multicolor-7:white hierarchical-7:primary SFSymbolsPreviewWireframe" d="M24.6817-13.0508C22.8194-13.0508 21.292-14.5781 21.292-16.4439C21.292-18.3096 22.8194-19.8403 24.6817-19.8403C26.5088-19.8403 28.0327-18.313 28.0327-16.4439C28.0327-14.5747 26.5088-13.0508 24.6817-13.0508Z"/>
   <path class="monochrome-8 multicolor-8:white hierarchical-8:primary SFSymbolsPreviewWireframe" d="M38.5596-15.3828C37.9087-15.3828 37.5019-15.7895 37.5019-16.4439C37.5019-17.0493 37.9087-17.4981 38.5596-17.4981L67.1377-17.4981C67.7466-17.4981 68.1953-17.0493 68.1953-16.4439C68.1953-15.7895 67.7431-15.3828 67.1377-15.3828Z" data-clipstroke-keyframes="0 0 0 0.05185938 0.99912643 0 1 0.50104046 0.55352306"/>
  </g>
 </g>
</svg>
