<?xml version="1.0" encoding="UTF-8"?>
<!--Generator: Apple Native CoreSVG 341-->
<!DOCTYPE svg
PUBLIC "-//W3C//DTD SVG 1.1//EN"
       "http://www.w3.org/Graphics/SVG/1.1/DTD/svg11.dtd">
<svg version="1.1" xmlns="http://www.w3.org/2000/svg" xmlns:xlink="http://www.w3.org/1999/xlink" viewBox="0 0 3300 2200">
 <!--glyph: "", point size: 100.0, font version: "21.1d1e1", template writer version: "138.0.0"-->
 <style>.defaults {-sfsymbols-draw-reverses-motion-groups:false}

.monochrome-0 {-sfsymbols-motion-group:2;-sfsymbols-layer-tags:-1d5b9033ff7da7d6 _enclosure.stroke rectangle.stack}
.monochrome-1 {opacity:0.0;-sfsymbols-clear-behind:true;-sfsymbols-motion-group:1;-sfsymbols-layer-tags:-1d5b9033ff7da7d6 _enclosure.stroke rectangle.stack}
.monochrome-2 {-sfsymbols-motion-group:1;-sfsymbols-layer-tags:-1d5b9033ff7da7d6 _enclosure.stroke rectangle.stack}
.monochrome-3 {opacity:0.0;-sfsymbols-clear-behind:true;-sfsymbols-motion-group:0;-sfsymbols-layer-tags:-1d5b9033ff7da7d6 _enclosure.stroke rectangle.stack}
.monochrome-4 {-sfsymbols-motion-group:0;-sfsymbols-layer-tags:-1d5b9033ff7da7d6 _enclosure.stroke rectangle.stack}
.monochrome-5 {-sfsymbols-variable-threshold:0.84;-sfsymbols-motion-group:0;-sfsymbols-always-pulses:true;-sfsymbols-layer-tags:-1d5b9033ff7da7d6 -40a2b0c90fe1b938 waveform}
.monochrome-6 {-sfsymbols-variable-threshold:0.68;-sfsymbols-motion-group:0;-sfsymbols-always-pulses:true;-sfsymbols-layer-tags:-1d5b9033ff7da7d6 -40a2b0c90fe1b938 waveform}
.monochrome-7 {-sfsymbols-variable-threshold:0.51;-sfsymbols-motion-group:0;-sfsymbols-always-pulses:true;-sfsymbols-layer-tags:-1d5b9033ff7da7d6 -40a2b0c90fe1b938 waveform}
.monochrome-8 {-sfsymbols-variable-threshold:0.34;-sfsymbols-motion-group:0;-sfsymbols-always-pulses:true;-sfsymbols-layer-tags:-1d5b9033ff7da7d6 -40a2b0c90fe1b938 waveform}
.monochrome-9 {-sfsymbols-variable-threshold:0.18;-sfsymbols-motion-group:0;-sfsymbols-always-pulses:true;-sfsymbols-layer-tags:-1d5b9033ff7da7d6 -40a2b0c90fe1b938 waveform}
.monochrome-10 {-sfsymbols-variable-threshold:0.0;-sfsymbols-motion-group:0;-sfsymbols-always-pulses:true;-sfsymbols-layer-tags:-1d5b9033ff7da7d6 -40a2b0c90fe1b938 waveform}

.multicolor-0:tintColor {-sfsymbols-motion-group:2;-sfsymbols-layer-tags:-1d5b9033ff7da7d6 _enclosure.stroke rectangle.stack}
.multicolor-1:tintColor {opacity:0.0;-sfsymbols-clear-behind:true;-sfsymbols-motion-group:1;-sfsymbols-layer-tags:-1d5b9033ff7da7d6 _enclosure.stroke rectangle.stack}
.multicolor-2:tintColor {-sfsymbols-motion-group:1;-sfsymbols-layer-tags:-1d5b9033ff7da7d6 _enclosure.stroke rectangle.stack}
.multicolor-3:tintColor {opacity:0.0;-sfsymbols-clear-behind:true;-sfsymbols-motion-group:0;-sfsymbols-layer-tags:-1d5b9033ff7da7d6 _enclosure.stroke rectangle.stack}
.multicolor-4:tintColor {-sfsymbols-motion-group:0;-sfsymbols-layer-tags:-1d5b9033ff7da7d6 _enclosure.stroke rectangle.stack}
.multicolor-5:tintColor {-sfsymbols-variable-threshold:0.84;-sfsymbols-motion-group:0;-sfsymbols-always-pulses:true;-sfsymbols-layer-tags:-1d5b9033ff7da7d6 -40a2b0c90fe1b938 waveform}
.multicolor-6:tintColor {-sfsymbols-variable-threshold:0.68;-sfsymbols-motion-group:0;-sfsymbols-always-pulses:true;-sfsymbols-layer-tags:-1d5b9033ff7da7d6 -40a2b0c90fe1b938 waveform}
.multicolor-7:tintColor {-sfsymbols-variable-threshold:0.51;-sfsymbols-motion-group:0;-sfsymbols-always-pulses:true;-sfsymbols-layer-tags:-1d5b9033ff7da7d6 -40a2b0c90fe1b938 waveform}
.multicolor-8:tintColor {-sfsymbols-variable-threshold:0.34;-sfsymbols-motion-group:0;-sfsymbols-always-pulses:true;-sfsymbols-layer-tags:-1d5b9033ff7da7d6 -40a2b0c90fe1b938 waveform}
.multicolor-9:tintColor {-sfsymbols-variable-threshold:0.18;-sfsymbols-motion-group:0;-sfsymbols-always-pulses:true;-sfsymbols-layer-tags:-1d5b9033ff7da7d6 -40a2b0c90fe1b938 waveform}
.multicolor-10:tintColor {-sfsymbols-variable-threshold:0.0;-sfsymbols-motion-group:0;-sfsymbols-always-pulses:true;-sfsymbols-layer-tags:-1d5b9033ff7da7d6 -40a2b0c90fe1b938 waveform}

.hierarchical-0:secondary {-sfsymbols-motion-group:2;-sfsymbols-layer-tags:-1d5b9033ff7da7d6 _enclosure.stroke rectangle.stack}
.hierarchical-1:primary {opacity:0.0;-sfsymbols-clear-behind:true;-sfsymbols-motion-group:1;-sfsymbols-layer-tags:-1d5b9033ff7da7d6 _enclosure.stroke rectangle.stack}
.hierarchical-2:secondary {-sfsymbols-motion-group:1;-sfsymbols-layer-tags:-1d5b9033ff7da7d6 _enclosure.stroke rectangle.stack}
.hierarchical-3:primary {opacity:0.0;-sfsymbols-clear-behind:true;-sfsymbols-motion-group:0;-sfsymbols-layer-tags:-1d5b9033ff7da7d6 _enclosure.stroke rectangle.stack}
.hierarchical-4:secondary {-sfsymbols-motion-group:0;-sfsymbols-layer-tags:-1d5b9033ff7da7d6 _enclosure.stroke rectangle.stack}
.hierarchical-5:primary {-sfsymbols-variable-threshold:0.84;-sfsymbols-motion-group:0;-sfsymbols-always-pulses:true;-sfsymbols-layer-tags:-1d5b9033ff7da7d6 -40a2b0c90fe1b938 waveform}
.hierarchical-6:primary {-sfsymbols-variable-threshold:0.68;-sfsymbols-motion-group:0;-sfsymbols-always-pulses:true;-sfsymbols-layer-tags:-1d5b9033ff7da7d6 -40a2b0c90fe1b938 waveform}
.hierarchical-7:primary {-sfsymbols-variable-threshold:0.51;-sfsymbols-motion-group:0;-sfsymbols-always-pulses:true;-sfsymbols-layer-tags:-1d5b9033ff7da7d6 -40a2b0c90fe1b938 waveform}
.hierarchical-8:primary {-sfsymbols-variable-threshold:0.34;-sfsymbols-motion-group:0;-sfsymbols-always-pulses:true;-sfsymbols-layer-tags:-1d5b9033ff7da7d6 -40a2b0c90fe1b938 waveform}
.hierarchical-9:primary {-sfsymbols-variable-threshold:0.18;-sfsymbols-motion-group:0;-sfsymbols-always-pulses:true;-sfsymbols-layer-tags:-1d5b9033ff7da7d6 -40a2b0c90fe1b938 waveform}
.hierarchical-10:primary {-sfsymbols-variable-threshold:0.0;-sfsymbols-motion-group:0;-sfsymbols-always-pulses:true;-sfsymbols-layer-tags:-1d5b9033ff7da7d6 -40a2b0c90fe1b938 waveform}

.SFSymbolsPreviewWireframe {fill:none;opacity:1.0;stroke:black;stroke-width:0.5}
</style>
 <g id="Notes">
  <rect height="2200" id="artboard" style="fill:white;opacity:1" width="3300" x="0" y="0"/>
  <line style="fill:none;stroke:black;opacity:1;stroke-width:0.5;" x1="263" x2="3036" y1="292" y2="292"/>
  <text style="stroke:none;fill:black;font-family:sans-serif;font-size:13;font-weight:bold;" transform="matrix(1 0 0 1 263 322)">Weight/Scale Variations</text>
  <text style="stroke:none;fill:black;font-family:sans-serif;font-size:13;text-anchor:middle;" transform="matrix(1 0 0 1 559.711 322)">Ultralight</text>
  <text style="stroke:none;fill:black;font-family:sans-serif;font-size:13;text-anchor:middle;" transform="matrix(1 0 0 1 856.422 322)">Thin</text>
  <text style="stroke:none;fill:black;font-family:sans-serif;font-size:13;text-anchor:middle;" transform="matrix(1 0 0 1 1153.13 322)">Light</text>
  <text style="stroke:none;fill:black;font-family:sans-serif;font-size:13;text-anchor:middle;" transform="matrix(1 0 0 1 1449.84 322)">Regular</text>
  <text style="stroke:none;fill:black;font-family:sans-serif;font-size:13;text-anchor:middle;" transform="matrix(1 0 0 1 1746.56 322)">Medium</text>
  <text style="stroke:none;fill:black;font-family:sans-serif;font-size:13;text-anchor:middle;" transform="matrix(1 0 0 1 2043.27 322)">Semibold</text>
  <text style="stroke:none;fill:black;font-family:sans-serif;font-size:13;text-anchor:middle;" transform="matrix(1 0 0 1 2339.98 322)">Bold</text>
  <text style="stroke:none;fill:black;font-family:sans-serif;font-size:13;text-anchor:middle;" transform="matrix(1 0 0 1 2636.69 322)">Heavy</text>
  <text style="stroke:none;fill:black;font-family:sans-serif;font-size:13;text-anchor:middle;" transform="matrix(1 0 0 1 2933.4 322)">Black</text>
  <line style="fill:none;stroke:black;opacity:1;stroke-width:0.5;" x1="263" x2="3036" y1="1903" y2="1903"/>
  <g transform="matrix(0.2 0 0 0.2 263 1933)">
   <path d="m46.2402 4.15039c21.7773 0 39.4531-17.627 39.4531-39.4043s-17.6758-39.4043-39.4531-39.4043c-21.7285 0-39.4043 17.627-39.4043 39.4043s17.6758 39.4043 39.4043 39.4043Zm0-7.42188c-17.6758 0-31.9336-14.3066-31.9336-31.9824s14.2578-31.9824 31.9336-31.9824 31.9824 14.3066 31.9824 31.9824-14.3066 31.9824-31.9824 31.9824Zm3.61328-17.7734v-28.4668c0-2.24609-1.46484-3.75977-3.71094-3.75977-2.14844 0-3.61328 1.51367-3.61328 3.75977v28.4668c0 2.19727 1.46484 3.71094 3.61328 3.71094 2.24609 0 3.71094-1.51367 3.71094-3.71094Zm-17.8223-10.5957h28.418c2.19727 0 3.71094-1.46484 3.71094-3.61328 0-2.19727-1.51367-3.71094-3.71094-3.71094h-28.418c-2.24609 0-3.75977 1.51367-3.75977 3.71094 0 2.14844 1.51367 3.61328 3.75977 3.61328Z"/>
  </g>
  <g transform="matrix(0.2 0 0 0.2 281.506 1933)">
   <path d="m58.5449 14.5508c27.4902 0 49.8047-22.3145 49.8047-49.8047s-22.3145-49.8047-49.8047-49.8047-49.8047 22.3145-49.8047 49.8047 22.3145 49.8047 49.8047 49.8047Zm0-8.30078c-22.9492 0-41.5039-18.5547-41.5039-41.5039s18.5547-41.5039 41.5039-41.5039 41.5039 18.5547 41.5039 41.5039-18.5547 41.5039-41.5039 41.5039Zm4.05273-23.0957v-36.9141c0-2.49023-1.70898-4.19922-4.15039-4.19922-2.39258 0-4.05273 1.70898-4.05273 4.19922v36.9141c0 2.44141 1.66016 4.15039 4.05273 4.15039 2.44141 0 4.15039-1.66016 4.15039-4.15039Zm-22.5586-14.4043h36.9629c2.44141 0 4.15039-1.61133 4.15039-4.00391 0-2.44141-1.70898-4.15039-4.15039-4.15039h-36.9629c-2.49023 0-4.15039 1.70898-4.15039 4.15039 0 2.39258 1.66016 4.00391 4.15039 4.00391Z"/>
  </g>
  <g transform="matrix(0.2 0 0 0.2 304.924 1933)">
   <path d="m74.8535 28.3203c35.1074 0 63.623-28.4668 63.623-63.5742s-28.5156-63.623-63.623-63.623-63.5742 28.5156-63.5742 63.623 28.4668 63.5742 63.5742 63.5742Zm0-9.08203c-30.127 0-54.4922-24.3652-54.4922-54.4922s24.3652-54.4922 54.4922-54.4922 54.4922 24.3652 54.4922 54.4922-24.3652 54.4922-54.4922 54.4922Zm4.44336-30.3223v-48.4863c0-2.73438-1.85547-4.63867-4.54102-4.63867-2.58789 0-4.44336 1.9043-4.44336 4.63867v48.4863c0 2.68555 1.85547 4.58984 4.44336 4.58984 2.68555 0 4.54102-1.85547 4.54102-4.58984Zm-28.7109-19.7754h48.4863c2.68555 0 4.58984-1.80664 4.58984-4.39453 0-2.73438-1.85547-4.58984-4.58984-4.58984h-48.4863c-2.73438 0-4.58984 1.85547-4.58984 4.58984 0 2.58789 1.85547 4.39453 4.58984 4.39453Z"/>
  </g>
  <text style="stroke:none;fill:black;font-family:sans-serif;font-size:13;font-weight:bold;" transform="matrix(1 0 0 1 263 1953)">Design Variations</text>
  <text style="stroke:none;fill:black;font-family:sans-serif;font-size:13;" transform="matrix(1 0 0 1 263 1971)">Symbols are supported in up to nine weights and three scales.</text>
  <text style="stroke:none;fill:black;font-family:sans-serif;font-size:13;" transform="matrix(1 0 0 1 263 1989)">For optimal layout with text and other symbols, vertically align</text>
  <text style="stroke:none;fill:black;font-family:sans-serif;font-size:13;" transform="matrix(1 0 0 1 263 2007)">symbols with the adjacent text.</text>
  <line style="fill:none;stroke:#00AEEF;stroke-width:0.5;opacity:1.0;" x1="776" x2="776" y1="1919" y2="1933"/>
  <g transform="matrix(0.2 0 0 0.2 776 1933)">
   <path d="m16.5527 0.78125c2.58789 0 3.85742-0.976562 4.78516-3.71094l20.5566-57.5195h0.244141l20.6055 57.5195c0.927734 2.73438 2.19727 3.71094 4.73633 3.71094 2.58789 0 4.24805-1.5625 4.24805-4.00391 0-0.830078-0.146484-1.61133-0.537109-2.63672l-22.9004-60.9863c-1.12305-2.97852-3.125-4.49219-6.25-4.49219-3.02734 0-5.07812 1.46484-6.15234 4.44336l-22.9004 61.084c-0.390625 1.02539-0.537109 1.80664-0.537109 2.63672 0 2.44141 1.5625 3.95508 4.10156 3.95508Zm10.2051-20.9473h30.6641c2.00195 0 3.66211-1.66016 3.66211-3.66211 0-2.05078-1.66016-3.66211-3.66211-3.66211h-30.6641c-2.00195 0-3.66211 1.61133-3.66211 3.66211 0 2.00195 1.66016 3.66211 3.66211 3.66211Z"/>
  </g>
  <line style="fill:none;stroke:#00AEEF;stroke-width:0.5;opacity:1.0;" x1="792.836" x2="792.836" y1="1919" y2="1933"/>
  <text style="stroke:none;fill:black;font-family:sans-serif;font-size:13;font-weight:bold;" transform="matrix(1 0 0 1 776 1953)">Margins</text>
  <text style="stroke:none;fill:black;font-family:sans-serif;font-size:13;" transform="matrix(1 0 0 1 776 1971)">Leading and trailing margins on the left and right side of each symbol</text>
  <text style="stroke:none;fill:black;font-family:sans-serif;font-size:13;" transform="matrix(1 0 0 1 776 1989)">can be adjusted by modifying the x-location of the margin guidelines.</text>
  <text style="stroke:none;fill:black;font-family:sans-serif;font-size:13;" transform="matrix(1 0 0 1 776 2007)">Modifications are automatically applied proportionally to all</text>
  <text style="stroke:none;fill:black;font-family:sans-serif;font-size:13;" transform="matrix(1 0 0 1 776 2025)">scales and weights.</text>
  <g transform="matrix(0.2 0 0 0.2 1289 1933)">
   <path d="m14.209 13.1348 7.86133 7.86133c4.29688 4.39453 9.32617 4.10156 13.8672-1.02539l60.6934-68.2129-4.88281-4.88281-60.2539 67.6758c-1.80664 1.95312-3.4668 2.44141-5.81055 0.0976562l-5.17578-5.12695c-2.29492-2.29492-1.80664-3.95508 0.195312-5.81055l67.4805-62.1582-4.88281-4.83398-68.0664 62.5977c-4.98047 4.58984-5.32227 9.47266-1.02539 13.8184Zm44.873-97.4609c-2.05078 2.00195-2.24609 4.88281-1.07422 6.78711 1.12305 1.80664 3.4668 3.02734 6.5918 2.24609 5.85938-1.66016 12.5977-2.39258 18.8965 0.927734l-2.68555 7.12891c-1.61133 4.00391-0.732422 6.88477 1.70898 9.42383l10.2539 10.3027c2.34375 2.39258 4.54102 2.44141 7.08008 1.95312l4.44336-0.732422 2.58789 2.53906-0.195312 2.24609c-0.0976562 2.29492 0.537109 4.29688 2.7832 6.49414l3.36914 3.32031c2.29492 2.29492 5.51758 2.49023 7.8125 0.195312l12.9883-13.0371c2.29492-2.34375 2.14844-5.37109-0.195312-7.66602l-3.41797-3.41797c-2.19727-2.19727-4.05273-3.02734-6.34766-2.88086l-2.34375 0.244141-2.44141-2.44141 1.02539-4.6875c0.634766-2.73438-0.244141-4.98047-2.88086-7.61719l-11.2793-11.1816c-12.9395-12.8418-35.5957-11.0352-46.6797-0.146484Zm7.08008 2.05078c8.78906-6.39648 25.9766-5.66406 33.6914 1.95312l12.3047 12.207c1.02539 1.02539 1.2207 1.80664 0.927734 3.32031l-1.46484 6.64062 6.73828 6.68945 4.39453-0.244141c1.12305-0.0488281 1.51367 0.0488281 2.34375 0.878906l2.53906 2.49023-10.8398 10.8398-2.49023-2.49023c-0.830078-0.878906-0.976562-1.2207-0.927734-2.39258l0.292969-4.3457-6.68945-6.73828-6.83594 1.17188c-1.41602 0.292969-2.05078 0.195312-3.17383-0.878906l-8.93555-8.88672c-1.07422-1.02539-1.17188-1.70898-0.488281-3.36914l4.58984-11.4746c-6.10352-6.34766-17.041-7.51953-25.5859-4.58984-0.683594 0.244141-0.927734-0.390625-0.390625-0.78125Z"/>
  </g>
  <text style="stroke:none;fill:black;font-family:sans-serif;font-size:13;font-weight:bold;" transform="matrix(1 0 0 1 1289 1953)">Exporting</text>
  <text style="stroke:none;fill:black;font-family:sans-serif;font-size:13;" transform="matrix(1 0 0 1 1289 1971)">Symbols should be outlined when exporting to ensure the</text>
  <text style="stroke:none;fill:black;font-family:sans-serif;font-size:13;" transform="matrix(1 0 0 1 1289 1989)">design is preserved when submitting to Xcode.</text>
  <text id="template-version" style="stroke:none;fill:black;font-family:sans-serif;font-size:13;text-anchor:end;" transform="matrix(1 0 0 1 3036 1933)">Template v.7.0</text>
  <text style="stroke:none;fill:black;font-family:sans-serif;font-size:13;text-anchor:end;" transform="matrix(1 0 0 1 3036 1951)">Requires Xcode 26 or greater</text>
  <text id="descriptive-name" style="stroke:none;fill:black;font-family:sans-serif;font-size:13;text-anchor:end;" transform="matrix(1 0 0 1 3036 1969)">Generated from rectangle.stack</text>
  <text style="stroke:none;fill:black;font-family:sans-serif;font-size:13;text-anchor:end;" transform="matrix(1 0 0 1 3036 1987)">Typeset at 100.0 points</text>
  <text style="stroke:none;fill:black;font-family:sans-serif;font-size:13;" transform="matrix(1 0 0 1 263 726)">Small</text>
  <text style="stroke:none;fill:black;font-family:sans-serif;font-size:13;" transform="matrix(1 0 0 1 263 1156)">Medium</text>
  <text style="stroke:none;fill:black;font-family:sans-serif;font-size:13;" transform="matrix(1 0 0 1 263 1586)">Large</text>
 </g>
 <g id="Guides">
  <g id="H-reference" style="fill:#27AAE1;stroke:none;" transform="matrix(1 0 0 1 339 696)">
   <path d="M0.993654 0L3.63775 0L29.3281-67.1323L30.0303-67.1323L30.0303-70.459L28.1226-70.459ZM11.6885-24.4799L46.9815-24.4799L46.2315-26.7285L12.4385-26.7285ZM55.1196 0L57.7637 0L30.6382-70.459L29.4326-70.459L29.4326-67.1323Z"/>
  </g>
  <line id="Baseline-S" style="fill:none;stroke:#27AAE1;opacity:1;stroke-width:0.5;" x1="263" x2="3036" y1="696" y2="696"/>
  <line id="Capline-S" style="fill:none;stroke:#27AAE1;opacity:1;stroke-width:0.5;" x1="263" x2="3036" y1="625.541" y2="625.541"/>
  <g id="H-reference" style="fill:#27AAE1;stroke:none;" transform="matrix(1 0 0 1 339 1126)">
   <path d="M0.993654 0L3.63775 0L29.3281-67.1323L30.0303-67.1323L30.0303-70.459L28.1226-70.459ZM11.6885-24.4799L46.9815-24.4799L46.2315-26.7285L12.4385-26.7285ZM55.1196 0L57.7637 0L30.6382-70.459L29.4326-70.459L29.4326-67.1323Z"/>
  </g>
  <line id="Baseline-M" style="fill:none;stroke:#27AAE1;opacity:1;stroke-width:0.5;" x1="263" x2="3036" y1="1126" y2="1126"/>
  <line id="Capline-M" style="fill:none;stroke:#27AAE1;opacity:1;stroke-width:0.5;" x1="263" x2="3036" y1="1055.54" y2="1055.54"/>
  <g id="H-reference" style="fill:#27AAE1;stroke:none;" transform="matrix(1 0 0 1 339 1556)">
   <path d="M0.993654 0L3.63775 0L29.3281-67.1323L30.0303-67.1323L30.0303-70.459L28.1226-70.459ZM11.6885-24.4799L46.9815-24.4799L46.2315-26.7285L12.4385-26.7285ZM55.1196 0L57.7637 0L30.6382-70.459L29.4326-70.459L29.4326-67.1323Z"/>
  </g>
  <line id="Baseline-L" style="fill:none;stroke:#27AAE1;opacity:1;stroke-width:0.5;" x1="263" x2="3036" y1="1556" y2="1556"/>
  <line id="Capline-L" style="fill:none;stroke:#27AAE1;opacity:1;stroke-width:0.5;" x1="263" x2="3036" y1="1485.54" y2="1485.54"/>
  <line id="right-margin-Black-S" style="fill:none;stroke:#00AEEF;stroke-width:0.5;opacity:1.0;" x1="2985.35" x2="2985.35" y1="600.785" y2="720.121"/>
  <line id="left-margin-Black-S" style="fill:none;stroke:#00AEEF;stroke-width:0.5;opacity:1.0;" x1="2881.45" x2="2881.45" y1="600.785" y2="720.121"/>
  <line id="right-margin-Regular-S" style="fill:none;stroke:#00AEEF;stroke-width:0.5;opacity:1.0;" x1="1499.7" x2="1499.7" y1="600.785" y2="720.121"/>
  <line id="left-margin-Regular-S" style="fill:none;stroke:#00AEEF;stroke-width:0.5;opacity:1.0;" x1="1399.99" x2="1399.99" y1="600.785" y2="720.121"/>
  <line id="right-margin-Ultralight-S" style="fill:none;stroke:#00AEEF;stroke-width:0.5;opacity:1.0;" x1="609.269" x2="609.269" y1="600.785" y2="720.121"/>
  <line id="left-margin-Ultralight-S" style="fill:none;stroke:#00AEEF;stroke-width:0.5;opacity:1.0;" x1="510.153" x2="510.153" y1="600.785" y2="720.121"/>
 </g>
 <g id="Symbols">
  <g id="Black-S" transform="matrix(1 0 0 1 2881.45 696)">
   <path class="monochrome-0 multicolor-0:tintColor hierarchical-0:secondary SFSymbolsPreviewWireframe" d="M33.9355-42.4316L69.9707-42.4316C74.1211-42.4316 76.6602-45.0195 76.6602-49.1211L76.6602-76.8066C76.6602-80.957 74.1211-83.4961 69.9707-83.4961L33.9355-83.4961C29.7852-83.4961 27.2461-80.957 27.2461-76.8066L27.2461-49.1211C27.2461-45.0195 29.7852-42.4316 33.9355-42.4316Z"/>
   <path class="monochrome-1 multicolor-1:tintColor hierarchical-1:primary SFSymbolsPreviewWireframe" d="M28.5645-11.5234L75.3418-11.5234C84.0332-11.5234 90.0879-17.5781 90.0879-26.2695L90.0879-62.207C90.0879-70.8984 84.0332-76.9531 75.3418-76.9531L28.5645-76.9531C19.873-76.9531 13.8184-70.8984 13.8184-62.207L13.8184-26.2695C13.8184-17.5781 19.873-11.5234 28.5645-11.5234Z"/>
   <path class="monochrome-2 multicolor-2:tintColor hierarchical-2:secondary SFSymbolsPreviewWireframe" d="M28.5645-17.627L75.3418-17.627C80.6641-17.627 83.9844-20.9473 83.9844-26.2695L83.9844-62.207C83.9844-67.5293 80.6641-70.8496 75.3418-70.8496L28.5645-70.8496C23.2422-70.8496 19.9219-67.5293 19.9219-62.207L19.9219-26.2695C19.9219-20.9473 23.2422-17.627 28.5645-17.627Z"/>
   <path class="monochrome-3 multicolor-3:tintColor hierarchical-3:primary SFSymbolsPreviewWireframe" d="M25 19.5312L78.9062 19.5312C92.1387 19.5312 100.732 10.9375 100.732-2.29492L100.732-41.9434C100.732-55.1758 92.1387-63.7695 78.9062-63.7695L25-63.7695C11.7676-63.7695 3.17383-55.1758 3.17383-41.9434L3.17383-2.29492C3.17383 10.9375 11.7676 19.5312 25 19.5312Z"/>
   <path class="monochrome-4 multicolor-4:tintColor hierarchical-4:secondary SFSymbolsPreviewWireframe" d="M25 12.9395L78.9062 12.9395C88.4766 12.9395 94.1406 7.27539 94.1406-2.29492L94.1406-41.9434C94.1406-51.5137 88.4766-57.1777 78.9062-57.1777L25-57.1777C15.4297-57.1777 9.76562-51.5137 9.76562-41.9434L9.76562-2.29492C9.76562 7.27539 15.4297 12.9395 25 12.9395ZM27.2461-1.2207C25-1.2207 23.9258-2.09961 23.9258-4.54102L23.9258-39.6973C23.9258-42.1387 25-43.0176 27.2461-43.0176L76.6602-43.0176C78.9062-43.0176 79.9805-42.1387 79.9805-39.6973L79.9805-4.54102C79.9805-2.09961 78.9062-1.2207 76.6602-1.2207Z"/>
   <path class="monochrome-5 multicolor-5:tintColor hierarchical-5:primary SFSymbolsPreviewWireframe" d="M67.0109-13.5165C68.2258-13.5165 69.2057-14.4752 69.2057-15.6886L69.2057-28.1932C69.2057-29.4066 68.2258-30.3872 67.0109-30.3872C65.8212-30.3872 64.8616-29.4066 64.8616-28.1932L64.8616-15.6886C64.8616-14.4752 65.8212-13.5165 67.0109-13.5165Z"/>
   <path class="monochrome-6 multicolor-6:tintColor hierarchical-6:primary SFSymbolsPreviewWireframe" d="M60.9797-6.78093C62.193-6.78093 63.1745-7.73723 63.1745-8.95298L63.1745-34.906C63.1745-36.1218 62.193-37.1 60.9797-37.1C59.7884-37.1 58.8304-36.1218 58.8304-34.906L58.8304-8.95298C58.8304-7.73723 59.7884-6.78093 60.9797-6.78093Z"/>
   <path class="monochrome-7 multicolor-7:tintColor hierarchical-7:primary SFSymbolsPreviewWireframe" d="M54.9469-11.0163C56.1618-11.0163 57.1418-11.9726 57.1418-13.1883L57.1418-30.6934C57.1418-31.9092 56.1618-32.8874 54.9469-32.8874C53.7548-32.8874 52.7976-31.9092 52.7976-30.6934L52.7976-13.1883C52.7976-11.9726 53.7548-11.0163 54.9469-11.0163Z"/>
   <path class="monochrome-8 multicolor-8:tintColor hierarchical-8:primary SFSymbolsPreviewWireframe" d="M48.9142-3.60184C50.1291-3.60184 51.1105-4.55967 51.1105-5.77303L51.1105-38.086C51.1105-39.2993 50.1291-40.2799 48.9142-40.2799C47.7236-40.2799 46.7641-39.2993 46.7641-38.086L46.7641-5.77303C46.7641-4.55967 47.7236-3.60184 48.9142-3.60184Z"/>
   <path class="monochrome-9 multicolor-9:tintColor hierarchical-9:primary SFSymbolsPreviewWireframe" d="M42.8829-8.24881C44.0954-8.24881 45.077-9.20666 45.077-10.42L45.077-33.4618C45.077-34.6751 44.0954-35.6549 42.8829-35.6549C41.6909-35.6549 40.7337-34.6751 40.7337-33.4618L40.7337-10.42C40.7337-9.20666 41.6909-8.24881 42.8829-8.24881Z"/>
   <path class="monochrome-10 multicolor-10:tintColor hierarchical-10:primary SFSymbolsPreviewWireframe" d="M36.8502-15.3543C38.0643-15.3543 39.0442-16.3105 39.0442-17.5263L39.0442-26.3555C39.0442-27.5712 38.0643-28.5494 36.8502-28.5494C35.6597-28.5494 34.7001-27.5712 34.7001-26.3555L34.7001-17.5263C34.7001-16.3105 35.6597-15.3543 36.8502-15.3543Z"/>
  </g>
  <g id="Regular-S" transform="matrix(1 0 0 1 1399.99 696)">
   <path class="monochrome-0 multicolor-0:tintColor hierarchical-0:secondary SFSymbolsPreviewWireframe" d="M31.6406-40.1367L68.0664-40.1367C71.8262-40.1367 73.9746-42.2363 73.9746-45.9473L73.9746-72.5586C73.9746-76.2695 71.8262-78.3691 68.0664-78.3691L31.6406-78.3691C27.8809-78.3691 25.7324-76.2695 25.7324-72.5586L25.7324-45.9473C25.7324-42.2363 27.8809-40.1367 31.6406-40.1367Z"/>
   <path class="monochrome-1 multicolor-1:tintColor hierarchical-1:primary SFSymbolsPreviewWireframe" d="M25.6836-11.9141L74.0723-11.9141C81.8848-11.9141 87.0117-16.9434 87.0117-24.707L87.0117-60.0586C87.0117-67.8711 81.8848-72.8516 74.0723-72.8516L25.6836-72.8516C17.8223-72.8516 12.7441-67.8711 12.7441-60.0586L12.7441-24.707C12.7441-16.9434 17.8223-11.9141 25.6836-11.9141Z"/>
   <path class="monochrome-2 multicolor-2:tintColor hierarchical-2:secondary SFSymbolsPreviewWireframe" d="M25.5371-16.8945L74.1699-16.8945C79.1992-16.8945 82.0312-19.6777 82.0312-24.6094L82.0312-60.1562C82.0312-65.1367 79.1992-67.9199 74.1699-67.9199L25.5371-67.9199C20.5078-67.9199 17.6758-65.1367 17.6758-60.1562L17.6758-24.6094C17.6758-19.6777 20.5078-16.8945 25.5371-16.8945Z"/>
   <path class="monochrome-3 multicolor-3:tintColor hierarchical-3:primary SFSymbolsPreviewWireframe" d="M22.2168 13.7207L77.5391 13.7207C89.1113 13.7207 95.8984 7.03125 95.8984-4.49219L95.8984-43.5547C95.8984-55.0293 89.1113-61.7188 77.5391-61.7188L22.2168-61.7188C10.5957-61.7188 3.80859-55.0293 3.80859-43.5547L3.80859-4.49219C3.80859 7.03125 10.5957 13.7207 22.2168 13.7207Z"/>
   <path class="monochrome-4 multicolor-4:tintColor hierarchical-4:secondary SFSymbolsPreviewWireframe" d="M22.2168 7.76367L77.5391 7.76367C85.8398 7.76367 89.9902 3.71094 89.9902-4.49219L89.9902-43.5547C89.9902-51.709 85.8398-55.8105 77.5391-55.8105L22.2168-55.8105C13.8672-55.8105 9.76562-51.7578 9.76562-43.5547L9.76562-4.49219C9.76562 3.71094 13.8672 7.76367 22.2168 7.76367ZM22.3145 0.732422C18.7988 0.732422 16.7969-1.17188 16.7969-4.88281L16.7969-43.1641C16.7969-46.875 18.7988-48.7793 22.3145-48.7793L77.4414-48.7793C80.957-48.7793 82.959-46.875 82.959-43.1641L82.959-4.88281C82.959-1.17188 80.957 0.732422 77.4414 0.732422Z"/>
   <path class="monochrome-5 multicolor-5:tintColor hierarchical-5:primary SFSymbolsPreviewWireframe" d="M67.2992-16.8822C68.5308-16.8822 69.4948-17.8496 69.4948-19.0658L69.4948-30.4054C69.4948-31.6215 68.5308-32.6149 67.2992-32.6149C66.0812-32.6149 65.1278-31.6215 65.1278-30.4054L65.1278-19.0658C65.1278-17.8496 66.0812-16.8822 67.2992-16.8822Z"/>
   <path class="monochrome-6 multicolor-6:tintColor hierarchical-6:primary SFSymbolsPreviewWireframe" d="M60.3225-7.35858C61.5386-7.35858 62.5182-8.32436 62.5182-9.5421L62.5182-39.9169C62.5182-41.1346 61.5386-42.1264 60.3225-42.1264C59.0891-42.1264 58.1511-41.1346 58.1511-39.9169L58.1511-9.5421C58.1511-8.32436 59.0891-7.35858 60.3225-7.35858Z"/>
   <path class="monochrome-7 multicolor-7:tintColor hierarchical-7:primary SFSymbolsPreviewWireframe" d="M53.3304-13.1922C54.562-13.1922 55.526-14.1579 55.526-15.3757L55.526-34.0954C55.526-35.3132 54.562-36.305 53.3304-36.305C52.1108-36.305 51.159-35.3132 51.159-34.0954L51.159-15.3757C51.159-14.1579 52.1108-13.1922 53.3304-13.1922Z"/>
   <path class="monochrome-8 multicolor-8:tintColor hierarchical-8:primary SFSymbolsPreviewWireframe" d="M46.3382-3.37264C47.5699-3.37264 48.5494-4.35396 48.5494-5.57008L48.5494-43.8889C48.5494-45.105 47.5699-46.0985 46.3382-46.0985C45.1342-46.0985 44.1807-45.105 44.1807-43.8889L44.1807-5.57008C44.1807-4.35396 45.1342-3.37264 46.3382-3.37264Z"/>
   <path class="monochrome-9 multicolor-9:tintColor hierarchical-9:primary SFSymbolsPreviewWireframe" d="M39.3616-10.2763C40.5916-10.2763 41.5711-11.2576 41.5711-12.4737L41.5711-36.9974C41.5711-38.2135 40.5916-39.2209 39.3616-39.2209C38.1421-39.2209 37.1902-38.2135 37.1902-36.9974L37.1902-12.4737C37.1902-11.2576 38.1421-10.2763 39.3616-10.2763Z"/>
   <path class="monochrome-10 multicolor-10:tintColor hierarchical-10:primary SFSymbolsPreviewWireframe" d="M32.3694-18.7503C33.615-18.7503 34.579-19.7161 34.579-20.9338L34.579-28.5373C34.579-29.755 33.615-30.7468 32.3694-30.7468C31.1655-30.7468 30.2119-29.755 30.2119-28.5373L30.2119-20.9338C30.2119-19.7161 31.1655-18.7503 32.3694-18.7503Z"/>
  </g>
  <g id="Ultralight-S" transform="matrix(1 0 0 1 510.153 696)">
   <path class="monochrome-0 multicolor-0:tintColor hierarchical-0:secondary SFSymbolsPreviewWireframe" d="M28.2349-37.5938L70.8818-37.5938C72.5981-37.5938 73.8384-38.7852 73.8384-40.4981L73.8384-71.3779C73.8384-73.0908 72.5981-74.3277 70.8818-74.3277L28.2349-74.3277C26.5186-74.3277 25.2783-73.0908 25.2783-71.3779L25.2783-40.4981C25.2783-38.7852 26.5186-37.5938 28.2349-37.5938Z"/>
   <path class="monochrome-1 multicolor-1:tintColor hierarchical-1:primary SFSymbolsPreviewWireframe" d="M23.1406-12.0957L75.9795-12.0957C82.5205-12.0957 87.2388-16.8071 87.2388-23.3447L87.2388-60.9214C87.2388-67.5078 82.5205-72.2158 75.9795-72.2158L23.1406-72.2158C16.5962-72.2158 11.8814-67.5078 11.8814-60.9214L11.8814-23.3447C11.8814-16.8071 16.5962-12.0957 23.1406-12.0957Z"/>
   <path class="monochrome-2 multicolor-2:tintColor hierarchical-2:secondary SFSymbolsPreviewWireframe" d="M21.314-18.3931L77.8027-18.3931C79.7441-18.3931 80.9414-19.5869 80.9414-21.5215L80.9414-62.79C80.9414-64.728 79.7441-65.9219 77.8027-65.9219L21.314-65.9219C19.3726-65.9219 18.1753-64.728 18.1753-62.79L18.1753-21.5215C18.1753-19.5869 19.3726-18.3931 21.314-18.3931Z"/>
   <path class="monochrome-3 multicolor-3:tintColor hierarchical-3:primary SFSymbolsPreviewWireframe" d="M19.7193 11.0869L79.4009 11.0869C89.9287 11.0869 96.625 4.30666 96.625-6.17235L96.625-46.5063C96.625-56.9819 89.9287-63.7622 79.4009-63.7622L19.7193-63.7622C9.188-63.7622 2.49171-57.0727 2.49171-46.5063L2.49171-6.17235C2.49171 4.39748 9.188 11.0869 19.7193 11.0869Z"/>
   <path class="monochrome-4 multicolor-4:tintColor hierarchical-4:secondary SFSymbolsPreviewWireframe" d="M19.7193 3.81302L79.4009 3.81302C85.9307 3.81302 89.3545 0.259793 89.3545-6.17235L89.3545-46.5063C89.3545-52.9805 85.9307-56.4917 79.4009-56.4917L19.7193-56.4917C13.186-56.4917 9.76562-53.0747 9.76562-46.5063L9.76562-6.17235C9.76562 0.350612 13.186 3.81302 19.7193 3.81302ZM19.8169 1.59521C14.6665 1.59521 11.938-1.08106 11.938-6.29052L11.938-46.4336C11.938-51.5976 14.6665-54.3193 19.8169-54.3193L79.3032-54.3193C84.2719-54.3193 87.1821-51.5976 87.1821-46.4336L87.1821-6.29052C87.1821-1.08106 84.2719 1.59521 79.3032 1.59521Z"/>
   <path class="monochrome-5 multicolor-5:tintColor hierarchical-5:primary SFSymbolsPreviewWireframe" d="M64.8969-20.2715C65.4661-20.2715 65.892-20.693 65.892-21.2667L65.892-32.3923C65.892-32.966 65.4661-33.3975 64.8969-33.3975C64.3132-33.3975 63.9017-32.966 63.9017-32.3923L63.9017-21.2667C63.9017-20.693 64.3132-20.2715 64.8969-20.2715Z"/>
   <path class="monochrome-6 multicolor-6:tintColor hierarchical-6:primary SFSymbolsPreviewWireframe" d="M58.7568-12.1474C59.3305-12.1474 59.752-12.5833 59.752-13.1425L59.752-40.5165C59.752-41.0757 59.3305-41.5216 58.7568-41.5216C58.1775-41.5216 57.7617-41.0757 57.7617-40.5165L57.7617-13.1425C57.7617-12.5833 58.1775-12.1474 58.7568-12.1474Z"/>
   <path class="monochrome-7 multicolor-7:tintColor hierarchical-7:primary SFSymbolsPreviewWireframe" d="M52.6212-16.9571C53.1904-16.9571 53.6163-17.3929 53.6163-17.9522L53.6163-35.7068C53.6163-36.266 53.1904-36.7119 52.6212-36.7119C52.0519-36.7119 51.626-36.266 51.626-35.7068L51.626-17.9522C51.626-17.3929 52.0519-16.9571 52.6212-16.9571Z"/>
   <path class="monochrome-8 multicolor-8:tintColor hierarchical-8:primary SFSymbolsPreviewWireframe" d="M46.4855-7.31323C47.0548-7.31323 47.4763-7.74474 47.4763-8.31837L47.4763-45.3406C47.4763-45.9142 47.0548-46.3458 46.4855-46.3458C45.9119-46.3458 45.5004-45.9142 45.5004-45.3406L45.5004-8.31837C45.5004-7.74474 45.9119-7.31323 46.4855-7.31323Z"/>
   <path class="monochrome-9 multicolor-9:tintColor hierarchical-9:primary SFSymbolsPreviewWireframe" d="M40.3455-15.0137C40.9291-15.0137 41.3506-15.4452 41.3506-16.0188L41.3506-37.6402C41.3506-38.2138 40.9291-38.6553 40.3455-38.6553C39.7762-38.6553 39.3503-38.2138 39.3503-37.6402L39.3503-16.0188C39.3503-15.4452 39.7762-15.0137 40.3455-15.0137Z"/>
   <path class="monochrome-10 multicolor-10:tintColor hierarchical-10:primary SFSymbolsPreviewWireframe" d="M34.2098-22.1363C34.7891-22.1363 35.2149-22.5721 35.2149-23.1314L35.2149-30.5276C35.2149-31.0869 34.7891-31.5328 34.2098-31.5328C33.6362-31.5328 33.2247-31.0869 33.2247-30.5276L33.2247-23.1314C33.2247-22.5721 33.6362-22.1363 34.2098-22.1363Z"/>
  </g>
 </g>
</svg>
